<svg width="200" height="200" viewBox="0 0 200 200" fill="none" xmlns="http://www.w3.org/2000/svg">
<g clip-path="url(#clip0_51_235)">
<path d="M175.851 0H24.149C10.8118 0 0 10.8118 0 24.149V175.851C0 189.188 10.8118 200 24.149 200H175.851C189.188 200 200 189.188 200 175.851V24.149C200 10.8118 189.188 0 175.851 0Z" fill="#111010"/>
<path d="M115.647 22.7151H84.3528C83.6985 22.7149 83.0507 22.8437 82.4462 23.0939C81.8417 23.3442 81.2924 23.7112 80.8298 24.1738C80.3672 24.6364 80.0002 25.1857 79.75 25.7902C79.4997 26.3947 79.3709 27.0425 79.3711 27.6968V58.9909C79.3709 59.6452 79.4997 60.293 79.75 60.8975C80.0002 61.502 80.3672 62.0513 80.8298 62.5139C81.2924 62.9765 81.8417 63.3435 82.4462 63.5937C83.0507 63.844 83.6985 63.9728 84.3528 63.9726H115.647C116.301 63.9728 116.949 63.844 117.554 63.5937C118.158 63.3435 118.707 62.9765 119.17 62.5139C119.633 62.0513 119.999 61.502 120.25 60.8975C120.5 60.293 120.629 59.6452 120.629 58.9909V27.6968C120.629 27.0425 120.5 26.3947 120.25 25.7902C119.999 25.1857 119.633 24.6364 119.17 24.1738C118.707 23.7112 118.158 23.3442 117.554 23.0939C116.949 22.8437 116.301 22.7149 115.647 22.7151Z" fill="white"/>
<path d="M115.647 79.3713H84.3528C83.6985 79.3712 83.0507 79.4999 82.4462 79.7502C81.8417 80.0005 81.2924 80.3674 80.8298 80.8301C80.3672 81.2927 80.0002 81.8419 79.75 82.4464C79.4997 83.0509 79.3709 83.6988 79.3711 84.353V115.647C79.3709 116.301 79.4997 116.949 79.75 117.554C80.0002 118.158 80.3672 118.708 80.8298 119.17C81.2924 119.633 81.8417 120 82.4462 120.25C83.0507 120.5 83.6985 120.629 84.3528 120.629H115.647C116.301 120.629 116.949 120.5 117.554 120.25C118.158 120 118.707 119.633 119.17 119.17C119.633 118.708 119.999 118.158 120.25 117.554C120.5 116.949 120.629 116.301 120.629 115.647V84.353C120.629 83.6988 120.5 83.0509 120.25 82.4464C119.999 81.8419 119.633 81.2927 119.17 80.8301C118.707 80.3674 118.158 80.0005 117.554 79.7502C116.949 79.4999 116.301 79.3712 115.647 79.3713Z" fill="white"/>
<path d="M115.647 136.027H84.3528C83.6985 136.027 83.0507 136.156 82.4462 136.406C81.8417 136.657 81.2924 137.023 80.8298 137.486C80.3672 137.949 80.0002 138.498 79.75 139.102C79.4997 139.707 79.3709 140.355 79.3711 141.009V172.303C79.3709 172.957 79.4997 173.605 79.75 174.21C80.0002 174.814 80.3672 175.364 80.8298 175.826C81.2924 176.289 81.8417 176.656 82.4462 176.906C83.0507 177.156 83.6985 177.285 84.3528 177.285H115.647C116.301 177.285 116.949 177.156 117.554 176.906C118.158 176.656 118.707 176.289 119.17 175.826C119.633 175.364 119.999 174.814 120.25 174.21C120.5 173.605 120.629 172.957 120.629 172.303V141.009C120.629 140.355 120.5 139.707 120.25 139.102C119.999 138.498 119.633 137.949 119.17 137.486C118.707 137.023 118.158 136.657 117.554 136.406C116.949 136.156 116.301 136.027 115.647 136.027Z" fill="white"/>
<path d="M177.285 115.647V84.353C177.285 83.6988 177.156 83.0509 176.906 82.4464C176.656 81.8419 176.289 81.2927 175.826 80.8301C175.364 80.3674 174.814 80.0005 174.21 79.7502C173.605 79.4999 172.957 79.3712 172.303 79.3713H141.009C140.355 79.3712 139.707 79.4999 139.102 79.7502C138.498 80.0005 137.949 80.3674 137.486 80.8301C137.023 81.2927 136.657 81.8419 136.406 82.4464C136.156 83.0509 136.027 83.6988 136.027 84.353V115.647C136.027 116.301 136.156 116.949 136.406 117.554C136.657 118.158 137.023 118.708 137.486 119.17C137.949 119.633 138.498 120 139.102 120.25C139.707 120.5 140.355 120.629 141.009 120.629H172.303C172.957 120.629 173.605 120.5 174.21 120.25C174.814 120 175.364 119.633 175.826 119.17C176.289 118.708 176.656 118.158 176.906 117.554C177.156 116.949 177.285 116.301 177.285 115.647Z" fill="white"/>
<path d="M63.9724 115.647V84.353C63.9725 83.6988 63.8438 83.0509 63.5935 82.4464C63.3432 81.8419 62.9763 81.2927 62.5136 80.8301C62.051 80.3674 61.5018 80.0005 60.8973 79.7502C60.2928 79.4999 59.6449 79.3712 58.9907 79.3713H27.6965C27.0423 79.3712 26.3944 79.4999 25.7899 79.7502C25.1854 80.0005 24.6362 80.3674 24.1736 80.8301C23.7109 81.2927 23.344 81.8419 23.0937 82.4464C22.8434 83.0509 22.7147 83.6988 22.7148 84.353V115.647C22.7147 116.301 22.8434 116.949 23.0937 117.554C23.344 118.158 23.7109 118.708 24.1736 119.17C24.6362 119.633 25.1854 120 25.7899 120.25C26.3944 120.5 27.0423 120.629 27.6965 120.629H58.9907C59.6449 120.629 60.2928 120.5 60.8973 120.25C61.5018 120 62.051 119.633 62.5136 119.17C62.9763 118.708 63.3432 118.158 63.5935 117.554C63.8438 116.949 63.9725 116.301 63.9724 115.647Z" fill="white"/>
</g>
<defs>
<clipPath id="clip0_51_235">
<rect width="200" height="200" fill="white"/>
</clipPath>
</defs>
</svg>
