<svg width="200" height="200" viewBox="0 0 200 200" fill="none" xmlns="http://www.w3.org/2000/svg">
<g clip-path="url(#clip0_52_243)">
<path d="M175.851 0H24.149C10.8118 0 0 10.8118 0 24.149V175.851C0 189.188 10.8118 200 24.149 200H175.851C189.188 200 200 189.188 200 175.851V24.149C200 10.8118 189.188 0 175.851 0Z" fill="#111010"/>
<path d="M169.064 68.4954H44.7042C37.1015 68.4954 30.9395 75.613 30.9395 84.3921V145.195C30.9395 153.975 37.1029 161.093 44.7055 161.093H155.299C162.902 161.093 169.065 153.975 169.065 145.195V68.4954H169.064Z" fill="white"/>
<path d="M159.519 42.3765H129.281C124.012 42.3765 119.74 47.3098 119.74 53.3961V60.2131H169.061V53.3961C169.062 47.3111 164.79 42.3765 159.519 42.3765Z" fill="white"/>
</g>
<defs>
<clipPath id="clip0_52_243">
<rect width="200" height="200" fill="white"/>
</clipPath>
</defs>
</svg>
