<svg width="200" height="200" viewBox="0 0 200 200" fill="none" xmlns="http://www.w3.org/2000/svg">
<g clip-path="url(#clip0_52_248)">
<path d="M175.851 0H24.149C10.8118 0 0 10.8118 0 24.149V175.851C0 189.188 10.8118 200 24.149 200H175.851C189.188 200 200 189.188 200 175.851V24.149C200 10.8118 189.188 0 175.851 0Z" fill="#111010"/>
<path d="M105.022 69.6797L30.3733 163.426C27.3223 167.523 32.4791 172.678 36.5746 169.627L130.321 94.9791C133.835 92.3621 134.209 87.2353 131.109 84.1373L115.862 68.8902C115.133 68.1612 114.255 67.5978 113.289 67.2382C112.322 66.8785 111.29 66.7312 110.261 66.8061C109.233 66.881 108.233 67.1764 107.329 67.6723C106.424 68.1681 105.638 68.8528 105.022 69.6797Z" fill="white"/>
<path d="M157.668 69.8392C165.264 62.2431 170.55 29.4509 170.55 29.4509C170.55 29.4509 137.757 34.7385 130.162 42.3333C122.566 49.9294 122.566 62.2444 130.162 69.8392C137.757 77.4339 150.072 77.4339 157.668 69.8392Z" fill="white"/>
</g>
<defs>
<clipPath id="clip0_52_248">
<rect width="200" height="200" fill="white"/>
</clipPath>
</defs>
</svg>
