<svg width="747" height="747" viewBox="0 0 747 747" fill="none" xmlns="http://www.w3.org/2000/svg">
<path d="M430.732 440.197C427.347 440.197 424.081 438.682 421.982 435.999C421.399 435.302 393.398 402.401 316.285 404.03H285.134C271.484 404.03 260.285 392.947 260.285 379.181V329.483C260.285 315.833 271.368 304.634 285.134 304.634H316.052C393.521 306.384 421.749 273.019 422.104 272.665C425.135 268.93 430.27 267.529 434.703 269.165C439.135 270.8 442.172 274.998 442.172 279.779V428.766C442.172 433.547 439.14 437.865 434.588 439.5C433.302 439.964 432.015 440.198 430.734 440.198L430.732 440.197ZM322.347 381.28C370.53 381.28 401.446 393.999 419.415 405.197V303.463C400.634 315.129 367.498 328.312 315.696 327.265H285.014C283.847 327.265 282.795 328.198 282.795 329.484V379.181C282.795 380.348 283.727 381.4 285.014 381.4H315.931C318.15 381.4 320.248 381.28 322.347 381.28Z" fill="black"/>
<path d="M329.24 478.104H289.688C283.74 478.104 278.719 473.437 278.37 467.49L273.818 394.459C273.703 393.876 273.703 393.292 273.703 392.709C273.703 386.407 278.719 381.391 285.021 381.391H285.135C291.083 381.391 296.104 386.058 296.453 392.006L300.422 455.475H312.672C305.323 431.792 305.906 406.71 309.287 390.256C310.568 384.189 316.521 380.225 322.589 381.506C328.656 382.788 332.62 388.741 331.339 394.809C327.724 412.194 328.771 440.543 339.391 461.658C341.141 465.158 341.026 469.356 338.922 472.741C336.823 476.121 333.203 478.106 329.24 478.106L329.24 478.104Z" fill="black"/>
<path d="M325.265 404.024C318.963 404.024 313.947 399.008 313.947 392.706V316.056C313.947 309.753 318.963 304.738 325.265 304.738C331.567 304.738 336.583 309.753 336.583 316.056V392.706C336.583 398.894 331.567 404.024 325.265 404.024Z" fill="black"/>
<path d="M465.733 333.557C461.998 333.557 458.384 331.807 456.285 328.422C452.9 323.172 454.301 316.172 459.551 312.786L482.187 297.968C487.437 294.468 494.437 295.984 497.823 301.234C501.208 306.484 499.807 313.484 494.557 316.87L471.921 331.687C470.051 332.854 467.832 333.557 465.733 333.557Z" fill="black"/>
<path d="M488.359 412.664C486.26 412.664 484.041 412.081 482.177 410.799L459.541 395.982C454.291 392.597 452.89 385.597 456.275 380.346C459.661 375.096 466.661 373.695 471.911 377.08L494.547 391.898C499.797 395.283 501.198 402.283 497.813 407.534C495.594 410.914 491.979 412.664 488.359 412.664Z" fill="black"/>
<path d="M496.999 365.651H475.302C469 365.651 463.984 360.635 463.984 354.333C463.984 348.031 469 343.015 475.302 343.015H496.999C503.302 343.015 508.317 348.031 508.317 354.333C508.317 360.63 503.182 365.651 496.999 365.651Z" fill="black"/>
<path d="M373.333 573.317C263.082 573.317 173.359 483.599 173.359 373.344C173.359 263.089 263.078 173.371 373.333 173.371C483.587 173.371 573.306 263.089 573.306 373.344C573.306 483.599 483.587 573.317 373.333 573.317ZM373.333 196.011C275.567 196.011 195.999 275.579 195.999 373.344C195.999 471.109 275.567 550.677 373.333 550.677C471.098 550.677 550.666 471.109 550.666 373.344C550.666 275.579 471.098 196.011 373.333 196.011Z" fill="black"/>
<path d="M638.279 111.427C619.143 111.427 603.514 95.7907 603.514 76.6613C603.514 57.5253 619.15 41.896 638.279 41.896C657.415 41.896 673.044 57.532 673.044 76.6613C673.05 95.792 657.528 111.427 638.279 111.427ZM638.279 64.4107C631.628 64.4107 626.144 69.8951 626.144 76.5461C626.144 83.1972 631.628 88.6816 638.279 88.6816C644.93 88.6816 650.414 83.1972 650.414 76.5461C650.414 69.8951 645.05 64.4107 638.279 64.4107Z" fill="black"/>
<path d="M686.466 168.131H589.982C583.68 168.131 578.664 163.115 578.664 156.813C578.664 123.912 605.383 97.1982 638.164 97.1982C670.945 97.1982 697.664 123.917 697.664 156.813C697.779 163.115 692.763 168.131 686.466 168.131ZM603.163 145.5H673.398C668.617 130.683 654.616 119.833 638.283 119.833C621.83 119.948 607.944 130.682 603.163 145.5Z" fill="black"/>
<path d="M638.278 216.771C578.543 216.771 529.893 168.12 529.893 108.385C529.893 48.6507 578.543 0 638.278 0C698.013 0.00520827 746.663 48.656 746.663 108.391C746.663 168.12 698.013 216.771 638.278 216.771ZM638.278 22.6373C591.027 22.6373 552.529 61.1373 552.529 108.387C552.529 155.636 591.029 194.136 638.278 194.136C685.527 194.136 724.027 155.636 724.027 108.387C724.027 61.1373 685.527 22.6373 638.278 22.6373Z" fill="black"/>
<path d="M108.384 641.33C89.2485 641.33 73.6191 625.694 73.6191 606.565C73.6191 587.429 89.2551 571.8 108.384 571.8C127.52 571.8 143.15 587.436 143.15 606.565C143.15 625.696 127.514 641.33 108.384 641.33ZM108.384 594.429C101.733 594.429 96.249 599.914 96.249 606.565C96.249 613.216 101.733 618.7 108.384 618.7C115.036 618.7 120.52 613.216 120.52 606.565C120.515 599.794 115.03 594.429 108.384 594.429Z" fill="black"/>
<path d="M156.572 698.144H60.2025C53.9004 698.144 48.8848 693.128 48.8848 686.826C48.8848 653.925 75.6034 627.211 108.385 627.211C141.166 627.211 167.885 653.93 167.885 686.826C167.89 693.008 162.869 698.144 156.572 698.144ZM73.2692 675.508H143.504C138.723 660.69 124.722 649.841 108.389 649.841C91.9358 649.841 78.0558 660.576 73.2692 675.508Z" fill="black"/>
<path d="M108.385 746.677C48.6507 746.677 0 698.027 0 638.292C0 578.557 48.6507 529.907 108.385 529.907C168.12 529.907 216.771 578.557 216.771 638.292C216.765 698.027 168.115 746.677 108.385 746.677ZM108.385 552.544C61.1347 552.544 22.636 591.044 22.636 638.293C22.636 685.543 61.136 724.043 108.385 724.043C155.635 724.043 194.135 685.543 194.135 638.293C194.135 591.044 155.635 552.544 108.385 552.544Z" fill="black"/>
<path d="M108.384 111.427C89.2485 111.427 73.6191 95.7907 73.6191 76.6613C73.6191 57.5253 89.2551 41.896 108.384 41.896C127.52 41.896 143.15 57.532 143.15 76.6613C143.15 95.792 127.514 111.427 108.384 111.427ZM108.384 64.4107C101.733 64.4107 96.249 69.8951 96.249 76.5461C96.249 83.1972 101.733 88.6816 108.384 88.6816C115.036 88.6816 120.52 83.1972 120.52 76.5461C120.515 69.8951 115.03 64.4107 108.384 64.4107Z" fill="black"/>
<path d="M156.572 168.131H60.2025C53.9004 168.131 48.8848 163.115 48.8848 156.813C48.8848 123.912 75.6034 97.1982 108.385 97.1982C141.166 97.1982 167.885 123.917 167.885 156.813C167.89 163.115 162.869 168.131 156.572 168.131ZM73.2692 145.5H143.504C138.723 130.683 124.722 119.833 108.389 119.833C91.9358 119.948 78.0558 130.682 73.2692 145.5Z" fill="black"/>
<path d="M108.385 216.771C48.6507 216.771 0 168.12 0 108.391C0 48.656 48.6507 0.00537109 108.385 0.00537109C168.12 0.00537109 216.771 48.656 216.771 108.391C216.765 168.12 168.115 216.771 108.385 216.771ZM108.385 22.6374C61.1347 22.6374 22.636 61.1374 22.636 108.387C22.636 155.636 61.136 194.136 108.385 194.136C155.635 194.136 194.135 155.636 194.135 108.387C194.135 61.1374 155.635 22.6374 108.385 22.6374Z" fill="black"/>
<path d="M638.279 641.33C619.143 641.33 603.514 625.694 603.514 606.565C603.514 587.429 619.15 571.8 638.279 571.8C657.415 571.8 673.044 587.436 673.044 606.565C673.05 625.696 657.528 641.33 638.279 641.33ZM638.279 594.429C631.628 594.429 626.144 599.914 626.144 606.565C626.144 613.216 631.628 618.7 638.279 618.7C644.93 618.7 650.414 613.216 650.414 606.565C650.414 599.794 645.05 594.429 638.279 594.429Z" fill="black"/>
<path d="M686.466 698.144H589.982C583.68 698.144 578.664 693.128 578.664 686.826C578.664 653.925 605.383 627.211 638.164 627.211C670.945 627.211 697.664 653.93 697.664 686.826C697.779 693.008 692.763 698.144 686.466 698.144ZM603.163 675.508H673.398C668.617 660.69 654.616 649.841 638.283 649.841C621.83 649.841 607.944 660.576 603.163 675.508Z" fill="black"/>
<path d="M638.278 746.677C578.543 746.677 529.893 698.027 529.893 638.292C529.893 578.557 578.543 529.907 638.278 529.907C698.013 529.907 746.663 578.557 746.663 638.292C746.663 698.027 698.013 746.677 638.278 746.677ZM638.278 552.544C591.027 552.544 552.529 591.044 552.529 638.293C552.529 685.543 591.029 724.043 638.278 724.043C685.527 724.043 724.027 685.543 724.027 638.293C724.027 591.044 685.527 552.544 638.278 552.544Z" fill="black"/>
<path d="M493.971 119.708H252.704C246.402 119.708 241.387 114.693 241.387 108.39C241.387 102.088 246.402 97.0728 252.704 97.0728H494.091C500.393 97.0728 505.409 102.088 505.409 108.39C505.289 114.578 500.273 119.708 493.977 119.708H493.971Z" fill="black"/>
<path d="M493.971 649.611H252.704C246.402 649.611 241.387 644.595 241.387 638.293C241.387 631.991 246.402 626.975 252.704 626.975H494.091C500.393 626.975 505.409 631.991 505.409 638.293C505.409 644.595 500.273 649.611 493.977 649.611H493.971Z" fill="black"/>
<path d="M108.386 505.291C102.084 505.291 97.0684 500.275 97.0684 493.973V252.706C97.0684 246.404 102.084 241.389 108.386 241.389C114.688 241.389 119.704 246.404 119.704 252.706V494.093C119.699 500.275 114.568 505.291 108.386 505.291Z" fill="black"/>
<path d="M638.279 505.291C631.977 505.291 626.961 500.275 626.961 493.973L626.966 252.706C626.966 246.404 631.982 241.389 638.284 241.389C644.586 241.389 649.602 246.404 649.602 252.706V494.093C649.596 500.275 644.581 505.291 638.279 505.291Z" fill="black"/>
</svg>
