<svg width="753" height="700" viewBox="0 0 753 700" fill="none" xmlns="http://www.w3.org/2000/svg">
<path d="M374.483 287.181C379.077 306.708 369.89 326.238 354.957 329.681L358.405 346.91C383.675 341.166 397.462 312.446 391.717 283.733C384.826 255.014 359.55 235.488 334.279 241.233L337.727 258.462C353.806 253.869 369.888 267.655 374.482 287.181H374.483Z" fill="black"/>
<path d="M432.738 367.501L395.732 344.345L404.873 329.741L441.878 352.897L432.738 367.501Z" fill="black"/>
<path d="M450.511 260.755L454.386 277.547L411.855 287.359L407.98 270.567L450.511 260.755Z" fill="black"/>
<path d="M392.031 189.421L406.64 198.557L383.5 235.568L368.891 226.432L392.031 189.421Z" fill="black"/>
<path d="M250.417 516.928C253.865 511.183 253.865 505.438 252.714 499.699C251.563 493.954 246.969 488.209 242.376 484.767C245.824 479.022 245.824 473.277 244.673 466.387C241.225 452.6 228.59 444.559 214.809 448.007L206.767 450.304C210.215 442.262 211.361 433.074 209.064 423.882L206.767 415.841L183.794 421.585C181.497 418.138 179.2 415.841 175.752 413.544L173.455 412.393C171.158 411.242 170.007 407.799 170.007 405.502L171.158 397.461L198.726 391.716L195.278 375.633C209.065 373.336 222.846 371.039 236.633 371.039C266.497 371.039 297.513 376.784 338.868 391.717L344.613 415.842C345.764 419.29 349.206 422.733 352.654 422.733H354.951C359.545 421.582 362.993 416.988 361.842 412.394L327.378 264.207L312.451 196.431L310.149 182.65C308.998 178.056 304.404 174.609 299.81 175.759C295.217 176.91 291.769 181.504 292.92 186.098L298.665 210.223C253.862 253.874 219.405 275.702 175.753 288.338L172.305 272.255L93.0447 290.635C60.8781 298.677 40.2061 330.838 47.0967 363.005C53.9874 390.573 78.1127 410.103 105.681 410.103H110.274L121.764 435.374L112.577 437.671C105.686 438.822 98.7899 444.562 96.4939 451.458L86.1554 477.879L63.1821 483.624L66.6299 500.853L97.6459 493.962L111.433 459.498C112.584 457.201 113.73 456.051 116.026 456.051L191.844 438.821C191.844 442.269 190.693 445.712 188.396 449.16C184.948 454.905 179.208 458.347 173.464 460.649L136.704 468.691L140.152 485.92L157.381 482.472V490.514C158.532 496.259 161.975 502.004 167.72 505.446C165.423 511.191 164.272 516.936 165.423 522.675C166.574 528.42 170.016 534.165 175.761 537.607C173.464 543.352 172.313 549.097 173.464 554.837C174.615 560.581 178.058 566.326 183.803 569.769C181.506 575.513 180.355 581.258 181.506 586.998C182.657 589.295 182.657 592.743 184.954 595.04L149.344 603.081H142.454L128.656 597.336C122.912 596.185 117.167 596.185 111.427 597.336L83.859 604.227L87.3069 621.456L114.875 614.566C118.323 613.415 121.766 613.415 124.062 614.566L136.698 616.863C141.292 618.014 145.885 618.014 150.484 616.863L205.624 604.227H210.218L229.745 599.633C236.636 598.482 242.38 593.889 245.828 588.144C249.275 582.399 250.421 575.508 249.275 568.617C248.124 565.169 246.978 562.872 245.828 560.576C256.166 555.982 263.057 543.346 259.614 531.857C258.463 524.966 255.015 520.373 250.422 516.925L250.417 516.928ZM303.256 230.901L321.636 311.313L335.423 369.897C296.365 357.262 266.501 351.517 237.783 351.517C222.851 351.517 207.919 352.668 191.835 356.111L180.345 305.57C229.741 291.783 266.496 265.367 303.257 230.903L303.256 230.901ZM64.3226 358.407C58.5778 335.433 73.5101 311.308 96.4893 306.713L158.52 291.781L178.047 375.636L127.505 387.126L114.87 389.422C111.422 390.574 107.979 390.574 105.682 390.574C86.1464 392.87 68.9173 379.084 64.3226 358.407ZM128.651 406.657L153.921 400.913C151.624 410.1 156.218 420.439 164.26 425.038L140.134 430.777L128.651 406.657ZM235.479 529.569C238.926 529.569 242.369 531.866 243.52 535.314C244.671 539.908 242.369 544.502 237.775 544.502L199.869 553.689C195.275 554.84 190.681 551.392 190.681 547.944C189.53 543.35 191.832 538.757 196.426 538.757L234.333 529.569H235.479ZM182.64 514.637C181.489 510.044 183.791 505.45 188.385 505.45L225.145 497.408H227.442C230.89 497.408 234.332 499.705 235.483 503.153C236.634 507.747 234.332 512.341 229.738 512.341L191.832 521.528C188.384 522.679 183.791 519.231 182.64 514.637ZM219.4 464.091H221.697C225.145 464.091 228.588 466.388 229.738 469.835C229.738 472.132 229.738 474.429 228.587 475.58C227.436 477.877 225.14 479.028 222.843 479.028L186.083 488.221C181.489 489.372 176.895 485.924 175.744 482.476C175.744 480.179 175.744 477.882 176.895 476.731C178.046 474.434 179.192 473.283 181.489 473.283L219.4 464.091ZM232.035 577.815C230.884 580.112 228.588 581.263 227.442 581.263L207.915 585.856C203.321 587.007 198.728 583.559 198.728 580.111C197.577 575.518 199.879 570.924 204.472 570.924L223.999 566.33H226.296C229.744 566.33 233.187 568.627 234.338 572.075C233.181 574.372 233.181 576.669 232.035 577.815Z" fill="black"/>
<path d="M0 0V699.573H752.413V0H0ZM735.173 17.2293V129.803H17.2267V17.2293H735.173ZM17.2267 681.189V147.043H735.173V681.203L17.2267 681.189Z" fill="black"/>
<path d="M510.031 102.235C526.114 102.235 539.895 88.4482 539.895 72.3708C539.895 56.2882 526.109 42.5068 510.031 42.5068C493.949 42.5016 480.162 56.2882 480.162 72.3708C480.162 88.4495 493.949 102.235 510.031 102.235ZM510.031 59.7295C516.922 59.7295 522.667 65.4743 522.667 72.365C522.667 79.2556 516.922 85.0004 510.031 85.0004C503.141 85.0004 497.396 79.2556 497.396 72.365C497.396 65.4743 503.136 59.7295 510.031 59.7295Z" fill="black"/>
<path d="M593.884 102.235C609.966 102.235 623.748 88.4481 623.748 72.3708C623.753 56.2881 611.117 42.5015 593.884 42.5015C576.654 42.5015 564.02 56.2881 564.02 72.3708C564.02 88.4495 577.801 102.235 593.884 102.235ZM593.884 59.7295C600.774 59.7295 606.519 65.4743 606.519 72.3649C606.519 79.2556 600.774 85.0004 593.884 85.0004C586.993 85.0004 581.248 79.2556 581.248 72.3649C581.248 65.4743 586.993 59.7295 593.884 59.7295Z" fill="black"/>
<path d="M677.75 102.235C693.833 102.235 707.614 88.4482 707.614 72.3708C707.614 56.2882 693.828 42.5068 677.75 42.5068C661.668 42.5016 647.881 56.2882 647.881 72.3708C647.881 88.4495 661.668 102.235 677.75 102.235ZM677.75 59.7295C684.641 59.7295 690.386 65.4743 690.386 72.365C690.386 79.2556 684.641 85.0004 677.75 85.0004C670.86 85.0004 665.115 79.2556 665.115 72.365C665.115 65.4743 670.854 59.7295 677.75 59.7295Z" fill="black"/>
<path d="M60.8848 64.3281H438.818V81.5575H60.8848V64.3281Z" fill="black"/>
<path d="M606.524 366.434C609.972 369.882 612.268 373.325 612.268 377.924H629.498C629.498 368.737 624.904 359.544 618.008 353.799C613.414 349.205 606.519 346.908 599.628 345.757V326.23H582.399V345.757C575.508 346.908 569.763 349.205 564.019 353.799C555.977 360.689 552.529 368.731 552.529 377.924C552.529 387.112 557.123 396.304 564.019 402.049C570.91 407.794 580.102 411.237 590.44 411.237C596.185 411.237 601.93 413.534 605.372 416.982C608.82 420.43 611.117 423.872 611.117 428.471C611.117 433.065 608.82 436.513 605.372 439.961C597.331 446.852 582.399 446.852 575.508 439.961C572.06 436.513 569.763 433.07 569.763 428.471L553.685 428.466C553.685 437.654 558.278 446.846 565.174 452.591C569.768 457.185 576.664 459.482 583.554 460.633V480.16H600.784V460.633C607.674 459.482 613.419 456.039 619.164 452.591C627.205 445.701 630.653 437.659 630.653 428.466C630.653 419.279 626.06 410.086 619.164 404.341C612.273 398.596 603.081 395.153 592.742 395.153C586.998 395.153 581.253 392.856 577.81 389.408C574.363 385.961 572.066 382.518 572.066 377.919C572.066 373.325 574.363 369.877 577.81 366.429C584.701 359.544 598.482 359.544 606.524 366.434Z" fill="black"/>
<path d="M591.591 289.475C529.561 289.475 477.867 340.016 477.867 403.199C477.867 466.376 528.409 516.923 591.591 516.923C654.769 516.923 705.315 466.381 705.315 403.199C705.315 340.021 654.774 289.475 591.591 289.475ZM591.591 499.688C538.753 499.688 495.097 456.037 495.097 403.193C495.097 350.355 538.747 306.699 591.591 306.699C644.43 306.699 688.086 350.349 688.086 403.193C688.086 456.037 644.435 499.688 591.591 499.688Z" fill="black"/>
<path d="M421.577 537.595C423.874 539.892 425.025 542.189 425.025 544.486H442.254C442.254 536.444 438.806 529.554 433.067 524.959C429.619 521.511 425.025 520.365 420.431 519.214V506.579H403.202V519.214C398.608 520.365 394.014 522.662 390.566 524.959C384.822 530.704 381.379 537.594 381.379 544.486C381.379 552.527 384.827 559.418 390.566 564.012C396.311 568.606 404.353 572.054 412.394 572.054C415.842 572.054 419.285 573.205 422.733 575.502C425.03 577.799 426.181 580.095 426.181 582.392C426.181 584.689 425.03 586.986 422.733 589.283C416.988 593.877 407.801 593.877 403.206 589.283C400.909 586.986 399.758 584.689 399.758 582.392H381.373C381.373 590.434 384.821 597.324 390.561 601.919C394.008 605.367 398.602 607.664 403.196 608.81V621.445H420.425V608.81C425.019 607.659 429.613 605.362 433.061 601.919C438.806 596.174 442.248 589.284 442.248 582.392C442.248 575.501 438.8 567.46 433.061 562.866C427.316 558.272 419.274 554.824 411.233 554.824C407.785 554.824 404.342 553.673 400.894 551.376C399.743 550.225 397.446 547.928 397.446 544.486C397.446 542.189 398.597 539.892 400.894 537.595C406.644 534.147 416.982 534.147 421.577 537.595Z" fill="black"/>
<path d="M412.391 476.715C364.145 476.715 325.088 515.772 325.088 564.017C325.088 612.263 364.145 651.32 412.391 651.32C460.636 651.32 499.693 612.263 499.693 564.017C499.693 515.772 460.636 476.715 412.391 476.715ZM412.391 634.088C373.333 634.088 342.317 603.072 342.317 564.015C342.317 524.958 373.333 493.941 412.391 493.941C451.448 493.941 482.464 524.958 482.464 564.015C482.464 603.072 450.297 634.088 412.391 634.088Z" fill="black"/>
</svg>
