<svg width="747" height="747" viewBox="0 0 747 747" fill="none" xmlns="http://www.w3.org/2000/svg">
<path d="M709.336 62.5016H412.163L467.679 22.8403C472.965 18.7466 474.069 11.2048 470.184 5.76164C466.293 0.324177 458.803 -1.07169 453.214 2.60538L373.334 59.652L293.454 2.60538C290.777 0.532444 287.376 -0.358223 284.027 0.131377C280.678 0.620977 277.678 2.45431 275.71 5.20951C273.741 7.95951 272.98 11.397 273.6 14.7199C274.22 18.048 276.168 20.9803 278.991 22.8396L334.507 62.501H37.3336C27.4325 62.501 17.9376 66.4332 10.9323 73.4332C3.93227 80.4332 0 89.9333 0 99.8346V597.608C0 607.509 3.93227 617.004 10.9323 624.009C17.9375 631.009 27.4323 634.942 37.3336 634.942H286.227V672.275H236.446C223.248 672.275 210.586 677.52 201.248 686.854C191.915 696.192 186.67 708.854 186.67 722.051C186.67 728.655 189.289 734.983 193.961 739.65C198.628 744.321 204.956 746.941 211.56 746.941H535.107C541.711 746.941 548.039 744.322 552.705 739.65C557.377 734.983 559.997 728.655 559.997 722.051C559.997 708.853 554.752 696.191 545.418 686.854C536.08 677.52 523.418 672.275 510.221 672.275H460.44V634.942H709.333C719.234 634.942 728.729 631.009 735.734 624.009C742.734 617.004 746.667 607.509 746.667 597.608V99.8346C746.667 89.9335 742.734 80.4332 735.734 73.4332C728.729 66.4332 719.234 62.501 709.333 62.501L709.336 62.5016ZM535.109 722.048H211.563C211.563 715.449 214.182 709.116 218.849 704.45C223.516 699.783 229.849 697.163 236.448 697.163H510.234C516.828 697.179 523.151 699.804 527.813 704.471C532.48 709.132 535.105 715.455 535.12 722.049L535.109 722.048ZM435.552 672.272H311.109V634.939H435.557L435.552 672.272ZM721.779 597.606C721.779 600.908 720.471 604.069 718.138 606.408C715.799 608.741 712.638 610.048 709.336 610.048H37.3357C30.4608 610.048 24.8931 604.481 24.8931 597.606V99.8325C24.8931 92.9575 30.4608 87.3846 37.3357 87.3846H709.336C712.638 87.3846 715.799 88.6971 718.138 91.0304C720.471 93.3638 721.779 96.5305 721.779 99.8326V597.606Z" fill="black"/>
<path d="M672.003 112.278H74.6697C68.0708 112.278 61.7374 114.898 57.071 119.57C52.4044 124.236 49.7793 130.564 49.7793 137.168V560.275C49.7793 566.874 52.4044 573.207 57.071 577.874C61.7377 582.54 68.071 585.165 74.6697 585.165H672.003C678.602 585.165 684.935 582.54 689.602 577.874C694.268 573.207 696.893 566.874 696.893 560.275V137.168C696.893 130.564 694.268 124.236 689.602 119.57C684.935 114.898 678.602 112.278 672.003 112.278ZM672.003 560.278H74.6697V137.171H672.003V560.278Z" fill="black"/>
<path d="M207.362 389.784C208.633 391.654 209.232 393.894 209.07 396.144L207.102 422.029C206.55 429.019 208.133 436.018 211.643 442.086C215.154 448.159 220.43 453.019 226.763 456.029L250.159 467.227C252.196 468.206 253.836 469.847 254.815 471.883L266.013 495.269V495.263C269.003 501.617 273.862 506.904 279.94 510.414C286.023 513.93 293.029 515.497 300.023 514.914L325.908 512.961C328.158 512.779 330.398 513.383 332.257 514.664L353.71 529.309C359.481 533.283 366.325 535.408 373.33 535.408C380.336 535.408 387.174 533.283 392.95 529.309L414.404 514.689C416.273 513.429 418.513 512.825 420.763 512.986L446.648 514.955V514.95C453.638 515.512 460.638 513.934 466.711 510.424C472.784 506.908 477.643 501.632 480.643 495.288L491.841 471.892H491.846C492.825 469.855 494.466 468.215 496.497 467.236L519.882 456.038C526.221 453.032 531.497 448.168 535.008 442.095C538.518 436.022 540.096 429.022 539.534 422.027L537.581 396.142H537.576C537.409 393.897 538.013 391.657 539.284 389.798L553.929 368.345V368.339C557.903 362.569 560.033 355.73 560.033 348.725C560.033 341.714 557.903 334.875 553.929 329.105L539.309 307.651C538.038 305.782 537.439 303.542 537.601 301.292L539.57 275.407C540.122 268.412 538.538 261.417 535.028 255.344C531.518 249.276 526.242 244.412 519.908 241.407L496.512 230.209C494.476 229.23 492.835 227.589 491.856 225.553L480.658 202.167V202.172C477.642 195.834 472.783 190.563 466.705 187.052C460.632 183.547 453.637 181.964 446.647 182.521L420.762 184.474C418.512 184.667 416.267 184.063 414.413 182.771L392.96 168.126V168.121C387.189 164.147 380.35 162.017 373.34 162.017C366.334 162.017 359.49 164.147 353.72 168.121L332.266 182.746C330.407 184.022 328.162 184.626 325.907 184.449L300.022 182.48V182.486C293.027 181.892 286.016 183.46 279.939 186.975C273.861 190.491 269.001 195.788 266.027 202.147L254.829 225.543H254.824C253.845 227.574 252.204 229.215 250.173 230.194L226.787 241.392V241.397C220.449 244.402 215.173 249.262 211.662 255.34C208.152 261.413 206.574 268.413 207.136 275.408L209.089 301.293H209.094C209.261 303.538 208.657 305.778 207.386 307.637L192.741 329.09C188.767 334.861 186.637 341.705 186.637 348.71C186.637 355.716 188.767 362.56 192.741 368.33L207.362 389.784ZM213.284 343.128L227.904 321.675H227.909C232.378 315.149 234.482 307.3 233.883 299.415L231.93 273.53C231.597 269.446 233.826 265.587 237.529 263.837L260.898 252.639V252.634C268.05 249.207 273.81 243.441 277.242 236.295L288.44 212.91V212.915C290.232 209.249 294.055 207.035 298.123 207.301L324.019 209.269V209.264C331.888 209.832 339.721 207.733 346.259 203.306L367.737 188.67C371.118 186.373 375.555 186.373 378.935 188.67L400.388 203.29V203.295C406.914 207.769 414.768 209.873 422.654 209.264L448.539 207.311C452.628 206.931 456.518 209.175 458.232 212.915L469.43 236.284C472.862 243.43 478.622 249.19 485.774 252.623L509.159 263.821H509.154C512.836 265.592 515.06 269.43 514.768 273.503L512.8 299.399C512.221 307.274 514.32 315.112 518.763 321.639L533.399 343.118C535.696 346.498 535.696 350.941 533.399 354.321L518.779 375.774H518.774C514.31 382.3 512.201 390.149 512.8 398.034L514.753 423.919C515.092 428.003 512.857 431.867 509.154 433.612L485.785 444.81V444.815C478.639 448.242 472.873 454.008 469.446 461.154L458.248 484.539H458.243C456.436 488.18 452.623 490.393 448.566 490.149L422.67 488.18L422.665 488.185C414.795 487.607 406.957 489.706 400.43 494.143L378.951 508.779C375.571 511.076 371.128 511.076 367.748 508.779L346.295 494.159V494.154C340.509 490.206 333.665 488.086 326.659 488.081C325.789 488.081 324.904 488.081 324.034 488.18L298.149 490.133V490.138C294.044 490.55 290.143 488.295 288.451 484.539L277.253 461.17V461.165C273.826 454.019 268.06 448.259 260.914 444.826L237.529 433.628C233.852 431.858 231.628 428.019 231.919 423.946L233.888 398.05H233.883C234.461 390.175 232.362 382.337 227.925 375.81L213.289 354.331C210.987 350.951 210.987 346.509 213.289 343.134L213.284 343.128Z" fill="black"/>
<path d="M373.335 398.504C376.637 398.504 379.799 397.192 382.137 394.858C384.471 392.525 385.778 389.358 385.778 386.056V261.614C385.778 254.739 380.21 249.171 373.335 249.171C366.46 249.171 360.893 254.739 360.893 261.614V386.056C360.893 389.358 362.2 392.525 364.533 394.858C366.872 397.192 370.033 398.504 373.335 398.504Z" fill="black"/>
<path d="M373.335 448.278C376.637 448.278 379.799 446.965 382.137 444.632C384.471 442.298 385.778 439.132 385.778 435.835V433.491C385.778 426.621 380.21 421.048 373.335 421.048C366.46 421.048 360.893 426.621 360.893 433.491V435.835C360.893 439.132 362.2 442.298 364.533 444.632C366.872 446.965 370.033 448.278 373.335 448.278Z" fill="black"/>
</svg>
