<svg width="706" height="695" viewBox="0 0 706 695" fill="none" xmlns="http://www.w3.org/2000/svg">
<path fill-rule="evenodd" clip-rule="evenodd" d="M111.466 14.9734C145.367 14.9734 172.919 42.52 172.919 76.4C172.919 110.285 145.372 137.837 111.466 137.837C77.5645 137.837 50.0125 110.291 50.0125 76.4C50.0125 42.5307 77.5538 14.9734 111.466 14.9734ZM111.466 152.24C153.294 152.24 187.268 118.219 187.268 76.4067C187.268 34.6094 153.295 0.589355 111.466 0.589355C69.6365 0.589355 35.6631 34.6107 35.6631 76.4067C35.6631 118.219 69.6365 152.24 111.466 152.24ZM690.799 679.693H545.759V585.428C545.759 570.423 554.494 556.559 567.754 549.797C597.899 571.376 638.702 571.428 668.795 549.797C682.128 556.547 690.79 570.417 690.79 585.428L690.799 679.693ZM670.43 534.8C668.06 533.883 665.352 534.279 663.393 535.873C637.331 556.852 599.248 556.794 573.18 535.873C571.222 534.279 568.513 533.873 566.144 534.8C545.368 542.889 531.352 563.227 531.352 585.436V686.9C531.352 690.874 534.602 694.103 538.591 694.103H697.978C701.967 694.103 705.218 690.874 705.218 686.9V585.427C705.218 563.229 691.28 542.88 670.436 534.801L670.43 534.8ZM425.15 679.693H280.123V585.428C280.123 570.423 288.852 556.559 302.191 549.797C332.238 571.396 373.123 571.396 403.17 549.797C416.503 556.547 425.164 570.417 425.164 585.428V679.693H425.15ZM404.853 534.8C402.42 533.883 399.712 534.279 397.743 535.873C371.65 556.873 334.098 556.842 307.598 535.873C305.567 534.279 302.863 533.873 300.488 534.8C279.712 542.889 265.77 563.227 265.77 585.436V686.9C265.77 690.874 268.952 694.103 272.942 694.103L432.395 694.098C436.322 694.098 439.567 690.869 439.567 686.895V585.426C439.572 563.228 425.623 542.879 404.853 534.8ZM352.67 432.988C373.383 432.988 390.227 449.843 390.227 470.561C390.227 491.264 373.372 508.119 352.67 508.119C331.956 508.119 315.112 491.264 315.112 470.561C315.112 449.837 331.956 432.988 352.67 432.988ZM352.67 522.504C381.3 522.504 404.648 499.207 404.648 470.567C404.648 441.921 381.299 418.613 352.67 418.613C324.04 418.613 300.691 441.925 300.691 470.567C300.691 499.208 324.04 522.504 352.67 522.504ZM87.0298 432.988C107.743 432.988 124.587 449.843 124.587 470.561C124.587 491.264 107.732 508.119 87.0298 508.119C66.3165 508.119 49.4725 491.264 49.4725 470.561C49.4673 449.837 66.3218 432.988 87.0298 432.988ZM87.0298 522.504C115.66 522.504 139.008 499.207 139.008 470.567C139.008 441.921 115.659 418.613 87.0298 418.613C58.3991 418.613 35.0511 441.925 35.0511 470.567C35.0564 499.207 58.4058 522.504 87.0298 522.504ZM618.31 432.988C639.023 432.988 655.867 449.843 655.867 470.561C655.867 491.264 639.012 508.119 618.31 508.119C597.534 508.119 580.679 491.264 580.679 470.561C580.684 449.837 597.528 432.988 618.31 432.988ZM618.31 522.504C646.94 522.504 670.222 499.207 670.222 470.567C670.222 441.921 646.94 418.613 618.31 418.613C589.616 418.613 566.331 441.925 566.331 470.567C566.331 499.208 589.612 522.504 618.31 522.504ZM159.576 679.691H14.5365V585.425C14.5365 570.42 23.2031 556.556 36.5311 549.795C66.5778 571.393 107.463 571.393 137.51 549.795C150.843 556.545 159.578 570.415 159.578 585.425V679.691H159.576ZM139.202 534.797C136.832 533.881 134.124 534.277 132.092 535.87C105.546 556.87 68.4885 556.87 41.9471 535.87C39.9159 534.277 37.2127 533.87 34.8378 534.797C14.0618 542.886 0.119141 563.224 0.119141 585.433V686.897C0.119141 690.871 3.36915 694.1 7.29102 694.1H166.744C170.734 694.1 173.916 690.871 173.916 686.897V585.424C173.927 563.227 159.99 542.877 139.203 534.799L139.202 534.797ZM639.215 314.664H601.246V124.544H639.215V314.664ZM646.465 110.144H594.08C590.09 110.144 586.84 113.363 586.84 117.337V321.843C586.84 325.817 590.09 329.036 594.08 329.036H646.465C650.455 329.036 653.637 325.817 653.637 321.843V117.337C653.637 113.363 650.455 110.139 646.465 110.139V110.144ZM539.528 314.664H501.497V182.008H539.528V314.664ZM546.7 167.624H494.314C490.387 167.624 487.143 170.843 487.143 174.811V321.865C487.143 325.839 490.392 329.057 494.314 329.057H546.7C550.689 329.057 553.939 325.839 553.939 321.865V174.811C553.95 170.843 550.7 167.624 546.7 167.624ZM439.84 314.664H401.809V239.467H439.84V314.664ZM447.012 225.076H394.626C390.637 225.076 387.454 228.295 387.454 232.269V321.853C387.454 325.827 390.637 329.045 394.626 329.045H447.012C451.001 329.045 454.183 325.827 454.183 321.853V232.269C454.183 228.305 451.001 225.076 447.012 225.076ZM690.798 320.144V68.904C690.798 51.4347 676.59 37.2427 659.126 37.2427L316.06 37.2375C298.596 37.2375 284.388 51.4401 284.388 68.8988V161.899H330.882C348.346 161.899 362.554 176.117 362.554 193.601C362.554 211.085 348.346 225.304 330.882 225.304H284.393V320.153C284.393 337.623 298.601 351.831 316.065 351.831H659.132C676.596 351.836 690.809 337.617 690.809 320.148L690.798 320.144ZM215.012 210.904C210.725 210.904 207.314 214.685 207.902 219.071C208.246 221.519 208.376 224.008 208.376 226.467V351.821H155.72C169.403 331.295 154.71 302.816 129.19 302.816H63.7468V259.305C63.7468 255.331 60.4968 252.113 56.5072 252.113C52.5854 252.118 49.3406 255.337 49.3406 259.31V310.013C49.3406 313.987 52.5906 317.206 56.5124 317.206H129.195C138.737 317.206 146.523 324.961 146.523 334.518C146.523 344.054 138.737 351.824 129.195 351.824L14.5498 351.83V226.475C14.5498 205.568 26.8675 186.308 45.6858 177.366C64.8418 191.434 87.5138 198.866 111.472 198.866C136.04 198.866 159.254 191.074 178.68 176.287H330.894C340.435 176.287 348.154 184.042 348.154 193.599C348.154 203.135 340.44 210.911 330.894 210.911L215.014 210.906L215.012 210.904ZM659.132 22.8374H316.065C290.617 22.8374 269.977 43.504 269.977 68.8894V161.889H176.248C174.622 161.889 172.998 162.436 171.784 163.447C137.205 191.477 86.2053 191.477 51.1799 163.447C49.2215 161.858 46.5133 161.441 44.1435 162.379C17.8155 172.613 0.154215 198.368 0.154215 226.467V359.014C0.154215 362.988 3.40421 366.217 7.32608 366.217H215.633C219.56 366.217 222.805 362.988 222.805 359.014L222.799 225.294H269.971V320.143C269.971 345.555 290.611 366.222 316.059 366.222H659.126C684.506 366.222 705.214 345.555 705.214 320.143L705.219 68.903C705.219 43.507 684.517 22.8403 659.137 22.8403L659.132 22.8374Z" fill="black"/>
</svg>
