<svg width="677" height="237" viewBox="0 0 677 237" fill="none" xmlns="http://www.w3.org/2000/svg">
<path d="M511.613 61.2498V61.3123C511.629 61.3019 511.65 61.2915 511.676 61.2915C511.691 61.2811 511.707 61.2707 511.717 61.2707C511.759 61.2707 511.796 61.2863 511.822 61.3123C511.837 61.3436 511.842 61.3748 511.842 61.4165C511.842 61.4582 511.837 61.4946 511.822 61.5207C511.796 61.5519 511.759 61.5623 511.717 61.5623H511.676C511.65 61.5519 511.629 61.5363 511.613 61.5207V61.5832C511.629 61.5988 511.65 61.604 511.676 61.604C511.691 61.6144 511.707 61.6248 511.717 61.6248C511.775 61.6248 511.822 61.604 511.863 61.5623C511.895 61.5207 511.905 61.4738 511.905 61.4165C511.905 61.3644 511.895 61.3228 511.863 61.2915C511.822 61.2498 511.775 61.229 511.717 61.229H511.676C511.65 61.229 511.629 61.2394 511.613 61.2498Z" fill="black"/>
<path d="M511.348 61.4219C511.389 61.4219 511.426 61.4323 511.452 61.4427C511.467 61.4583 511.473 61.474 511.473 61.4844C511.473 61.5156 511.467 61.5365 511.452 61.5469C511.441 61.5625 511.421 61.5677 511.389 61.5677C511.363 61.5677 511.342 61.5573 511.327 61.526C511.301 61.5 511.285 61.474 511.285 61.4427V61.4219H511.348ZM511.223 61.401V61.6094H511.285V61.5469C511.301 61.5781 511.322 61.599 511.348 61.6094C511.363 61.6198 511.384 61.6302 511.41 61.6302C511.452 61.6302 511.488 61.6146 511.514 61.5885C511.53 61.5625 511.535 61.5365 511.535 61.5052C511.535 61.4635 511.525 61.4375 511.493 61.4219C511.467 61.3958 511.426 61.3802 511.368 61.3802H511.285V61.3594C511.285 61.3333 511.301 61.3125 511.327 61.2969C511.342 61.2865 511.363 61.276 511.389 61.276C511.405 61.276 511.426 61.2865 511.452 61.2969C511.467 61.2969 511.488 61.3073 511.514 61.3177V61.2552C511.488 61.2448 511.467 61.2344 511.452 61.2344H511.389C511.337 61.2344 511.296 61.25 511.264 61.276C511.238 61.3073 511.223 61.349 511.223 61.401Z" fill="black"/>
<path d="M510.854 61.3075V61.0991H510.791V61.6199H510.854V61.5574C510.869 61.5887 510.89 61.6095 510.916 61.6199C510.932 61.6304 510.952 61.6408 510.979 61.6408C511.02 61.6408 511.057 61.6199 511.083 61.5783C511.114 61.5366 511.124 61.4897 511.124 61.4324C511.124 61.3804 511.114 61.3387 511.083 61.3074C511.057 61.2658 511.02 61.2449 510.979 61.2449C510.952 61.2449 510.932 61.2554 510.916 61.2658C510.89 61.2658 510.869 61.2814 510.854 61.3075ZM511.062 61.4325C511.062 61.4741 511.057 61.5106 511.041 61.5366C511.015 61.5679 510.989 61.5783 510.958 61.5783C510.932 61.5783 510.911 61.5679 510.895 61.5366C510.869 61.5106 510.854 61.4741 510.854 61.4325C510.854 61.3908 510.869 61.3595 510.895 61.3283C510.911 61.3022 510.932 61.2866 510.958 61.2866C510.989 61.2866 511.015 61.3022 511.041 61.3283C511.057 61.3595 511.062 61.3908 511.062 61.4325Z" fill="black"/>
<path d="M510.406 61.2708V61.3333C510.422 61.3229 510.443 61.3125 510.469 61.3125C510.484 61.3021 510.5 61.2917 510.51 61.2917C510.552 61.2917 510.589 61.3073 510.615 61.3333C510.63 61.3646 510.635 61.3958 510.635 61.4375C510.635 61.4792 510.63 61.5156 510.615 61.5417C510.589 61.5729 510.552 61.5833 510.51 61.5833H510.469C510.443 61.5729 510.422 61.5573 510.406 61.5417V61.6042C510.422 61.6198 510.443 61.625 510.469 61.625C510.484 61.6354 510.5 61.6458 510.51 61.6458C510.568 61.6458 510.615 61.625 510.656 61.5833C510.688 61.5417 510.698 61.4948 510.698 61.4375C510.698 61.3854 510.688 61.3437 510.656 61.3125C510.615 61.2708 510.568 61.25 510.51 61.25H510.469C510.443 61.25 510.422 61.2604 510.406 61.2708Z" fill="black"/>
<path d="M510.161 61.3019C510.192 61.3019 510.218 61.3175 510.244 61.3436C510.26 61.3748 510.265 61.4061 510.265 61.4478C510.265 61.4894 510.26 61.5259 510.244 61.5519C510.218 61.5832 510.192 61.5936 510.161 61.5936C510.135 61.5936 510.114 61.5832 510.098 61.5519C510.072 61.5259 510.057 61.4894 510.057 61.4478C510.057 61.4061 510.072 61.3748 510.098 61.3436C510.114 61.3175 510.135 61.3019 510.161 61.3019ZM510.161 61.2603C510.109 61.2603 510.067 61.2811 510.036 61.3228C510.01 61.354 509.994 61.3957 509.994 61.4478C509.994 61.505 510.01 61.5519 510.036 61.5936C510.067 61.6353 510.109 61.6561 510.161 61.6561C510.218 61.6561 510.26 61.6353 510.286 61.5936C510.317 61.5519 510.327 61.5051 510.327 61.4478C510.327 61.3957 510.317 61.354 510.286 61.3228C510.26 61.2811 510.218 61.2603 510.161 61.2603Z" fill="black"/>
<path d="M509.734 61.4531C509.776 61.4531 509.813 61.4635 509.839 61.474C509.854 61.4896 509.859 61.5052 509.859 61.5156C509.859 61.5469 509.854 61.5677 509.839 61.5781C509.828 61.5938 509.807 61.599 509.776 61.599C509.75 61.599 509.729 61.5885 509.714 61.5573C509.688 61.5313 509.672 61.5052 509.672 61.474V61.4531H509.734ZM509.609 61.4323V61.6406H509.672V61.5781C509.688 61.6094 509.708 61.6302 509.734 61.6406C509.75 61.651 509.771 61.6615 509.797 61.6615C509.839 61.6615 509.875 61.6458 509.901 61.6198C509.917 61.5938 509.922 61.5677 509.922 61.5365C509.922 61.4948 509.911 61.4688 509.88 61.4531C509.854 61.4271 509.813 61.4115 509.755 61.4115H509.672V61.3906C509.672 61.3646 509.688 61.3438 509.714 61.3281C509.729 61.3177 509.75 61.3073 509.776 61.3073C509.792 61.3073 509.813 61.3177 509.839 61.3281C509.854 61.3281 509.875 61.3385 509.901 61.349V61.2865C509.875 61.276 509.854 61.2656 509.839 61.2656H509.776C509.724 61.2656 509.682 61.2813 509.651 61.3073C509.625 61.3385 509.609 61.3802 509.609 61.4323Z" fill="black"/>
<path d="M509.219 61.2967V61.3592C509.234 61.3488 509.255 61.3384 509.281 61.3384C509.297 61.328 509.312 61.3176 509.323 61.3176C509.365 61.3176 509.401 61.3332 509.427 61.3592C509.443 61.3905 509.448 61.4217 509.448 61.4634C509.448 61.5051 509.443 61.5415 509.427 61.5676C509.401 61.5988 509.365 61.6092 509.323 61.6092H509.281C509.255 61.5988 509.234 61.5832 509.219 61.5676V61.6301C509.234 61.6457 509.255 61.6509 509.281 61.6509C509.297 61.6613 509.312 61.6717 509.323 61.6717C509.38 61.6717 509.427 61.6509 509.469 61.6092C509.5 61.5676 509.51 61.5207 509.51 61.4634C509.51 61.4113 509.5 61.3696 509.469 61.3384C509.427 61.2967 509.38 61.2759 509.323 61.2759H509.281C509.255 61.2759 509.234 61.2863 509.219 61.2967Z" fill="black"/>
<path d="M508.807 61.4269V61.6561H508.869V61.4269C508.869 61.4009 508.88 61.38 508.89 61.3644C508.906 61.3384 508.926 61.3227 508.952 61.3227C508.984 61.3227 509.01 61.3384 509.036 61.3644C509.051 61.38 509.057 61.4061 509.057 61.4477V61.6561H509.119V61.1353H509.057V61.3436C509.046 61.3175 509.031 61.3019 509.015 61.3019C508.989 61.2915 508.963 61.2811 508.932 61.2811C508.89 61.2811 508.864 61.2967 508.848 61.3228C508.822 61.354 508.807 61.3852 508.807 61.4269Z" fill="black"/>
<path d="M508.691 61.2918H508.629V61.6668H508.691V61.2918ZM508.691 61.146H508.629V61.2293H508.691V61.146Z" fill="black"/>
<path d="M508.191 61.4373V61.6665H508.254V61.4373C508.254 61.4113 508.264 61.3905 508.275 61.3748C508.29 61.3488 508.311 61.3332 508.337 61.3332C508.368 61.3332 508.395 61.3488 508.421 61.3748C508.436 61.3905 508.441 61.4165 508.441 61.4582V61.6665H508.504V61.2915H508.441V61.354C508.431 61.328 508.415 61.3123 508.4 61.3123C508.374 61.3019 508.348 61.2915 508.316 61.2915C508.275 61.2915 508.249 61.3071 508.233 61.3332C508.207 61.3644 508.191 61.3957 508.191 61.4373Z" fill="black"/>
<path d="M507.828 61.4897C507.828 61.4481 507.844 61.4168 507.87 61.3856C507.885 61.3595 507.906 61.3439 507.932 61.3439C507.964 61.3439 507.99 61.3595 508.016 61.3856C508.031 61.4168 508.036 61.4481 508.036 61.4897C508.036 61.5314 508.031 61.5679 508.016 61.5939C507.99 61.6095 507.964 61.6147 507.932 61.6147C507.906 61.6147 507.885 61.6095 507.87 61.5939C507.844 61.5679 507.828 61.5314 507.828 61.4897ZM507.766 61.6356C507.766 61.7033 507.781 61.7502 507.807 61.7814C507.839 61.8075 507.88 61.8231 507.932 61.8231C507.964 61.8231 507.99 61.8127 508.016 61.8023H508.057V61.7398C508.047 61.7502 508.031 61.7606 508.016 61.7606C507.99 61.771 507.969 61.7814 507.953 61.7814C507.911 61.7814 507.885 61.7658 507.87 61.7398C507.844 61.7241 507.828 61.6877 507.828 61.6356V61.6148C507.844 61.6304 507.865 61.646 507.891 61.6564C507.906 61.672 507.927 61.6773 507.953 61.6773C507.995 61.6773 508.031 61.6668 508.057 61.6356C508.089 61.5939 508.099 61.547 508.099 61.4897C508.099 61.4377 508.089 61.396 508.057 61.3647C508.031 61.3231 507.995 61.3022 507.953 61.3022C507.927 61.3022 507.906 61.3127 507.891 61.3231C507.865 61.3231 507.844 61.3387 507.828 61.3647V61.3022H507.766V61.6356Z" fill="black"/>
<path d="M507.629 61.5991H507.566V61.6825H507.629V61.5991Z" fill="black"/>
<path d="M507.166 61.3333V61.3958C507.182 61.3854 507.202 61.375 507.229 61.375C507.244 61.3646 507.26 61.3542 507.27 61.3542C507.312 61.3542 507.348 61.3698 507.374 61.3958C507.39 61.4271 507.395 61.4583 507.395 61.5C507.395 61.5417 507.39 61.5781 507.374 61.6042C507.348 61.6354 507.312 61.6458 507.27 61.6458H507.229C507.202 61.6354 507.182 61.6198 507.166 61.6042V61.6667C507.182 61.6823 507.202 61.6875 507.229 61.6875C507.244 61.6979 507.26 61.7083 507.27 61.7083C507.327 61.7083 507.374 61.6875 507.416 61.6458C507.447 61.6042 507.458 61.5573 507.458 61.5C507.458 61.4479 507.447 61.4062 507.416 61.375C507.374 61.3333 507.327 61.3125 507.27 61.3125H507.229C507.202 61.3125 507.182 61.3229 507.166 61.3333Z" fill="black"/>
<path d="M506.921 61.3595C506.952 61.3595 506.978 61.3752 507.004 61.4012C507.02 61.4325 507.025 61.4637 507.025 61.5054C507.025 61.547 507.02 61.5835 507.004 61.6095C506.978 61.6408 506.952 61.6512 506.921 61.6512C506.895 61.6512 506.874 61.6408 506.858 61.6095C506.832 61.5835 506.816 61.547 506.816 61.5054C506.816 61.4637 506.832 61.4325 506.858 61.4012C506.874 61.3752 506.895 61.3595 506.921 61.3595ZM506.921 61.3179C506.868 61.3179 506.827 61.3387 506.796 61.3804C506.77 61.4116 506.754 61.4533 506.754 61.5054C506.754 61.5627 506.77 61.6095 506.796 61.6512C506.827 61.6929 506.868 61.7137 506.921 61.7137C506.978 61.7137 507.02 61.6929 507.046 61.6512C507.077 61.6095 507.087 61.5627 507.087 61.5054C507.087 61.4533 507.077 61.4116 507.046 61.3804C507.02 61.3387 506.978 61.3179 506.921 61.3179Z" fill="black"/>
<path d="M506.641 61.6196H506.578V61.703H506.641V61.6196Z" fill="black"/>
<path d="M506.441 61.5627V61.3335H506.379V61.5627C506.379 61.5939 506.374 61.62 506.358 61.646C506.348 61.6616 506.327 61.6668 506.296 61.6668C506.27 61.6668 506.249 61.6616 506.233 61.646C506.207 61.62 506.191 61.5835 506.191 61.5418V61.3335H506.129V61.7085H506.191V61.646C506.207 61.6773 506.228 61.6981 506.254 61.7085C506.27 61.7189 506.29 61.7293 506.316 61.7293C506.358 61.7293 506.395 61.7137 506.421 61.6877C506.436 61.646 506.441 61.6043 506.441 61.5627Z" fill="black"/>
<path d="M506.021 61.1929H505.958V61.5054L505.771 61.3387H505.708L505.896 61.5054L505.688 61.7137H505.771L505.958 61.5262V61.7137H506.021L506.021 61.1929Z" fill="black"/>
<path d="M131.186 128.027C103.983 128.027 81.8633 150.158 81.8633 177.35C81.8633 204.542 103.994 226.672 131.186 226.672C158.378 226.672 180.509 204.542 180.509 177.35C180.509 150.158 158.389 128.027 131.186 128.027ZM145.931 168.839L159.265 145.751C166.046 151.782 170.765 159.954 172.593 168.839H145.931ZM131.186 160.328L117.853 137.235C126.462 134.381 135.905 134.381 144.525 137.235L131.186 160.328ZM89.7846 168.839C91.6128 159.953 96.3316 151.776 103.113 145.751L116.446 168.839H89.7846ZM116.441 185.87L103.112 208.958C96.3261 202.926 91.6073 194.755 89.7844 185.87H116.441ZM131.186 194.385L144.519 217.478C135.905 220.338 126.457 220.322 117.847 217.478L131.186 194.385ZM145.941 185.87H172.597C170.768 194.755 166.05 202.922 159.263 208.958L145.941 185.87ZM176.159 184.552C175.763 183.401 174.836 182.463 173.56 182.198C173.441 182.177 172.993 182.13 172.873 182.13H145.581C143.638 182.13 142.055 183.713 142.055 185.656C142.055 186.271 142.227 186.875 142.524 187.396C142.529 187.401 142.524 187.411 142.524 187.416L142.529 187.422L156.165 211.036C156.337 211.333 156.581 211.568 156.858 211.729C157.514 212.354 158.316 212.797 159.212 212.797C159.509 212.797 159.795 212.63 160.092 212.557C156.326 215.656 152.045 218.114 147.42 219.89C148.227 218.979 148.587 217.708 148.18 216.516C148.144 216.396 147.962 215.984 147.904 215.875C147.899 215.87 147.884 215.87 147.884 215.854C147.878 215.849 147.884 215.833 147.878 215.823L134.228 192.192C134.228 192.192 134.222 192.192 134.222 192.187C133.754 191.38 133.004 190.796 132.092 190.551C131.165 190.312 130.228 190.426 129.42 190.9C128.884 191.208 128.436 191.656 128.123 192.192L128.118 192.197V192.203L114.482 215.817C113.706 217.161 113.951 218.776 114.899 219.869C110.347 218.125 106.133 215.697 102.415 212.666C102.654 212.718 102.894 212.802 103.138 212.802C103.206 212.802 103.279 212.802 103.357 212.796C104.3 212.744 105.165 212.328 105.831 211.573C105.899 211.489 106.154 211.13 106.206 211.041L119.846 187.411C120.315 186.598 120.445 185.65 120.195 184.739C119.95 183.827 119.367 183.067 118.555 182.603C118.122 182.348 117.622 182.265 117.112 182.265C116.992 182.244 116.909 182.129 116.784 182.129L89.5077 182.14C87.9713 182.14 86.6952 183.14 86.2056 184.515C85.8306 182.176 85.5858 179.796 85.5858 177.353C85.5858 174.895 85.841 172.499 86.2108 170.15C86.3098 170.442 86.3879 170.739 86.5598 171.009C87.0806 171.786 87.8827 172.322 88.7941 172.509C88.9191 172.53 89.3671 172.577 89.4973 172.577H116.779C118.726 172.577 120.31 170.994 120.31 169.046C120.31 168.431 120.154 167.827 119.846 167.291C119.846 167.291 119.841 167.291 119.841 167.286L106.201 143.66C106.201 143.66 106.196 143.66 106.196 143.655C105.727 142.843 104.972 142.259 104.066 142.014C103.529 141.874 102.977 141.9 102.43 142.014C106.154 138.983 110.373 136.556 114.935 134.811C114.732 135.04 114.508 135.259 114.373 135.54C113.956 136.384 113.894 137.348 114.185 138.207C114.222 138.343 114.409 138.754 114.482 138.874L128.122 162.504C128.294 162.801 128.539 163.036 128.815 163.197C129.482 163.833 130.279 164.27 131.174 164.27C131.773 164.27 132.383 164.114 132.935 163.791C133.455 163.494 133.898 163.046 134.211 162.52V162.515C134.211 162.515 134.216 162.515 134.216 162.51L147.867 138.879V138.874C148.627 137.546 148.398 135.942 147.424 134.822C151.976 136.566 156.195 138.994 159.924 142.025C158.721 141.77 157.429 142.092 156.57 143.072C156.481 143.171 156.21 143.54 156.143 143.66L142.503 167.285C142.034 168.098 141.904 169.056 142.154 169.968C142.398 170.879 142.982 171.64 143.794 172.103C144.326 172.416 144.935 172.572 145.555 172.572H172.847C174.383 172.572 175.654 171.572 176.138 170.197C176.513 172.536 176.758 174.916 176.758 177.359C176.779 179.806 176.529 182.203 176.159 184.552Z" fill="black"/>
<path d="M131.186 118.213C98.5717 118.213 72.041 144.749 72.041 177.359C72.041 209.968 98.5717 236.504 131.186 236.504C163.801 236.504 190.332 209.968 190.332 177.359C190.332 144.749 163.801 118.213 131.186 118.213ZM131.186 232.765C100.634 232.765 75.7743 207.911 75.7743 177.353C75.7743 146.801 100.629 121.941 131.186 121.941C161.738 121.941 186.598 146.796 186.598 177.353C186.598 207.911 161.738 232.765 131.186 232.765Z" fill="black"/>
<path d="M577.718 127.987C550.505 127.987 528.369 150.127 528.369 177.336C528.369 204.546 550.509 226.686 577.718 226.686C604.928 226.686 627.068 204.546 627.068 177.336C627.063 150.123 604.928 127.987 577.718 127.987ZM562.969 185.847L549.641 208.94C542.86 202.914 538.141 194.738 536.313 185.847H562.969ZM577.718 194.362L591.047 217.45C582.437 220.305 573.016 220.31 564.391 217.45L577.718 194.362ZM592.464 185.847H619.125C617.297 194.732 612.578 202.909 605.797 208.94L592.464 185.847ZM622.682 184.529C622.287 183.373 621.36 182.43 620.083 182.175C619.964 182.154 619.516 182.102 619.391 182.102H592.109C590.162 182.102 588.578 183.685 588.578 185.633C588.578 186.248 588.75 186.842 589.047 187.373C589.052 187.378 589.047 187.389 589.047 187.394L589.052 187.399L602.688 211.014C603.344 212.149 604.548 212.784 605.756 212.784C606.032 212.784 606.292 212.633 606.568 212.566C602.818 215.644 598.558 218.092 593.949 219.852C594.152 219.623 594.365 219.404 594.511 219.123C594.938 218.279 594.99 217.316 594.678 216.399C594.647 216.31 594.485 215.935 594.433 215.852C594.433 215.847 594.417 215.847 594.417 215.836C594.412 215.821 594.417 215.816 594.412 215.8L580.772 192.169C579.793 190.497 577.653 189.919 575.934 190.878C575.413 191.185 574.991 191.633 574.689 192.148C574.684 192.154 574.668 192.154 574.658 192.169L561.018 215.8C560.247 217.128 560.481 218.732 561.45 219.847C556.898 218.102 552.684 215.68 548.966 212.649C549.205 212.701 549.445 212.774 549.69 212.774C550.669 212.774 551.632 212.373 552.309 211.592C552.393 211.503 552.653 211.149 552.71 211.055V211.04C552.716 211.034 552.731 211.024 552.742 211.019L566.382 187.388C567.35 185.701 566.772 183.544 565.095 182.57C564.663 182.315 564.152 182.232 563.653 182.227C563.528 182.195 563.444 182.086 563.309 182.086H536.027C534.496 182.086 533.22 183.081 532.736 184.445C532.371 182.117 532.121 179.742 532.121 177.305C532.121 174.846 532.366 172.461 532.746 170.107C532.845 170.398 532.923 170.695 533.095 170.956C533.611 171.732 534.408 172.268 535.475 172.477C535.559 172.492 535.939 172.523 536.022 172.523H563.304C565.251 172.523 566.835 170.94 566.835 168.992C566.835 168.372 566.668 167.773 566.371 167.247V167.232L552.731 143.601C551.945 142.242 550.408 141.669 548.955 141.966C552.679 138.929 556.898 136.507 561.46 134.763C560.663 135.679 560.304 136.966 560.731 138.221C560.768 138.336 560.924 138.664 561.007 138.81V138.83L574.647 162.456C575.303 163.591 576.501 164.216 577.715 164.216C578.304 164.216 578.908 164.065 579.455 163.753C579.767 163.581 579.96 163.268 580.199 163.008C580.408 162.857 580.616 162.695 580.762 162.456L594.402 138.83C595.173 137.502 594.938 135.888 593.959 134.768C598.511 136.513 602.73 138.934 606.449 141.966C605.246 141.71 603.954 142.039 603.105 143.018C603.017 143.117 602.808 143.408 602.709 143.58C602.704 143.596 602.688 143.596 602.678 143.601L589.038 167.232C588.574 168.044 588.439 168.992 588.689 169.904C588.929 170.815 589.512 171.576 590.34 172.044C590.876 172.357 591.481 172.513 592.095 172.513H619.377C620.913 172.513 622.189 171.513 622.668 170.138C623.043 172.477 623.288 174.857 623.288 177.3C623.309 179.789 623.064 182.185 622.684 184.529L622.682 184.529ZM592.464 168.821L605.792 145.728C612.573 151.759 617.292 159.936 619.12 168.821H592.464ZM577.718 160.3L564.39 137.212C573.015 134.358 582.442 134.358 591.052 137.212L577.718 160.3ZM536.306 168.821C538.135 159.93 542.853 151.753 549.635 145.728L562.963 168.821H536.306Z" fill="black"/>
<path d="M577.719 118.173C545.099 118.173 518.553 144.715 518.553 177.345C518.553 209.965 545.094 236.512 577.719 236.512C610.35 236.512 636.891 209.971 636.891 177.345C636.886 144.709 610.35 118.173 577.719 118.173ZM577.719 232.772C547.151 232.772 522.287 207.908 522.287 177.34C522.287 146.772 547.151 121.903 577.719 121.903C608.287 121.903 633.157 146.772 633.157 177.34C633.157 207.908 608.277 232.772 577.719 232.772Z" fill="black"/>
<path d="M131.185 171.4C127.899 171.4 125.227 174.072 125.227 177.358C125.227 180.645 127.898 183.317 131.185 183.317C134.471 183.317 137.143 180.645 137.143 177.358C137.143 174.072 134.471 171.4 131.185 171.4ZM131.185 179.582C129.961 179.582 128.961 178.582 128.961 177.358C128.961 176.134 129.961 175.134 131.185 175.134C132.409 175.134 133.409 176.134 133.409 177.358C133.409 178.582 132.409 179.582 131.185 179.582Z" fill="black"/>
<path d="M131.185 167.4C125.695 167.4 121.227 171.874 121.227 177.358C121.227 182.848 125.701 187.317 131.185 187.317C136.675 187.317 141.138 182.843 141.138 177.358C141.138 171.874 136.68 167.4 131.185 167.4ZM131.185 183.588C127.753 183.588 124.956 180.796 124.956 177.359C124.956 173.926 127.747 171.13 131.185 171.13C134.612 171.13 137.404 173.921 137.404 177.359C137.404 180.796 134.623 183.588 131.185 183.588Z" fill="black"/>
<path d="M676.359 144.067C676.359 144.061 676.364 144.061 676.364 144.051C676.364 144.015 676.359 143.968 676.359 143.931V143.916V143.91C676.432 133.749 674.495 123.785 671.015 114.358C670.995 114.077 671.036 113.786 670.875 113.52C670.823 113.447 670.724 113.447 670.666 113.369C668.807 108.53 666.672 103.791 663.916 99.3222C663.896 99.2857 663.844 99.2857 663.818 99.2545C663.797 99.218 663.812 99.1711 663.786 99.1399C658.807 92.9211 652.833 87.6659 646.062 83.4519C644.963 80.4779 645.562 77.155 647.646 74.7592C654.547 70.8008 662.334 68.9051 670.354 69.353H670.458H670.583C671.822 69.2697 672.958 68.7124 673.781 67.7801C674.593 66.8478 675.005 65.6446 674.916 64.4051C674.833 63.1603 674.275 62.0302 673.333 61.2072C672.489 60.4625 671.374 60.1239 670.13 60.1239C670.078 60.1187 670.046 60.0666 669.994 60.0666H669.973L614.056 60.6187H614.051C609.905 60.6656 606.16 63.3062 604.733 67.1916L603.353 70.9468C598.322 69.4676 593.467 67.3947 589.009 64.6291C588.993 64.6135 588.972 64.6291 588.952 64.6239C588.936 64.6187 588.936 64.5874 588.915 64.577C547.451 42.1557 503.399 24.4317 457.956 11.8944C457.941 11.8944 457.936 11.8996 457.92 11.8996C457.904 11.8996 457.904 11.8839 457.889 11.8787C421.17 3.14953 383.415 -0.725411 345.701 0.337122C345.68 0.337122 345.664 0.357956 345.643 0.368372C345.623 0.37358 345.607 0.347539 345.576 0.347539C327.81 2.05061 310.122 5.38914 293.002 10.2798C292.945 10.2954 292.929 10.3631 292.867 10.384C292.81 10.4048 292.752 10.3684 292.695 10.3892C259.638 26.4199 226.81 43.8532 194.883 62.1919C194.784 62.2283 194.727 62.2804 194.638 62.3325C192.107 63.7909 189.545 65.2074 187.024 66.671C135.712 68.2336 85.2584 77.9366 37.0504 95.531C36.9775 95.5623 36.9515 95.6456 36.8838 95.6821C36.8161 95.7185 36.7327 95.6821 36.665 95.7289C36.1858 96.0414 35.7536 96.4216 35.2744 96.7498C35.2275 96.7706 35.1754 96.7446 35.1389 96.7654C35.04 96.8175 35.0244 96.932 34.9462 96.9946C25.1598 103.75 16.6436 112.511 10.3209 122.579C10.2688 122.662 10.3157 122.75 10.274 122.834C10.2376 122.917 10.1386 122.948 10.1074 123.026C9.4511 125.193 8.88339 127.386 8.34695 129.584C8.34174 129.605 8.3105 129.615 8.30008 129.641C8.29487 129.662 8.3157 129.688 8.30529 129.714C4.00315 147.298 3.41982 165.735 6.58649 183.558C3.38862 184.459 0.92502 187.1 0.805287 190.563C0.774036 191.475 1.03446 192.36 1.32611 193.235C1.32611 193.282 1.34694 193.318 1.34694 193.36C1.41465 193.553 1.3834 193.777 1.46674 193.975C1.53965 194.141 1.6907 194.23 1.79486 194.365C1.84694 194.433 1.83132 194.522 1.89382 194.584C8.52929 200.787 16.7578 204.964 25.6805 206.652C25.7117 206.657 25.7378 206.652 25.7794 206.657C33.2325 208.501 40.8528 209.443 48.5088 209.443C49.6911 209.443 50.8733 209.423 52.0557 209.376L61.9412 209.271C64.6235 209.24 67.139 208.183 69.0193 206.261C70.8996 204.344 71.9152 201.813 71.8942 199.131L71.7172 180.762C71.7172 180.741 71.712 180.725 71.712 180.704C71.712 180.699 71.7172 180.689 71.7172 180.683C71.613 178.871 71.5974 177.048 71.6651 175.23C72.2328 159.334 78.9672 144.6 90.6078 133.761C102.248 122.928 117.362 117.25 133.326 117.844C166.149 119.026 191.894 146.688 190.717 179.505C190.717 179.521 190.733 179.526 190.733 179.536C190.733 179.557 190.717 179.573 190.717 179.594L190.821 190.255V190.26C190.879 195.765 195.373 200.198 200.863 200.198C200.878 200.198 200.884 200.182 200.899 200.182C200.915 200.182 200.92 200.198 200.936 200.198H200.951L214.473 200.062H214.478H214.483L508.323 197.156C513.854 197.088 518.323 192.541 518.271 187.015L518.182 177.937C518.026 162.041 524.057 147.031 535.193 135.683C546.318 124.323 561.209 117.985 577.11 117.828C593.069 117.521 608.017 123.713 619.365 134.839C630.724 145.969 637.053 160.855 637.22 176.756L637.376 192.688C637.381 193.709 638.22 194.532 639.241 194.532H639.261L649.407 194.427C649.626 194.433 649.824 194.433 650.043 194.433C657.09 194.433 663.611 190.985 667.573 185.104C667.589 185.084 667.573 185.052 667.589 185.032C667.61 184.995 667.662 184.974 667.688 184.933C674.297 172.36 677.287 158.23 676.365 144.069L676.359 144.067ZM660.786 101.384C663.192 105.296 665.124 109.431 666.812 113.66C662.989 115.848 658.921 117.483 654.583 118.332C648.885 119.118 643.057 119.311 637.244 118.983C632.958 113.78 627.994 109.275 622.484 105.556C625.963 103.202 629.453 100.869 632.968 98.5771V98.5719C637.114 95.8896 640.562 92.4416 643.593 88.6031C643.744 88.4989 643.942 88.5302 644.062 88.3739C644.182 88.2229 644.145 88.0302 644.203 87.8531C644.38 87.6135 644.599 87.4051 644.77 87.1604C650.854 91.0458 656.28 95.7694 660.786 101.384ZM608.212 68.4774C609.114 66.0295 611.473 64.3732 614.072 64.3471H614.077L669.994 63.795C670.01 63.795 670.026 63.7794 670.041 63.7742C670.046 63.7742 670.057 63.7898 670.072 63.7898C670.125 63.7898 670.213 63.7846 670.229 63.7846C670.661 63.7846 671.145 64.2273 671.177 64.644C671.208 65.0763 670.744 65.5919 670.317 65.6232C670.317 65.6232 670.312 65.6232 670.312 65.6284C661.645 65.1804 653.005 67.269 645.463 71.6753C645.374 71.7274 645.364 71.842 645.291 71.8993C645.218 71.9565 645.103 71.9461 645.036 72.0191C641.999 75.3212 641.098 79.9565 642.432 84.1753C642.317 84.3316 642.176 84.4566 642.067 84.618C634.046 78.7587 624.739 74.7691 614.927 73.2066C614.906 73.2066 614.88 73.2274 614.859 73.2222C614.838 73.2222 614.823 73.1909 614.802 73.1909C612.161 72.967 609.547 72.5034 606.963 71.9201L608.212 68.4774ZM456.933 15.4934C502.099 27.9464 545.897 45.5721 587.099 67.8574H587.115C592.229 71.0137 597.839 73.321 603.645 74.8834C603.713 74.9198 603.734 75.0084 603.812 75.0344C604.02 75.1073 604.244 75.149 604.453 75.149C604.484 75.149 604.505 75.1282 604.536 75.1282C607.755 75.9407 611.015 76.597 614.322 76.8886C614.328 76.8886 614.328 76.8938 614.328 76.8938C623.489 78.3522 632.182 82.0604 639.688 87.5031C637.12 90.5135 634.292 93.2739 630.922 95.4458H630.917C626.943 98.0343 623 100.68 619.068 103.336C609.729 97.8052 599.104 94.4146 587.885 93.7271C587.885 93.7271 587.88 93.7271 587.88 93.7219C587.844 93.7167 587.807 93.7167 587.766 93.7167H587.734C567.865 90.9823 547.614 95.4094 530.698 106.165H530.693C530.688 106.165 530.688 106.17 530.677 106.18H530.672C508.907 119.54 494.318 142.498 491.256 167.806L427.126 168.441L454.678 99.6863C454.683 99.6707 454.672 99.6498 454.678 99.6342C454.683 99.6134 454.709 99.6029 454.714 99.5821C458.454 88.3738 455.521 76.2848 447.428 68.0874L524.573 66.4885C524.594 66.4885 524.609 66.4677 524.625 66.4677C525.036 66.4468 525.401 66.2645 525.714 65.9885C525.802 65.9156 525.865 65.8531 525.938 65.7645C526.005 65.6812 526.104 65.6395 526.156 65.5458C526.245 65.3895 526.177 65.2177 526.214 65.051C526.26 64.8843 526.401 64.7697 526.391 64.5875C526.391 64.4989 526.307 64.452 526.292 64.3635C526.255 64.1239 526.151 63.9625 526.021 63.7489C525.901 63.5562 525.802 63.3687 525.62 63.2333C525.536 63.1656 525.531 63.0562 525.432 63.0041C491.678 43.8734 455.307 30.1655 417.328 22.2801C393.547 17.0665 369.203 15.4624 345 17.4884C324.954 17.0352 305.063 22.0196 287.5 31.7284C266.386 42.8221 246.194 55.9524 227.459 70.755C227.422 70.7863 227.428 70.8384 227.402 70.8696C227.37 70.9009 227.318 70.8852 227.287 70.9165C227.282 70.9217 227.282 70.9321 227.271 70.9373L227.266 70.9425C221.381 76.9685 216.829 83.9737 213.626 91.7399L135.861 92.5107C135.778 92.5107 135.726 92.594 135.653 92.5992C134.158 92.5263 132.689 92.3753 131.179 92.3753H130.33C123.147 92.4482 116.21 93.5107 109.559 95.266C109.486 95.2712 109.424 95.2087 109.356 95.2191C92.8198 98.4221 76.3918 102.886 60.5012 108.479C53.3501 107.12 46.6518 104.386 40.5998 100.328C40.5634 100.297 40.5113 100.328 40.4644 100.297C40.4176 100.276 40.4176 100.214 40.3759 100.193C39.7353 99.8909 39.1571 99.4378 38.6571 98.917C86.5318 81.485 136.636 71.8809 187.577 70.3809C187.608 70.3809 187.629 70.3445 187.66 70.3445C187.936 70.3237 188.213 70.2768 188.457 70.1257C190.864 68.7195 193.317 67.3706 195.728 65.9799C197.593 66.7038 199.478 67.3914 201.374 67.9226C203.463 68.5111 205.608 68.8132 207.749 68.8132C210.051 68.8132 212.348 68.4746 214.582 67.7976C214.64 67.7767 214.666 67.709 214.723 67.683C214.822 67.6465 214.931 67.6517 215.02 67.5944C222.103 63.2038 229.102 58.5007 235.822 53.6104H235.828C253.688 40.9386 272.854 29.9491 292.792 20.9598C295.276 20.6368 297.266 18.616 297.307 16.0327C297.323 15.0223 296.969 14.0743 296.443 13.2306C312.563 8.78269 329.156 5.67322 345.817 4.07428C383.187 3.00658 420.572 6.86069 456.932 15.4962L456.933 15.4934ZM410.558 180.32L229.731 182.112C229.726 182.112 229.716 182.117 229.71 182.117C229.705 182.117 229.695 182.112 229.69 182.112C224.695 182.112 220.304 178.221 220.153 173.117C220.153 173.065 220.096 173.044 220.096 172.992C220.091 172.94 220.143 172.893 220.127 172.836C215.393 146.852 214.242 120.352 216.695 94.0544C219.643 86.5856 223.96 79.8824 229.502 74.0811L285.445 72.5341L284.263 78.3727C284.226 78.5445 284.346 78.68 284.351 78.8414C284.367 79.0966 284.372 79.2945 284.486 79.5185C284.591 79.7424 284.747 79.8779 284.934 80.0393C285.054 80.1539 285.091 80.3206 285.247 80.4039C287.559 81.5758 290.101 82.1591 292.638 82.1591C294.976 82.1591 297.309 81.6226 299.471 80.6279H299.486C299.492 80.6279 299.492 80.6227 299.492 80.6227C299.606 80.5706 299.731 80.555 299.841 80.4977C300.018 80.4091 300.065 80.2165 300.2 80.0863C300.377 79.9196 300.549 79.7946 300.648 79.581C300.752 79.3571 300.737 79.1383 300.747 78.8935C300.752 78.706 300.872 78.5498 300.82 78.3623L299.492 73.1956C301.002 73.0081 302.434 72.6279 303.83 72.0289H303.861L441.862 68.2216C451.106 75.2841 454.861 87.3043 451.164 98.3776L423.304 167.908C423.298 167.929 423.309 167.96 423.304 167.981C423.298 168.002 423.267 168.012 423.257 168.033C421.366 174.049 416.615 178.617 410.558 180.32ZM297.214 69.732C297.115 69.732 297.058 69.8154 296.969 69.831C296.881 69.8362 296.797 69.7737 296.709 69.7945C296.537 69.8414 296.464 70.0029 296.318 70.0862C296.11 70.206 295.927 70.305 295.782 70.4873C295.625 70.68 295.563 70.8831 295.49 71.1279C295.443 71.2841 295.302 71.3883 295.297 71.555C295.297 71.6539 295.381 71.7112 295.396 71.7998C295.401 71.8883 295.339 71.9716 295.36 72.0602L296.792 77.6383C294.006 78.607 291 78.581 288.235 77.5498L289.495 71.2945C289.542 71.0654 289.406 70.8779 289.37 70.6591C289.334 70.4144 289.365 70.1644 289.235 69.956C289.11 69.7477 288.875 69.6644 288.672 69.5237C288.495 69.3883 288.38 69.18 288.151 69.1227C286.787 68.7477 285.443 68.3154 284.104 67.8362C282.057 66.7216 280.594 64.7165 280.177 62.43C279.948 59.6696 281.328 56.9925 283.719 55.5914C283.735 55.5862 283.735 55.5706 283.74 55.5602C283.755 55.555 283.776 55.555 283.792 55.5446C287.875 52.8727 292.61 51.2582 297.48 50.8623C299.688 50.779 301.824 51.0706 303.917 51.6383C304.584 55.0706 304.99 58.581 305.068 62.0914C305.105 64.1174 304.652 66.107 303.844 67.9507C301.813 69.133 299.5 69.7998 297.214 69.732ZM345.099 24.4974H345.136C345.167 24.4974 345.188 24.4661 345.219 24.4661C345.25 24.4661 345.271 24.4974 345.302 24.487C368.948 22.4922 392.698 24.0391 415.876 29.1328H415.896C426.178 31.2683 436.454 33.914 446.5 36.9192L440.995 61.2219L308.517 64.8782C308.652 63.9198 308.824 62.9719 308.798 62.0084C308.709 57.873 308.23 53.7376 307.381 49.7167C307.366 49.6334 307.267 49.5969 307.241 49.5136C307.152 49.2584 306.996 49.1021 306.813 48.9094C306.657 48.7427 306.543 48.5969 306.334 48.498C306.251 48.4511 306.22 48.3573 306.131 48.3261C305.652 48.1698 305.162 48.1177 304.683 47.9875L311.694 29.1022C322.444 25.873 333.672 24.2845 345.1 24.4981L345.099 24.4974ZM448.474 61.0707L453.448 39.0814C470.942 44.7065 488.057 51.722 504.511 59.904L448.474 61.0707ZM290.847 37.904C290.852 37.904 290.852 37.8988 290.852 37.8884C290.858 37.8832 290.868 37.8884 290.884 37.8832C294.858 35.6905 298.946 33.7687 303.128 32.102L297.545 47.1487C297.457 47.1487 297.373 47.1331 297.285 47.1435C297.269 47.1435 297.269 47.1591 297.253 47.1591C297.238 47.1591 297.238 47.1539 297.222 47.1539C291.759 47.5862 286.441 49.4039 281.848 52.3831H281.842C281.837 52.3831 281.837 52.3883 281.827 52.3987C281.806 52.4143 281.79 52.4195 281.769 52.4352C281.764 52.4404 281.764 52.456 281.749 52.4664C278.155 54.6227 276.082 58.6956 276.467 62.8831C276.467 62.9143 276.499 62.93 276.504 62.956C276.504 62.9768 276.483 63.0029 276.488 63.0237C276.655 63.982 276.967 64.8882 277.363 65.7633L244.65 66.6644C259.347 56.0081 274.827 46.3147 290.847 37.904ZM35.6738 101.065C36.4759 102.003 37.4134 102.81 38.5071 103.394C38.5228 103.409 38.5228 103.43 38.5436 103.446C43.8769 107.029 49.6895 109.607 55.8463 111.232C48.164 116.154 42.0183 123.133 38.2676 131.513L25.4239 131.649C21.0384 130.894 16.6947 129.878 12.4239 128.753C12.8041 127.289 13.1687 125.826 13.6062 124.378C19.3354 115.289 26.9498 107.356 35.6738 101.065ZM11.5071 132.357C15.9186 133.514 20.4082 134.576 24.9338 135.342C25.038 135.363 25.1421 135.373 25.2463 135.373H25.2619L39.4019 135.222C39.4176 135.222 39.4228 135.206 39.4488 135.206C39.8759 135.191 40.2457 135.003 40.5686 134.727C40.6728 134.639 40.7353 134.54 40.8134 134.43C40.9124 134.305 41.0426 134.222 41.1103 134.071C45.0477 124.597 52.2353 116.816 61.3649 112.144C70.3597 108.962 79.5476 106.191 88.8183 103.775C63.1303 118.624 45.9009 146.468 46.2143 178.196C46.2455 181.264 46.558 184.357 46.9226 187.441C37.7819 188.014 28.5479 188.284 19.4173 188.196C15.9694 188.159 12.7402 186.649 10.4433 184.097C7.2454 167.004 7.62554 149.3 11.5058 132.357L11.5071 132.357ZM26.4858 202.997C26.4702 202.992 26.4546 203.013 26.4337 203.003C26.4129 202.997 26.4025 202.971 26.3816 202.966C18.3087 201.445 10.8816 197.685 4.82431 192.148C4.65243 191.669 4.51702 191.19 4.54306 190.69C4.61077 188.695 6.22533 187.232 8.09 186.971C11.064 190.049 15.0848 191.883 19.3921 191.93C20.7515 191.945 22.1109 191.95 23.4755 191.95C31.4339 191.95 39.4448 191.674 47.3768 191.159L49.7935 205.643C41.9653 205.757 34.1258 204.893 26.4858 202.997ZM194.552 190.2L194.448 179.529C195.641 144.69 168.308 115.346 133.459 114.091C98.5897 112.857 69.1883 140.201 67.9323 175.081C67.8646 176.987 67.8854 178.883 67.9896 180.784V180.789L68.1667 199.149C68.1823 200.842 67.5469 202.425 66.3594 203.644C65.1771 204.847 63.5989 205.519 61.9115 205.534L53.573 205.618L50.7866 188.946C50.2709 185.368 49.9949 181.732 49.9584 178.154C49.5157 133.367 85.5984 96.5659 130.38 96.1233H131.192C175.608 96.1233 211.968 132.041 212.406 176.555L212.598 196.342L200.921 196.462C197.359 196.493 194.584 193.68 194.552 190.2ZM621.992 132.159C609.92 120.326 593.925 113.747 577.071 114.076C560.175 114.243 544.353 120.983 532.525 133.04C520.696 145.108 514.284 161.046 514.446 177.952V177.958L514.534 187.031C514.571 190.51 511.764 193.38 508.279 193.406L216.332 196.296L216.14 176.51C215.76 138.536 190.39 106.567 155.837 96.0562L212.868 95.4885C210.607 121.53 211.769 147.77 216.451 173.499C216.451 173.504 216.456 173.504 216.456 173.515C216.816 180.416 222.519 185.848 229.42 185.848C229.545 185.848 229.665 185.843 229.795 185.843L410.902 184.051C410.907 184.051 410.907 184.046 410.907 184.046C411.058 184.046 411.214 184.025 411.36 183.989C417.631 182.28 422.605 177.916 425.412 172.197L492.849 171.53C492.922 171.53 492.969 171.457 493.042 171.447C493.443 171.395 493.818 171.27 494.104 170.994C494.224 170.879 494.24 170.713 494.323 170.562C494.464 170.332 494.662 170.134 494.688 169.843C497.172 145.015 511.354 122.4 532.625 109.348C532.63 109.348 532.625 109.343 532.63 109.343C532.636 109.343 532.636 109.343 532.646 109.338C548.87 99.02 568.277 94.791 587.349 97.4366C587.38 97.4418 587.395 97.4158 587.422 97.4158C587.453 97.4158 587.468 97.447 587.489 97.4522C598.562 98.1085 609.063 101.499 618.187 107.124C618.233 107.145 618.259 107.181 618.306 107.207C627.364 112.822 635.056 120.623 640.588 130.166C640.603 130.187 640.624 130.197 640.64 130.218C640.645 130.234 640.64 130.249 640.645 130.265C648.702 142.421 653.031 156.557 653.187 171.145L653.374 190.374C652.103 190.619 650.806 190.77 649.478 190.703C649.463 190.703 649.457 190.718 649.442 190.718C649.426 190.718 649.421 190.703 649.405 190.703L641.088 190.786L640.947 176.718C640.796 159.806 634.061 143.989 621.994 132.161L621.992 132.159ZM657.123 189.138L656.946 171.086C656.79 155.826 652.248 141.023 643.837 128.299V128.283C643.832 128.268 643.816 128.252 643.805 128.237C643.8 128.221 643.79 128.205 643.774 128.19C643.774 128.19 643.769 128.19 643.769 128.185C642.68 126.31 641.441 124.565 640.201 122.825C640.962 122.846 641.717 122.898 642.477 122.898C646.717 122.898 650.962 122.606 655.128 122.039C655.134 122.039 655.144 122.023 655.149 122.023C655.18 122.018 655.201 122.023 655.222 122.018C659.769 121.138 664.035 119.429 668.055 117.2C671.029 125.794 672.707 134.815 672.618 144.018C672.618 144.049 672.649 144.064 672.649 144.09C672.649 144.111 672.628 144.127 672.628 144.158C673.529 157.658 670.686 171.111 664.415 183.09C662.571 185.798 660.014 187.83 657.123 189.138Z" fill="black"/>
<path d="M422.52 98.3332C422.603 98.3384 422.676 98.3488 422.759 98.3488H422.78L432.9 98.2446C432.952 98.2446 433.004 98.2446 433.066 98.2394C435.259 98.0155 437.092 96.6717 438.046 94.7654L441.254 94.8904H441.327C441.707 94.8904 442.098 94.7706 442.426 94.531L443.775 93.5467C444.046 93.5988 444.306 93.7498 444.572 93.7498C446.176 93.7498 447.743 92.8904 448.572 91.3749C448.811 90.9322 448.879 90.4165 448.962 89.9165C448.978 89.8696 449.03 89.8488 449.046 89.7967C449.066 89.6977 449.051 89.6092 449.066 89.5154C449.072 89.4633 449.103 89.4165 449.103 89.3592C449.103 89.3383 449.082 89.3279 449.082 89.3071C449.363 87.4478 448.426 85.5675 446.671 84.7967C446.551 84.7446 446.441 84.8175 446.322 84.7915C446.202 84.7602 446.129 84.6508 445.999 84.6404L443.264 84.5363L441.905 84.0206C441.769 83.9685 441.65 84.0519 441.514 84.0258C441.389 84.005 441.29 83.8904 441.155 83.8904L438.129 84.0258C437.217 81.9113 435.249 80.3696 432.874 80.1717C432.842 80.1717 432.822 80.203 432.785 80.203C432.754 80.203 432.728 80.1665 432.697 80.1665L422.577 80.2707C422.525 80.2707 422.504 80.3228 422.452 80.3228C422.4 80.328 422.369 80.2863 422.316 80.2915C419.733 80.6821 417.697 82.5519 416.889 84.953L413.41 85.104C413.395 85.104 413.389 85.1196 413.374 85.1196C413.15 85.1353 412.978 85.3071 412.77 85.4009C412.54 85.5155 412.27 85.5519 412.103 85.7394C412.098 85.7447 412.072 85.7447 412.066 85.7551C410.254 87.8853 410.238 90.9843 412.035 93.1248C412.04 93.1404 412.066 93.13 412.082 93.1456C412.41 93.5206 412.869 93.7706 413.395 93.7967L417.03 93.9373C417.947 96.2654 419.973 98.005 422.52 98.3332ZM422.968 94.6144C422.593 94.5623 422.327 94.3071 422.009 94.1352L431.843 94.5258L422.968 94.6144ZM444.222 89.9373C444.118 89.8852 444.014 89.9373 443.91 89.906C443.67 89.8227 443.467 89.8175 443.217 89.8331C442.972 89.8488 442.774 89.8852 442.55 89.9894C442.446 90.0415 442.332 89.9946 442.238 90.0623L440.769 91.1352L414.717 90.1144C414.55 89.6665 414.561 89.2394 414.733 88.7915L440.978 87.6508L442.264 88.1456C442.441 88.2133 442.624 88.2342 442.801 88.2498C442.822 88.2498 442.832 88.2706 442.853 88.2706L445.264 88.3592C445.389 88.479 445.525 88.63 445.473 88.8071C445.468 88.8435 445.494 88.8644 445.488 88.906C445.4 89.13 445.332 89.3696 445.322 89.6092C445.082 90.0102 444.597 90.1456 444.222 89.9373ZM422.862 84.0154L432.607 83.9165C432.888 83.9373 433.091 84.1404 433.347 84.255L421.446 84.7707C421.867 84.4269 422.31 84.104 422.862 84.0154Z" fill="black"/>
<path d="M577.72 167.374C572.23 167.374 567.762 171.848 567.762 177.332C567.762 182.822 572.236 187.285 577.72 187.285C583.21 187.285 587.678 182.821 587.678 177.332C587.678 171.848 583.204 167.374 577.72 167.374ZM577.72 183.551C574.288 183.551 571.491 180.759 571.491 177.332C571.491 173.9 574.283 171.103 577.72 171.103C581.152 171.103 583.949 173.895 583.949 177.332C583.944 180.759 581.152 183.551 577.72 183.551Z" fill="black"/>
<path d="M577.72 171.374C574.444 171.374 571.762 174.045 571.762 177.332C571.762 180.618 574.434 183.29 577.72 183.29C581.007 183.29 583.678 180.618 583.678 177.332C583.678 174.051 580.996 171.374 577.72 171.374ZM577.72 179.561C576.496 179.561 575.496 178.561 575.496 177.337C575.496 176.113 576.496 175.113 577.72 175.113C578.944 175.113 579.944 176.113 579.944 177.337C579.944 178.556 578.944 179.561 577.72 179.561Z" fill="black"/>
</svg>
