<svg width="569" height="669" viewBox="0 0 569 669" fill="none" xmlns="http://www.w3.org/2000/svg">
<path d="M546.293 390.186L535.501 380.124C535.501 379.978 535.356 379.832 535.21 379.686L491.751 262.436C484.022 241.873 464.335 228.165 442.314 228.165H134.607C112.586 228.165 92.8991 241.873 85.1698 262.436L42.1484 378.518L25.8151 392.081C9.6271 405.644 0.293771 425.622 0.148438 446.769V615.942C0.148438 644.964 24.3564 668.588 53.3778 668.588H85.1698C114.044 668.588 137.232 645.109 137.232 616.38V616.088V594.359H431.819V615.796C431.527 644.671 454.715 668.151 483.59 668.441H483.881H515.673C544.695 668.441 568.903 644.816 568.903 615.796V442.249C568.903 422.561 560.736 403.749 546.299 390.187L546.293 390.186ZM112.587 272.208C116.087 263.02 124.836 257.186 134.608 257.186H442.168C451.939 257.041 460.689 263.02 464.189 272.208L500.356 369.478H478.044C471.044 330.104 436.189 299.041 394.189 299.041C352.189 299.041 317.335 330.104 310.335 369.478H76.4145L112.587 272.208ZM448.44 369.478H340.523C348.543 339.729 379.315 322.082 409.064 330.104C428.315 335.354 443.336 350.374 448.44 369.478ZM108.213 615.785C108.505 628.473 98.4424 638.973 85.7545 639.264H85.317H53.525C40.5458 639.264 29.4623 628.764 29.4623 615.785V588.66C37.0457 592.306 45.2117 594.056 53.525 594.056H108.213L108.213 615.785ZM539.88 615.931C539.88 628.91 528.796 639.41 515.817 639.41H484.025C471.338 639.41 461.129 629.055 461.129 616.368V615.931V594.201H515.817C524.13 594.201 532.442 592.451 539.88 588.806V615.931ZM539.88 541.556C539.88 554.535 528.796 564.89 515.817 564.89H53.5238C40.5446 564.89 29.4612 554.535 29.4612 541.556V446.764C29.607 434.077 35.1486 422.119 44.7732 413.952L62.7105 398.64H513.191L526.316 411.036C534.92 419.203 539.878 430.432 539.878 442.244L539.88 541.556Z" fill="black"/>
<path d="M162.16 442.4H71.7442C63.7234 442.4 57.1602 448.962 57.1602 456.984V519.692C57.1602 527.713 63.7227 534.276 71.7442 534.276H162.16C170.181 534.276 176.744 527.713 176.744 519.692V456.984C176.744 448.963 170.182 442.4 162.16 442.4ZM147.576 505.108H86.3255V471.567H147.576V505.108Z" fill="black"/>
<path d="M497.586 442.4H407.17C399.149 442.4 392.586 448.962 392.586 456.984V519.692C392.586 527.713 399.148 534.276 407.17 534.276H497.586C505.607 534.276 512.17 527.713 512.17 519.692V456.984C512.17 448.963 505.607 442.4 497.586 442.4ZM483.002 505.108H421.751V471.567H483.002V505.108Z" fill="black"/>
<path d="M342.706 491.973H226.477C218.456 491.973 211.893 498.536 211.893 506.557C211.893 514.579 218.455 521.141 226.477 521.141H342.706C350.727 521.141 357.29 514.579 357.29 506.557C357.29 498.536 350.873 491.973 342.706 491.973Z" fill="black"/>
<path d="M342.706 455.52H226.477C218.456 455.52 211.893 462.083 211.893 470.104C211.893 478.125 218.455 484.688 226.477 484.688H342.706C350.727 484.688 357.29 478.125 357.29 470.104C357.29 462.083 350.873 455.52 342.706 455.52Z" fill="black"/>
<path d="M126.293 199.733C166.834 199.733 199.793 178.441 214.668 143.441H359.334C374.646 169.692 404.397 192.004 442.168 192.004C442.459 192.004 442.751 192.15 443.043 192.15C464.772 192.15 484.751 186.025 500.501 174.505C517.419 162.109 529.376 143.734 534.917 121.422C536.813 113.547 532.146 105.672 524.271 103.776C522.813 103.339 521.209 103.193 519.605 103.339L472.063 106.985C468.563 98.9641 468.563 89.9222 472.063 82.0475L519.897 85.985C527.918 86.7142 534.918 80.735 535.646 72.7142C535.792 70.9642 535.646 69.2142 535.063 67.4642C529.521 47.4855 517.271 30.1309 500.355 18.1722C483.584 6.50553 463.751 0.234863 443.333 0.234863C402.792 0.234863 369.833 20.9429 354.959 55.9429H209.559C191.913 26.7762 159.1 7.52686 125.413 7.52686C103.539 7.52686 83.7054 13.7977 67.9547 25.4642C51.0374 38.0058 39.3707 56.6722 34.1214 79.4229C32.3714 87.2978 37.1839 95.1722 45.0588 96.9229C46.5172 97.2145 47.9755 97.3604 49.4338 97.2145L96.9751 93.5687C100.475 101.589 100.475 110.631 96.9751 118.506L49.1418 114.569C41.121 113.839 34.1204 119.819 33.3924 127.839C33.2466 129.589 33.3924 131.339 33.9758 133.089C45.9342 173.777 82.1011 199.735 126.288 199.735L126.293 199.733ZM103.689 148.4C108.647 148.837 113.46 146.65 116.522 142.713L116.814 142.275C133.147 120.691 133.002 90.7964 116.376 69.3577C113.314 65.4202 108.647 63.3785 103.689 63.8161L70.1476 66.4412C81.0851 47.4825 100.336 36.9825 125.564 36.9825C150.938 36.9825 176.46 53.3158 187.834 77.0865C190.314 82.0449 195.418 85.2532 200.959 85.1073H365.173C371.589 85.2531 377.277 81.1698 379.173 75.0448C387.631 46.8994 412.277 29.5448 443.194 29.5448C465.798 29.6906 484.902 39.024 496.861 54.7741L465.653 52.149C460.694 51.7115 455.882 53.899 452.819 57.8365L452.528 58.274C436.194 79.858 436.34 109.607 452.819 131.045C455.882 134.982 460.549 137.17 465.507 136.732L498.466 134.107C487.236 152.628 467.84 162.836 442.903 162.982C413.591 163.273 390.258 142.274 381.215 122.878C378.882 117.774 373.632 114.419 367.944 114.274H204.317C197.901 114.274 192.213 118.649 190.317 124.774C181.859 152.919 157.213 170.566 126.151 170.566C103.401 170.566 84.296 161.524 72.3387 145.774L103.689 148.4Z" fill="black"/>
</svg>
