<?xml version="1.0" encoding="UTF-8"?>
<svg width="700pt" height="700pt" version="1.1" viewBox="0 0 700 700" xmlns="http://www.w3.org/2000/svg" xmlns:xlink="http://www.w3.org/1999/xlink">
 <defs>
  <symbol id="w" overflow="visible">
   <path d="m1.875-0.10938c-0.09375 0.054688-0.19531 0.089844-0.29688 0.10938-0.10547 0.03125-0.21484 0.046875-0.32812 0.046875-0.34375 0-0.61719-0.09375-0.8125-0.28125-0.19922-0.19531-0.29688-0.45703-0.29688-0.78125 0-0.32031 0.097656-0.57812 0.29688-0.76562 0.19531-0.19531 0.46875-0.29688 0.8125-0.29688 0.11328 0 0.22266 0.015625 0.32812 0.046875 0.10156 0.023438 0.20312 0.058594 0.29688 0.10938v0.42188c-0.09375-0.070312-0.19531-0.11719-0.29688-0.14062-0.09375-0.03125-0.19531-0.046875-0.29688-0.046875-0.1875 0-0.33594 0.0625-0.4375 0.1875-0.10547 0.11719-0.15625 0.27734-0.15625 0.48438 0 0.21094 0.050781 0.375 0.15625 0.5 0.10156 0.11719 0.25 0.17188 0.4375 0.17188 0.10156 0 0.20312-0.015625 0.29688-0.046875 0.10156-0.03125 0.20312-0.078125 0.29688-0.14062z"/>
  </symbol>
  <symbol id="c" overflow="visible">
   <path d="m1.375-1.1094c-0.042969-0.019531-0.085938-0.035156-0.125-0.046875-0.042969-0.007812-0.089844-0.015625-0.14062-0.015625-0.125 0-0.22656 0.042969-0.29688 0.125-0.0625 0.074219-0.09375 0.1875-0.09375 0.34375v0.70312h-0.48438v-1.5312h0.48438v0.25c0.0625-0.09375 0.13281-0.16016 0.21875-0.20312 0.082031-0.050781 0.17969-0.078125 0.29688-0.078125h0.046875 0.09375z"/>
  </symbol>
  <symbol id="a" overflow="visible">
   <path d="m1.7656-0.76562v0.14062h-1.1406c0.007812 0.11719 0.046875 0.20312 0.10938 0.26562 0.070313 0.054687 0.17578 0.078125 0.3125 0.078125 0.09375 0 0.19141-0.015625 0.29688-0.046875 0.11328-0.03125 0.22656-0.078125 0.34375-0.14062v0.375c-0.11719 0.042969-0.23047 0.074219-0.34375 0.09375-0.11719 0.03125-0.23047 0.046875-0.34375 0.046875-0.28125 0-0.5-0.066406-0.65625-0.20312-0.14844-0.14453-0.21875-0.34766-0.21875-0.60938 0-0.25 0.070312-0.44141 0.21875-0.57812 0.15625-0.14453 0.36328-0.21875 0.625-0.21875 0.23828 0 0.42969 0.074219 0.57812 0.21875 0.14453 0.14844 0.21875 0.33984 0.21875 0.57812zm-0.5-0.17188c0-0.09375-0.03125-0.16406-0.09375-0.21875-0.054687-0.050781-0.12109-0.078125-0.20312-0.078125-0.09375 0-0.17188 0.027344-0.23438 0.078125-0.0625 0.054688-0.10156 0.125-0.10938 0.21875z"/>
  </symbol>
  <symbol id="e" overflow="visible">
   <path d="m0.92188-0.6875c-0.10547 0-0.18359 0.023438-0.23438 0.0625-0.054688 0.03125-0.078125 0.078125-0.078125 0.14062s0.019531 0.11719 0.0625 0.15625c0.039063 0.03125 0.097656 0.046875 0.17188 0.046875 0.09375 0 0.17188-0.03125 0.23438-0.09375 0.0625-0.070312 0.09375-0.15625 0.09375-0.25v-0.0625zm0.75-0.1875v0.875h-0.5v-0.23438c-0.0625 0.09375-0.13672 0.16797-0.21875 0.21875-0.085937 0.039062-0.18359 0.0625-0.29688 0.0625-0.15625 0-0.28906-0.046875-0.39062-0.14062-0.09375-0.09375-0.14062-0.21094-0.14062-0.35938 0-0.1875 0.054688-0.32031 0.17188-0.40625 0.125-0.082031 0.32031-0.125 0.59375-0.125h0.28125v-0.03125c0-0.082031-0.03125-0.14062-0.09375-0.17188s-0.15625-0.046875-0.28125-0.046875c-0.10547 0-0.20312 0.011719-0.29688 0.03125-0.085938 0.023437-0.16797 0.054687-0.25 0.09375v-0.375c0.10156-0.03125 0.20703-0.050781 0.3125-0.0625 0.11328-0.007813 0.22266-0.015625 0.32812-0.015625 0.26953 0 0.46875 0.058594 0.59375 0.17188 0.125 0.10547 0.1875 0.27734 0.1875 0.51562z"/>
  </symbol>
  <symbol id="d" overflow="visible">
   <path d="m0.76562-1.9688v0.4375h0.5v0.34375h-0.5v0.65625c0 0.074219 0.015625 0.125 0.046875 0.15625 0.03125 0.023438 0.085938 0.03125 0.17188 0.03125h0.25v0.34375h-0.42188c-0.19922 0-0.33984-0.035156-0.42188-0.10938-0.074219-0.082031-0.10938-0.22266-0.10938-0.42188v-0.65625h-0.25v-0.34375h0.25v-0.4375z"/>
  </symbol>
  <symbol id="l" overflow="visible">
   <path d="m1.2812-1.3125v-0.8125h0.48438v2.125h-0.48438v-0.21875c-0.074219 0.085938-0.15234 0.15234-0.23438 0.20312-0.074219 0.039062-0.16797 0.0625-0.28125 0.0625-0.1875 0-0.34375-0.070312-0.46875-0.21875-0.11719-0.15625-0.17188-0.35156-0.17188-0.59375 0-0.22656 0.054688-0.41406 0.17188-0.5625 0.125-0.15625 0.28125-0.23438 0.46875-0.23438 0.11328 0 0.20703 0.023438 0.28125 0.0625 0.082031 0.042969 0.16016 0.10547 0.23438 0.1875zm-0.32812 1c0.10156 0 0.17969-0.035156 0.23438-0.10938 0.0625-0.082031 0.09375-0.19531 0.09375-0.34375 0-0.14453-0.03125-0.25391-0.09375-0.32812-0.054688-0.082031-0.13281-0.125-0.23438-0.125-0.10547 0-0.1875 0.042969-0.25 0.125-0.054687 0.074219-0.078125 0.18359-0.078125 0.32812 0 0.14844 0.023438 0.26172 0.078125 0.34375 0.0625 0.074219 0.14453 0.10938 0.25 0.10938z"/>
  </symbol>
  <symbol id="k" overflow="visible">
   <path d="m1.0469-0.3125c0.10156 0 0.17969-0.035156 0.23438-0.10938 0.0625-0.082031 0.09375-0.19531 0.09375-0.34375 0-0.14453-0.03125-0.25391-0.09375-0.32812-0.054688-0.082031-0.13281-0.125-0.23438-0.125-0.10547 0-0.1875 0.042969-0.25 0.125-0.054687 0.074219-0.078125 0.18359-0.078125 0.32812 0 0.14844 0.023438 0.26172 0.078125 0.34375 0.0625 0.074219 0.14453 0.10938 0.25 0.10938zm-0.32812-1c0.070312-0.082031 0.14844-0.14453 0.23438-0.1875 0.082031-0.039062 0.17578-0.0625 0.28125-0.0625 0.1875 0 0.33594 0.078125 0.45312 0.23438 0.125 0.14844 0.1875 0.33594 0.1875 0.5625 0 0.24219-0.0625 0.4375-0.1875 0.59375-0.11719 0.14844-0.26562 0.21875-0.45312 0.21875-0.10547 0-0.19922-0.023438-0.28125-0.0625-0.085937-0.050781-0.16406-0.11719-0.23438-0.20312v0.21875h-0.48438v-2.125h0.48438z"/>
  </symbol>
  <symbol id="j" overflow="visible">
   <path d="m0.03125-1.5312h0.48438l0.42188 1.0469 0.34375-1.0469h0.48438l-0.64062 1.6719c-0.0625 0.17578-0.13672 0.29688-0.21875 0.35938-0.085938 0.070312-0.19922 0.10938-0.34375 0.10938h-0.28125v-0.32812h0.15625c0.082031 0 0.14062-0.015625 0.17188-0.046875 0.039063-0.023437 0.070313-0.070313 0.09375-0.14062l0.015625-0.03125z"/>
  </symbol>
  <symbol id="i" overflow="visible">
   <path d="m0.23438-2.125h0.48438v2.125h-0.48438z"/>
  </symbol>
  <symbol id="b" overflow="visible">
   <path d="m0.96875-1.2188c-0.11719 0-0.20312 0.042969-0.26562 0.125-0.054687 0.074219-0.078125 0.18359-0.078125 0.32812 0 0.14844 0.023438 0.26172 0.078125 0.34375 0.0625 0.074219 0.14844 0.10938 0.26562 0.10938 0.10156 0 0.17969-0.035156 0.23438-0.10938 0.0625-0.082031 0.09375-0.19531 0.09375-0.34375 0-0.14453-0.03125-0.25391-0.09375-0.32812-0.054687-0.082031-0.13281-0.125-0.23438-0.125zm0-0.34375c0.25781 0 0.46094 0.074219 0.60938 0.21875 0.14453 0.13672 0.21875 0.32812 0.21875 0.57812s-0.074219 0.44922-0.21875 0.59375c-0.14844 0.14844-0.35156 0.21875-0.60938 0.21875-0.27344 0-0.48047-0.070312-0.625-0.21875-0.14844-0.14453-0.21875-0.34375-0.21875-0.59375s0.070312-0.44141 0.21875-0.57812c0.14453-0.14453 0.35156-0.21875 0.625-0.21875z"/>
  </symbol>
  <symbol id="v" overflow="visible">
   <path d="m0.15625-1h0.85938v0.39062h-0.85938z"/>
  </symbol>
  <symbol id="u" overflow="visible">
   <path d="m1.2812-0.26562c-0.074219 0.09375-0.15234 0.16406-0.23438 0.20312-0.074219 0.042969-0.16797 0.0625-0.28125 0.0625-0.1875 0-0.34375-0.070312-0.46875-0.21875-0.11719-0.14453-0.17188-0.33203-0.17188-0.5625 0-0.22656 0.054688-0.41406 0.17188-0.5625 0.125-0.14453 0.28125-0.21875 0.46875-0.21875 0.11328 0 0.20703 0.023438 0.28125 0.0625 0.082031 0.042969 0.16016 0.10938 0.23438 0.20312v-0.23438h0.48438v1.375c0 0.25-0.078125 0.4375-0.23438 0.5625-0.15625 0.13281-0.38281 0.20312-0.67188 0.20312-0.09375 0-0.1875-0.011719-0.28125-0.03125-0.085937-0.011719-0.17188-0.03125-0.26562-0.0625v-0.375c0.082031 0.039063 0.16406 0.070313 0.25 0.09375 0.082031 0.03125 0.16406 0.046875 0.25 0.046875 0.15625 0 0.26953-0.039062 0.34375-0.10938 0.082031-0.074219 0.125-0.17969 0.125-0.32812zm-0.32812-0.95312c-0.10547 0-0.1875 0.042969-0.25 0.125-0.054687 0.074219-0.078125 0.17969-0.078125 0.3125 0 0.13672 0.023438 0.24219 0.078125 0.3125 0.0625 0.074219 0.14453 0.10938 0.25 0.10938 0.10156 0 0.17969-0.035156 0.23438-0.10938 0.0625-0.070312 0.09375-0.17578 0.09375-0.3125 0-0.13281-0.03125-0.23828-0.09375-0.3125-0.054688-0.082031-0.13281-0.125-0.23438-0.125z"/>
  </symbol>
  <symbol id="t" overflow="visible">
   <path d="m0.71875-0.21875v0.79688h-0.48438v-2.1094h0.48438v0.21875c0.070312-0.082031 0.14844-0.14453 0.23438-0.1875 0.082031-0.039062 0.17578-0.0625 0.28125-0.0625 0.1875 0 0.33594 0.078125 0.45312 0.23438 0.125 0.14844 0.1875 0.33594 0.1875 0.5625 0 0.24219-0.0625 0.4375-0.1875 0.59375-0.11719 0.14844-0.26562 0.21875-0.45312 0.21875-0.10547 0-0.19922-0.023438-0.28125-0.0625-0.085937-0.050781-0.16406-0.11719-0.23438-0.20312zm0.32812-1c-0.10547 0-0.1875 0.042969-0.25 0.125-0.054687 0.074219-0.078125 0.18359-0.078125 0.32812 0 0.14844 0.023438 0.26172 0.078125 0.34375 0.0625 0.074219 0.14453 0.10938 0.25 0.10938 0.10156 0 0.17969-0.035156 0.23438-0.10938 0.0625-0.082031 0.09375-0.19531 0.09375-0.34375 0-0.14453-0.03125-0.25391-0.09375-0.32812-0.054688-0.082031-0.13281-0.125-0.23438-0.125z"/>
  </symbol>
  <symbol id="h" overflow="visible">
   <path d="m1.7656-0.9375v0.9375h-0.48438v-0.70312c0-0.13281-0.007812-0.22656-0.015625-0.28125 0-0.050781-0.011719-0.085937-0.03125-0.10938-0.011719-0.03125-0.039063-0.054688-0.078125-0.078125-0.03125-0.019531-0.070312-0.03125-0.10938-0.03125-0.09375 0-0.17188 0.042969-0.23438 0.125-0.0625 0.074219-0.09375 0.18359-0.09375 0.32812v0.75h-0.48438v-2.125h0.48438v0.8125c0.070312-0.082031 0.14844-0.14453 0.23438-0.1875 0.082031-0.039062 0.17578-0.0625 0.28125-0.0625 0.17578 0 0.30469 0.058594 0.39062 0.17188 0.09375 0.10547 0.14062 0.25781 0.14062 0.45312z"/>
  </symbol>
  <symbol id="s" overflow="visible">
   <path d="m0.28125-0.53125h0.5v0.53125h-0.5z"/>
  </symbol>
  <symbol id="g" overflow="visible">
   <path d="m1.4688-1.4844v0.40625c-0.0625-0.050781-0.13281-0.085937-0.20312-0.10938-0.0625-0.019531-0.13281-0.03125-0.20312-0.03125-0.13672 0-0.24609 0.042969-0.32812 0.125-0.074219 0.074219-0.10938 0.18359-0.10938 0.32812 0 0.14844 0.035156 0.26172 0.10938 0.34375 0.082031 0.074219 0.19141 0.10938 0.32812 0.10938 0.070312 0 0.14453-0.007812 0.21875-0.03125 0.070312-0.019531 0.13281-0.050781 0.1875-0.09375v0.39062c-0.074219 0.03125-0.15234 0.050781-0.23438 0.0625-0.074219 0.019531-0.15234 0.03125-0.23438 0.03125-0.27344 0-0.48438-0.070312-0.64062-0.21875-0.15625-0.14453-0.23438-0.34375-0.23438-0.59375s0.078125-0.44141 0.23438-0.57812c0.15625-0.14453 0.36719-0.21875 0.64062-0.21875 0.082031 0 0.16016 0.007812 0.23438 0.015625 0.082031 0.011719 0.16016 0.03125 0.23438 0.0625z"/>
  </symbol>
  <symbol id="f" overflow="visible">
   <path d="m1.6562-1.2812c0.0625-0.09375 0.13281-0.16016 0.21875-0.20312 0.082031-0.050781 0.17578-0.078125 0.28125-0.078125 0.17578 0 0.30469 0.058594 0.39062 0.17188 0.09375 0.10547 0.14062 0.25781 0.14062 0.45312v0.9375h-0.48438v-0.79688-0.03125-0.0625c0-0.10156-0.015625-0.17969-0.046875-0.23438-0.03125-0.050781-0.085938-0.078125-0.15625-0.078125-0.09375 0-0.16797 0.042969-0.21875 0.125-0.042969 0.074219-0.070312 0.18359-0.078125 0.32812v0.75h-0.48438v-0.79688c0-0.16406-0.015625-0.27344-0.046875-0.32812-0.03125-0.050781-0.085937-0.078125-0.15625-0.078125-0.09375 0-0.16797 0.042969-0.21875 0.125-0.054687 0.074219-0.078125 0.18359-0.078125 0.32812v0.75h-0.48438v-1.5312h0.48438v0.21875c0.0625-0.082031 0.12891-0.14453 0.20312-0.1875 0.082031-0.039062 0.17188-0.0625 0.26562-0.0625 0.10156 0 0.19531 0.027344 0.28125 0.078125 0.082031 0.054687 0.14453 0.12109 0.1875 0.20312z"/>
  </symbol>
  <symbol id="r" overflow="visible">
   <path d="m1.2344-2.125v0.32812h-0.26562c-0.0625 0-0.10938 0.011719-0.14062 0.03125-0.03125 0.023437-0.046875 0.0625-0.046875 0.125v0.10938h0.42188v0.34375h-0.42188v1.1875h-0.48438v-1.1875h-0.25v-0.34375h0.25v-0.10938c0-0.16406 0.046875-0.28516 0.14062-0.35938 0.09375-0.082031 0.23828-0.125 0.4375-0.125z"/>
  </symbol>
  <symbol id="q" overflow="visible">
   <path d="m0.25-2.0312h0.59375l0.73438 1.3906v-1.3906h0.5v2.0312h-0.57812l-0.75-1.4062v1.4062h-0.5z"/>
  </symbol>
  <symbol id="p" overflow="visible">
   <path d="m0.21875-0.59375v-0.9375h0.48438v0.15625 0.3125 0.25 0.26562c0.007813 0.054687 0.023437 0.089844 0.046875 0.10938 0.019531 0.042969 0.046875 0.074219 0.078125 0.09375 0.03125 0.011719 0.066406 0.015625 0.10938 0.015625 0.10156 0 0.17969-0.035156 0.23438-0.10938 0.0625-0.082031 0.09375-0.19531 0.09375-0.34375v-0.75h0.48438v1.5312h-0.48438v-0.21875c-0.074219 0.085938-0.15234 0.15234-0.23438 0.20312-0.085938 0.039062-0.17188 0.0625-0.26562 0.0625-0.17969 0-0.3125-0.050781-0.40625-0.15625-0.09375-0.11328-0.14062-0.27344-0.14062-0.48438z"/>
  </symbol>
  <symbol id="o" overflow="visible">
   <path d="m1.7656-0.9375v0.9375h-0.48438v-0.71875c0-0.125-0.007812-0.21094-0.015625-0.26562 0-0.050781-0.011719-0.085937-0.03125-0.10938-0.011719-0.03125-0.039063-0.054688-0.078125-0.078125-0.03125-0.019531-0.070312-0.03125-0.10938-0.03125-0.09375 0-0.17188 0.042969-0.23438 0.125-0.0625 0.074219-0.09375 0.18359-0.09375 0.32812v0.75h-0.48438v-1.5312h0.48438v0.21875c0.070312-0.082031 0.14844-0.14453 0.23438-0.1875 0.082031-0.039062 0.17578-0.0625 0.28125-0.0625 0.17578 0 0.30469 0.058594 0.39062 0.17188 0.09375 0.10547 0.14062 0.25781 0.14062 0.45312z"/>
  </symbol>
  <symbol id="n" overflow="visible">
   <path d="m0.25-2.0312h0.875c0.25781 0 0.45703 0.058594 0.59375 0.17188 0.14453 0.11719 0.21875 0.27734 0.21875 0.48438 0 0.21875-0.074219 0.38672-0.21875 0.5-0.13672 0.11719-0.33594 0.17188-0.59375 0.17188h-0.34375v0.70312h-0.53125zm0.53125 0.375v0.5625h0.29688c0.09375 0 0.16406-0.019531 0.21875-0.0625 0.0625-0.050781 0.09375-0.125 0.09375-0.21875s-0.03125-0.16016-0.09375-0.20312c-0.054687-0.050781-0.125-0.078125-0.21875-0.078125z"/>
  </symbol>
  <symbol id="m" overflow="visible">
   <path d="m0.23438-1.5312h0.48438v1.5c0 0.20703-0.054688 0.36328-0.15625 0.46875-0.09375 0.11328-0.23047 0.17188-0.40625 0.17188h-0.25v-0.32812h0.078125c0.09375 0 0.15625-0.023438 0.1875-0.0625 0.039063-0.042969 0.0625-0.125 0.0625-0.25zm0-0.59375h0.48438v0.40625h-0.48438z"/>
  </symbol>
 </defs>
 <g>
  <path d="m450.46 385.34c-0.78516-0.28125-2.1289-0.28125-3.3594-0.33594 1.0078 0.22266 2.0156 0.33594 3.3594 0.33594z"/>
  <path d="m201.71 397.1h1.0625c-0.39063-0.058594-0.72656-0.058594-1.0625 0z"/>
  <path d="m449.62 395.98-0.50391 0.054688-3.2461-0.72656c-5.0391 0.33594-10.863-0.11328-14.617-0.22266-1.6797 0-5.9922-0.054687-8.2891 0.16797l0.11328-0.22266c-2.7422 0.054687-6.5508 0.44922-8.1758 0.55859l0.054688-0.11328c-1.1211 0.054688-3.9766 0.28125-3.6406 0.72656-2.6875-0.11328-2.1836-0.55859-5.6016-0.33594l0.50391 0.054688c-3.8633 0.16797-22.793-0.22266-26.098-0.054688l0.33594-0.11328c-3.0781 0.28125-7.0547-0.054688-10.246 0.33594-5.8789-0.22266-31.359-0.50391-38.023-0.28125-5.7695 0.11328-0.44922 0.33594-6.1602 0.28125-0.83984 0-1.1758 0.16797-0.11328 0.28125-1.9023-0.054688-4.3672 0-6.1602-0.28125-11.594 0.39062-34.664 0.33594-45.922 0.50391l0.28125-0.054688c-2.0703 0-5.7695 0.054688-10.246 0.11328-2.4648 0-5.207 0.054687-8.0078 0.11328-10.191 0.11328-21.281 0.22266-25.48 0.22266l-1.457 0.28125c-1.5664-0.22266-2.9688-0.054687-5.0977-0.22266-1.1211 0.054687-0.67188 0.22266-0.11328 0.28125-1.8477-0.16797-3.8086 0.054687-4.8711-0.11328l0.28125-0.11328c-2.8555-0.28125-4.5352 0.44922-7.6719 0.16797v-0.054687c-1.2891-0.16797-2.8008 0.11328-3.9219 0.16797-1.5664-0.11328-0.11328-0.33594-1.457-0.44922-0.55859 0.28125-1.9609 0.11328-3.3594 0.054687 1.5664 0 3.3047-0.11328 3.1914-0.39062-1.9023 0-0.39062-0.33594-2.3516-0.16797l-0.16797 0.33594c-0.83984 0.11328-2.4648 0-2.6875-0.11328 0.22266 0.054687 1.0625 0.054687 1.9023 0.054687 0-0.67188 5.375-9.4648 5.6562-10.023 2.6328-0.39063 6.4961 0.16797 9.4648-0.44922-0.78516-0.11328 1.9023 0 0.95312-0.28125 0.50391 0.11328 1.3438 0.054687 1.9023 0.054687-0.83984 0.11328-1.7344 0.16797-1.793 0.33594 3.8633 0.054687 8.0078 0 11.871 0.054687h0.67188c2.4062 0.11328 3.2461-0.55859 3.8086-0.55859l-0.11328 0.22266 2.4648 0.054687c-0.44922-0.28125 0-0.67188-1.0625-0.78516 0.054688-0.16797 0.83984-0.054687 1.6797-0.054687-0.28125 0.054687-0.89453 0.22266-0.39062 0.28125 1.9023 0 0.61719-0.16797 2.8555-0.28125 0 0.054687-1.5117 0.39062 0.33594 0.55859 4.5352 0.22266 29.902-0.054687 35-0.054687-0.28125 0.054687-1.0078 0.89453-1.2891 0.89453l2.2969-0.28125-1.2305-0.33594c2.6875-0.50391 17.863-0.83984 20.719-1.2305h-0.83984c2.2969-0.22266 3.9219-0.22266 6.6641-0.28125l-1.6797 0.11328c0.67188 0.39062 2.0156 0.39062 3.6953 0.33594l-1.0078-0.16797c0.95312-0.22266 1.8477-0.22266 2.8555-0.16797 0.89453 0.054688 1.9023 0.11328 3.1914 0.054688l-1.0625-0.11328c0.55859-0.11328 1.3984 0 2.1836 0-1.457 0.16797 1.0078 0.28125 1.457 0.44922-0.89453-0.39062 1.793-0.39062 2.6328-0.39062 0.44922 0.28125 2.5195-0.22266 2.6875 0.11328 0.78516-0.11328 0.22266-0.28125-0.054688-0.28125 1.793 0.16797 3.3594-0.28125 6.6094-0.33594 5.7109 0.054687 0.72656 0.28125 7.168-0.11328l0.72656 0.22266 0.44922-0.33594c1.1211 0.61719 3.7539 0.16797 4.3125 0.78516 0.67188-0.22266 1.3438 0.054687 2.8008-0.16797-0.67188-0.39062-2.3516-0.22266-3.0781-0.50391 5.543-0.16797 30.129 0.16797 35.281 0.28125-0.83984 0.054688-0.61719 0.22266 0.11328 0.33594l1.9609-0.11328c-0.22266-0.11328-0.78516-0.11328-0.44922-0.22266 0.83984-0.054687 1.8477 0.16797 2.2383-0.16797-0.054687 0.22266 1.2891 0.22266 1.2305 0.28125 0.95312-0.33594 4.4805 0.39062 5.543-0.28125 2.8008-0.11328 0.67188 0.39062 3.6406 0.39062l0.16797-0.44922c0.28125 0.054688 16.016 0.054688 15.566-0.16797 0.22266 0.11328 0.44922 0.28125 1.2305 0.39062 2.8008-0.11328 5.4883-0.054687 8.5117-0.16797-0.28125 0.054687-0.55859 0.054687-0.33594 0.16797 10.137-0.054687 19.824 0.22266 29.848 0.44922 1.9023 0 0.39062 0.39062 2.0156 0.44922 1.0078 0.11328 2.2383-0.11328 3.0781-0.22266-0.22266-0.054688-0.78516-0.054688-0.44922-0.16797 0.50391 0.054687 1.1758 0.11328 1.8477 0.11328-0.61719 0.16797-1.7344 0.28125-0.11328 0.33594h-2.1836c-0.11328 0.22266 0.61719-0.054688 2.1836 0.11328l1.2891-0.054688-0.11328 0.22266c6.6172 1.8516 1.4102 10.422 1.4102 10.422z"/>
  <path d="m374.64 403.26c-0.55859-0.28125-1.5117-0.28125-2.4062-0.33594 0.72656 0.22266 1.4531 0.33594 2.4062 0.33594z"/>
  <path d="m195.27 415.02h0.72656c-0.22266-0.054687-0.44922-0.054687-0.72656 0z"/>
  <path d="m328.05 402.14-0.11328 0.44922c-2.1836 0-0.61719-0.50391-2.6328-0.39063-0.78516 0.61719-3.3047-0.054687-4.0312 0.28125 0-0.054687-0.95312-0.054687-0.89453-0.28125-0.28125 0.33594-1.0078 0.054688-1.625 0.16797-0.22266 0.11328 0.16797 0.11328 0.33594 0.22266l-1.3984 0.11328c-0.55859-0.11328-0.67188-0.33594-0.11328-0.33594-3.6953-0.11328-21.449-0.44922-25.426-0.28125 0.50391 0.28125 1.7344 0.11328 2.1836 0.50391-1.0625 0.22266-1.5664-0.054688-2.0156 0.16797-0.39062-0.61719-2.2969-0.16797-3.1367-0.78516l-0.28125 0.33594-0.5-0.22656c-4.6484 0.33594-1.0625 0.16797-5.1523 0.11328-2.3516 0.054688-3.5273 0.50391-4.8164 0.33594 0.22266 0 0.72656 0.22266 0.11328 0.28125-0.11328-0.28125-1.625 0.22266-1.9609-0.11328-0.61719 0.054688-2.5742 0-1.9023 0.39063-0.33594-0.22266-2.0703-0.28125-1.0625-0.44922-0.55859 0-1.1758-0.054688-1.5664 0l0.72656 0.11328c-1.9609 0.054688-3.0781-0.28125-4.3672 0.11328l0.72656 0.16797c-1.1758 0-2.1836 0.054688-2.6328-0.33594l1.2305-0.11328c-1.9609 0-3.1367 0.054688-4.8164 0.28125h0.55859c-2.0703 0.39062-13.047 0.72656-14.953 1.2305l0.89453 0.33594-1.6797 0.28125c0.22266 0 0.78516-1.0078 0.95312-0.95313-3.5273 0.054688-22.008 0.28125-25.312 0.054688-1.3438-0.16797-0.22266-0.50391-0.22266-0.55859-1.625 0.11328-0.67188 0.33594-2.0703 0.33594-0.39063-0.054688 0.054687-0.22266 0.28125-0.28125-0.61719 0.054687-1.1758-0.054688-1.1758 0.054687 0.72656 0.11328 0.44922 0.50391 0.72656 0.78516l-1.7344-0.054688 0.054687-0.22266c-0.39062 0-1.0078 0.67188-2.7422 0.55859-2.9102-0.11328-6.1055 0-9.0156-0.054688 0.054687-0.16797 0.67188-0.22266 1.2891-0.33594-0.39062 0-1.0078 0.054688-1.3438-0.054687 0.72656 0.28125-1.2305 0.16797-0.67188 0.28125-2.1289 0.61719-4.9297 0.054687-6.832 0.44922-0.16797 0.55859-4.0898 9.4062-4.0898 10.023-0.61719 0-1.1758 0-1.3438-0.054687 0.16797 0.16797 1.2891 0.22266 1.9023 0.11328l0.11328-0.33594c1.3984-0.11328 0.33594 0.22266 1.7344 0.16797 0.054688 0.28125-1.1758 0.33594-2.2969 0.39062 1.0078 0.054688 2.0156 0.22266 2.4062-0.054687 0.95312 0.11328-0.11328 0.33594 1.0625 0.44922 0.83984-0.054687 1.9023-0.33594 2.8008-0.16797v0.054687c2.2969 0.28125 3.4727-0.44922 5.543-0.16797l-0.22266 0.11328c0.72656 0.16797 2.1836-0.054688 3.4727 0.11328-0.39062-0.054687-0.72656-0.28125 0.11328-0.28125 1.5117 0.16797 2.5742 0 3.6953 0.22266l1.0625-0.28125c5.3203 0.054688 26.207-0.33594 31.527-0.39062l-0.22266 0.054688c8.1211-0.11328 24.754-0.11328 33.098-0.50391 1.2891 0.28125 3.0781 0.22266 4.4258 0.28125-0.72656-0.11328-0.50391-0.33594 0.11328-0.28125 4.1445 0.054687 0.28125-0.16797 4.4258-0.28125 4.8164-0.28125 23.129 0.054687 27.383 0.28125 2.2969-0.39063 5.1523-0.11328 7.3906-0.33594l-0.22266 0.11328c2.4062-0.16797 16.016 0.22266 18.816 0.054688l-0.39062-0.054688c2.4648-0.22266 2.1289 0.16797 4.0312 0.33594-0.28125-0.44922 1.8477-0.72656 2.6328-0.72656l-0.054687 0.11328c1.1758-0.054688 3.9219-0.44922 5.9375-0.50391l-0.054687 0.22266c1.6797-0.28125 4.7617-0.16797 5.9375-0.16797 2.7422 0.11328 6.8867 0.55859 10.527 0.22266l2.3516 0.72656 0.33594-0.054688s3.8086-8.5664-1.0078-10.359l0.054687-0.22266-0.95312 0.054687c-1.1211-0.11328-1.6797 0.16797-1.5664-0.054687l1.5664 0.054687c-1.1211-0.054687-0.33594-0.22266 0.11328-0.33594-0.50391 0-0.95312-0.054688-1.3438-0.11328-0.22266 0.11328 0.16797 0.11328 0.33594 0.16797-0.61719 0.11328-1.457 0.33594-2.2383 0.22266-1.1758 0-0.054688-0.39062-1.457-0.44922-7.2227-0.16797-14.223-0.50391-21.504-0.44922-0.16797-0.11328 0.054688-0.11328 0.22266-0.16797-2.1836 0.11328-4.1445 0.054688-6.1602 0.16797-0.55859-0.11328-0.72656-0.28125-0.89453-0.39062 0.55469-0.11328-10.816-0.058594-10.984-0.11328z"/>
  <path d="m240.8 358.4c-0.33594 0-0.55859-0.11328-0.78516-0.33594 0.28125 0.058594 0.61719 0.058594 0.78516 0.33594z"/>
  <path d="m240.57 369.04-0.11328 0.054688-0.72656-0.72656c-1.1758 0.33594-2.5195-0.11328-3.3594-0.22266-0.39062 0-1.3984-0.054687-1.9023 0.16797v-0.28125c-0.61719 0.054688-1.5117 0.44922-1.9023 0.55859v-0.11328c-0.28125 0.054688-0.95312 0.28125-0.83984 0.72656-0.50391-0.11328-0.50391-0.44922-0.95312-0.39062-0.22266-0.39062-0.44922-0.78516-0.61719-1.1758-0.28125-0.44922-0.22266-0.28125-0.054687 0.11328 0.11328 0.33594 0.33594 0.72656 0.50391 1.1211h-0.054687-0.11328l0.11328 0.054687c-0.89453 0.16797-5.2656-0.22266-6.0469-0.054687l0.054688-0.11328c-0.72656 0.28125-1.625-0.054687-2.3516 0.33594-0.67188-0.11328-2.4062-0.22266-4.1992-0.33594-1.8477-0.054687-3.7539-0.11328-4.5352 0.054688-1.3438 0.11328-0.11328 0.33594-1.457 0.28125-0.16797 0-0.28125 0.16797 0 0.28125-0.44922-0.054688-1.0078 0-1.3984-0.28125-2.6875 0.39062-8.0078 0.33594-10.586 0.50391l0.054688-0.054687c-1.7344 0.054687-8.3984 0.44922-10.078 0.39062l-0.33594 0.28125c-0.33594-0.22266-0.67188-0.054688-1.1758-0.22266-0.28125 0.054687-0.16797 0.22266-0.054688 0.28125-0.44922-0.16797-0.89453 0.054687-1.1211-0.11328l0.054687-0.11328c-0.67188-0.28125-1.0625 0.44922-1.793 0.16797v-0.054688c-0.28125-0.16797-0.67188 0.11328-0.89453 0.16797-0.39062-0.11328 0-0.33594-0.33594-0.44922-0.11328 0.33594-0.44922 0.11328-0.78516 0.054688 0.33594-0.054688 0.78516-0.11328 0.72656-0.39062-0.44922 0-0.11328-0.28125-0.55859-0.16797l-0.054687 0.33594c-0.16797 0.054687-0.55859 0-0.61719-0.16797 0.054688 0.054687 0.22266 0.054687 0.44922 0.054687 0-0.67188 1.2305-9.4648 1.2891-10.023 0.61719-0.39062 1.5117 0.16797 2.1836-0.44922-0.16797-0.11328 0.44922 0 0.22266-0.28125 0.11328 0.11328 0.28125 0.054688 0.44922 0.054688-0.22266 0.11328-0.39062 0.16797-0.39062 0.33594 0.95312 0.054687 1.9609 0 2.9102 0.054687 0.55859 0.11328 0.72656-0.55859 0.83984-0.55859v0.22266l0.55859 0.054687c-0.11328-0.28125 0-0.67187-0.22266-0.78516 0-0.16797 0.16797-0.054687 0.39062-0.054687-0.054688 0.054687-0.22266 0.22266-0.11328 0.28125 0.44922 0 0.16797-0.16797 0.67188-0.33594 0 0.054688-0.33594 0.39062 0.054687 0.55859 1.0625 0.22266 6.9453 0 8.1211-0.054687-0.054688 0.054687-0.22266 0.95312-0.28125 0.95312l0.55859-0.28125-0.28125-0.33594c0.61719-0.50391 4.1445-0.83984 4.8164-1.2305h-0.16797c0.50391-0.22266 0.89453-0.22266 1.5117-0.28125l-0.39062 0.11328c0.16797 0.39062 0.44922 0.39062 0.83984 0.33594l-0.22266-0.16797c0.39062-0.39062 0.78516-0.054687 1.3984-0.11328l-0.22266-0.11328c0.16797-0.11328 0.33594 0 0.50391 0-0.33594 0.16797 0.22266 0.28125 0.33594 0.44922-0.22266-0.39062 0.39062-0.39062 0.61719-0.39062 0.11328 0.28125 0.55859-0.22266 0.61719 0.11328 0.22266-0.054688 0.054688-0.28125-0.054687-0.28125 0.44922 0.16797 0.78516-0.28125 1.5664-0.33594 1.3438 0.054688 0.16797 0.28125 1.6797-0.11328l0.16797 0.22266 0.11328-0.33594c0.22266 0.50391 0.72656 0.28125 0.89453 0.55859 0.054687 0.054688 0.054687 0.11328 0.054687 0.22266 0.16797-0.22266 0.28125 0.054687 0.67188-0.16797-0.16797-0.39062-0.55859-0.22266-0.72656-0.50391 1.2891-0.16797 6.9453 0.16797 8.1211 0.28125-0.16797 0.054687-0.16797 0.22266 0.054688 0.33594l0.44922-0.11328c-0.054688-0.11328-0.16797-0.11328-0.11328-0.22266 0.22266-0.11328 0.44922 0.16797 0.50391-0.16797 0 0.16797 0.28125 0.22266 0.28125 0.28125 0.22266-0.33594 1.0625 0.33594 1.2891-0.28125 0.61719-0.11328 0.16797 0.39062 0.83984 0.39062l0.054688-0.44922h0.61719c1.0625 0 2.9688-0.054687 2.9688-0.16797 0.054687 0.11328 0.11328 0.22266 0.28125 0.33594 0.67188-0.11328 1.2891-0.054688 1.9609-0.16797-0.054687 0.054688-0.11328 0.054688-0.054687 0.16797 2.3516-0.054688 4.5938 0.22266 6.8867 0.44922 0.44922 0 0.11328 0.39062 0.44922 0.44922 0.22266 0.11328 0.50391-0.11328 0.72656-0.22266-0.054687-0.054687-0.16797-0.054687-0.11328-0.16797 0.11328 0.054688 0.28125 0.11328 0.44922 0.11328-0.16797 0.16797-0.39062 0.28125 0 0.33594l-0.50391-0.054687c0 0.28125 0.16797-0.054688 0.50391 0.054687l0.28125-0.054687v0.28125c1.3945 2.1328 0.16016 10.699 0.16016 10.699z"/>
  <path d="m230.78 368.87c-0.054688 0-0.11328 0-0.22266 0.054687-0.16797-0.33594-0.33594-0.78516-0.50391-1.1211-0.16797-0.39063-0.22266-0.55859 0.054688-0.11328 0.22266 0.39844 0.44531 0.78906 0.67188 1.1797z"/>
  <path d="m316.73 358.4c-0.33594 0-0.55859-0.11328-0.78516-0.33594 0.28125 0.058594 0.61719 0.058594 0.78516 0.33594z"/>
  <path d="m316.51 369.04-0.11328 0.054688-0.78516-0.72656c-1.1758 0.33594-2.5195-0.11328-3.3594-0.22266-0.39062 0-1.3984-0.054687-1.9023 0.16797v-0.28125c-0.61719 0.054688-1.5117 0.44922-1.9023 0.55859v-0.11328c-0.28125 0.054688-0.89453 0.28125-0.83984 0.72656-0.61719-0.16797-0.50391-0.55859-1.2891-0.33594l0.11328 0.054687c-0.89453 0.16797-5.2656-0.22266-6.0469-0.054687l0.054687-0.11328c-0.72656 0.28125-1.625-0.054687-2.3516 0.33594-1.3438-0.22266-7.2227-0.50391-8.793-0.28125-1.3438 0.11328-0.11328 0.33594-1.3984 0.28125-0.16797 0-0.28125 0.16797-0.054688 0.28125-0.44922-0.054688-1.0078 0-1.3984-0.28125-2.6875 0.39062-8.0078 0.33594-10.641 0.50391l0.054687-0.054688c-1.6797 0.054688-8.3984 0.44922-10.078 0.39063l-0.33594 0.28125c-0.33594-0.22266-0.67187-0.054688-1.1758-0.22266-0.28125 0.054688-0.16797 0.22266 0 0.28125-0.44922-0.16797-0.89453 0.054688-1.1211-0.11328l0.054687-0.11328c-0.67188-0.28125-1.0625 0.44922-1.793 0.16797v-0.054688c-0.28125-0.16797-0.67188 0.11328-0.89453 0.16797-0.39062-0.11328 0-0.33594-0.33594-0.44922-0.11328 0.33594-0.44922 0.11328-0.78516 0.054688 0.33594-0.054688 0.78516-0.11328 0.72656-0.39063-0.44922 0-0.11328-0.28125-0.55859-0.16797l-0.054688 0.33594c-0.16797 0.054688-0.55859 0-0.61719-0.16797 0.054687 0.054688 0.22266 0.054688 0.44922 0.054688 0-0.67188 1.2305-9.4648 1.2891-10.023 0.61719-0.39062 1.5117 0.16797 2.1836-0.44922-0.16797-0.11328 0.44922 0 0.22266-0.28125 0.11328 0.11328 0.28125 0.054687 0.44922 0.054687-0.16797 0.11328-0.39062 0.16797-0.39062 0.33594 0.95312 0.054687 1.9609 0 2.9102 0.054687 0.55859 0.11328 0.72656-0.55859 0.89453-0.55859l-0.054688 0.22266 0.55859 0.054687c-0.11328-0.28125 0-0.67188-0.22266-0.78516 0-0.16797 0.16797-0.054688 0.39062-0.054688-0.054687 0.054688-0.22266 0.22266-0.11328 0.28125 0.44922 0 0.16797-0.16797 0.67188-0.33594 0 0.054687-0.33594 0.39062 0.054688 0.55859 1.0625 0.22266 6.9453 0 8.1211-0.054688-0.054688 0.054688-0.22266 0.95312-0.28125 0.95312l0.55859-0.28125-0.28125-0.33594c0.61719-0.50391 4.1445-0.83984 4.8164-1.2305h-0.16797c0.50391-0.22266 0.89453-0.22266 1.5664-0.28125l-0.39062 0.11328c0.16797 0.39062 0.44922 0.39062 0.83984 0.33594l-0.22266-0.16797c0.39062-0.39062 0.78516-0.054688 1.3984-0.11328l-0.22266-0.11328c0.11328-0.11328 0.33594 0 0.50391 0-0.33594 0.16797 0.22266 0.28125 0.33594 0.44922-0.22266-0.39062 0.39063-0.39062 0.61719-0.39062 0.11328 0.28125 0.55859-0.22266 0.61719 0.11328 0.16797-0.054687 0-0.28125-0.054688-0.28125 0.44922 0.16797 0.78516-0.28125 1.5664-0.33594 1.2891 0.054687 0.16797 0.28125 1.6797-0.11328l0.16797 0.22266 0.11328-0.33594c0.28125 0.61719 0.83984 0.16797 1.0078 0.78516 0.16797-0.22266 0.28125 0.054687 0.61719-0.16797-0.16797-0.39062-0.55859-0.22266-0.72656-0.50391 1.2891-0.16797 6.9453 0.16797 8.1211 0.28125-0.16797 0.054687-0.16797 0.22266 0.054687 0.33594l0.44922-0.11328c-0.054687-0.11328-0.16797-0.11328-0.11328-0.22266 0.16797-0.11328 0.44922 0.16797 0.50391-0.16797 0 0.16797 0.28125 0.22266 0.28125 0.28125 0.22266-0.33594 1.0078 0.33594 1.2891-0.28125 0.61719-0.11328 0.16797 0.39062 0.83984 0.39062l0.054688-0.44922c0.054688 0.054688 3.6953 0.054688 3.5859-0.16797 0.054687 0.11328 0.11328 0.28125 0.28125 0.33594 0.61719-0.11328 1.2891-0.054688 1.9609-0.16797-0.054687 0.054688-0.11328 0.054688-0.054687 0.16797 2.3516-0.054688 4.5938 0.22266 6.8867 0.44922 0.44922 0 0.054688 0.39062 0.44922 0.44922 0.22266 0.11328 0.50391-0.11328 0.72656-0.22266-0.054688-0.054687-0.16797-0.054687-0.11328-0.16797 0.11328 0.054688 0.28125 0.11328 0.44922 0.11328-0.16797 0.16797-0.39062 0.28125-0.054687 0.33594l-0.50391-0.054687c0 0.28125 0.16797-0.054688 0.50391 0.054687l0.28125-0.054687v0.28125c1.5 2.1328 0.26953 10.699 0.26953 10.699z"/>
  <path d="m392.67 358.4c-0.33594 0-0.55859-0.11328-0.78516-0.33594 0.28125 0.058594 0.61719 0.058594 0.78516 0.33594z"/>
  <path d="m392.45 369.04-0.11328 0.054688-0.72656-0.72656c-1.1758 0.33594-2.5195-0.11328-3.3594-0.22266-0.39062 0-1.3984-0.054687-1.9023 0.16797v-0.28125c-0.61719 0.054688-1.5117 0.44922-1.9023 0.55859v-0.11328c-0.28125 0.054688-0.95312 0.28125-0.83984 0.72656-0.61719-0.16797-0.50391-0.55859-1.2891-0.33594l0.11328 0.054687c-0.89453 0.16797-5.2656-0.22266-6.0469-0.054687l0.054688-0.11328c-0.72656 0.28125-1.625-0.054687-2.3516 0.33594-1.3438-0.22266-7.2227-0.50391-8.793-0.28125-1.3438 0.11328-0.11328 0.33594-1.3984 0.28125-0.16797 0-0.28125 0.16797 0 0.28125-0.44922-0.054688-1.0078 0-1.3984-0.28125-1.6797 0.22266-4.3672 0.33594-6.7773 0.39062-1.457 0.054687-2.8555 0.054687-3.8086 0.11328l0.054688-0.054688c-1.6797 0.054688-8.3984 0.44922-10.078 0.39063l-0.33594 0.28125c-0.33594-0.22266-0.67188-0.054688-1.1758-0.22266-0.28125 0.054688-0.16797 0.22266-0.054688 0.28125-0.44922-0.16797-0.89453 0.054688-1.1211-0.11328l0.054687-0.11328c-0.67188-0.28125-1.0625 0.44922-1.793 0.16797v-0.054688c-0.28125-0.16797-0.61719 0.11328-0.89453 0.16797-0.39062-0.11328 0-0.33594-0.33594-0.44922-0.11328 0.33594-0.44922 0.11328-0.78516 0.054688 0.33594-0.054688 0.78516-0.11328 0.72656-0.39063-0.44922 0-0.11328-0.28125-0.55859-0.16797l-0.054687 0.33594c-0.22266 0.054688-0.55859 0-0.61719-0.16797 0.054688 0.054688 0.22266 0.054688 0.44922 0.054688 0-0.39062 0.44922-3.6406 0.78516-6.3281 0.28125-1.8477 0.50391-3.4727 0.50391-3.6953 0.61719-0.39062 1.5117 0.16797 2.1836-0.44922-0.16797-0.11328 0.44922 0 0.22266-0.28125 0.11328 0.11328 0.28125 0.054687 0.44922 0.054687-0.16797 0.11328-0.39062 0.16797-0.39062 0.33594 0.95312 0.054687 1.9609 0 2.9102 0.054687 0.55859 0.11328 0.72656-0.55859 0.89453-0.55859v0.22266l0.55859 0.054687c-0.11328-0.28125 0-0.67188-0.22266-0.78516 0-0.16797 0.16797-0.054688 0.39062-0.054688-0.054687 0.054688-0.22266 0.22266-0.11328 0.28125 0.44922 0 0.16797-0.16797 0.67188-0.33594 0 0.054687-0.33594 0.39062 0.054687 0.55859 0.78516 0.16797 4.4258 0.054687 6.6094 0 0.67187 0 1.1758-0.054688 1.457-0.054688-0.054688 0.054688-0.22266 0.95312-0.28125 0.95312l0.50391-0.28125-0.28125-0.33594c0.61719-0.50391 4.1445-0.83984 4.8164-1.2305h-0.16797c0.50391-0.22266 0.89453-0.22266 1.5117-0.28125l-0.39062 0.11328c0.16797 0.39062 0.44922 0.39062 0.83984 0.33594l-0.22266-0.16797c0.39062-0.39062 0.78516-0.054688 1.3984-0.11328l-0.22266-0.11328c0.11328-0.11328 0.33594 0 0.50391 0-0.33594 0.16797 0.22266 0.28125 0.33594 0.44922-0.22266-0.39062 0.39062-0.39062 0.61719-0.39062 0.11328 0.28125 0.61719-0.22266 0.61719 0.11328 0.16797-0.054687 0-0.28125-0.054688-0.28125 0.44922 0.16797 0.78516-0.28125 1.5664-0.33594 1.3438 0.054687 0.16797 0.28125 1.6797-0.11328l0.16797 0.22266 0.11328-0.33594c0.28125 0.61719 0.83984 0.16797 1.0078 0.78516 0.16797-0.22266 0.28125 0.054687 0.67188-0.16797-0.16797-0.39062-0.55859-0.22266-0.72656-0.50391 1.2891-0.16797 6.9453 0.16797 8.1211 0.28125-0.16797 0.054687-0.16797 0.22266 0 0.33594l0.44922-0.11328c-0.054688-0.11328-0.16797-0.11328-0.11328-0.22266 0.22266-0.11328 0.44922 0.16797 0.50391-0.16797 0 0.16797 0.28125 0.22266 0.28125 0.28125 0.22266-0.33594 1.0625 0.33594 1.2891-0.28125 0.67188-0.11328 0.16797 0.39062 0.83984 0.39062l0.054687-0.44922c0.054688 0.054688 3.6953 0.054688 3.5859-0.16797 0.054687 0.11328 0.11328 0.28125 0.28125 0.33594 0.67188-0.11328 1.2891-0.054688 1.9609-0.16797-0.054687 0.054688-0.11328 0.054688-0.054687 0.16797 2.3516-0.054688 4.5938 0.22266 6.8867 0.44922 0.44922 0 0.11328 0.39062 0.44922 0.44922 0.054688 0.054687 0.16797 0.054687 0.22266 0 0.054687 0 0.11328-0.054688 0.16797-0.054688 0.22266-0.054688 0.44922-0.11328 0.61719-0.22266-0.16797 0.16797-0.39062 0.28125 0 0.33594l-0.50391-0.054687c0 0.28125 0.16797-0.054688 0.50391 0.054687l0.28125-0.054687v0.28125c1.4961 2.1328 0.26562 10.699 0.26562 10.699z"/>
  <path d="m391.21 358.23c0.11328-0.054688 0.22266-0.11328 0.33594-0.16797-0.054687-0.054688-0.16797-0.054688-0.11328-0.16797 0.11328 0.054688 0.28125 0.11328 0.39062 0.11328-0.16406 0.11328-0.38672 0.16797-0.61328 0.22266z"/>
  <path d="m468.61 358.4c-0.33594 0-0.55859-0.11328-0.78516-0.33594 0.28125 0.058594 0.61719 0.058594 0.78516 0.33594z"/>
  <path d="m468.38 369.04-0.11328 0.054688-0.72656-0.72656c-1.1758 0.33594-2.5195-0.11328-3.3594-0.22266-0.39062 0-1.3984-0.054687-1.9023 0.16797l0.054688-0.28125c-0.61719 0.054688-1.5117 0.44922-1.9023 0.55859v-0.11328c-0.28125 0.054688-0.95312 0.28125-0.83984 0.72656-0.61719-0.16797-0.50391-0.55859-1.2891-0.33594l0.11328 0.054687c-0.89453 0.16797-5.2656-0.22266-6.0469-0.054687l0.054687-0.11328c-0.72656 0.28125-1.625-0.054687-2.3516 0.33594-1.3438-0.22266-7.2227-0.50391-8.793-0.28125-1.3438 0.11328-0.11328 0.33594-1.457 0.28125-0.16797 0-0.28125 0.16797 0 0.28125-0.44922-0.054688-1.0078 0-1.3984-0.28125-2.6875 0.39062-8.0078 0.33594-10.586 0.50391l0.054687-0.054688c-1.6797 0.054688-8.3984 0.44922-10.078 0.39063l-0.33594 0.28125c-0.33594-0.22266-0.67188-0.054688-1.1758-0.22266-0.28125 0.054688-0.16797 0.22266-0.054688 0.28125-0.44922-0.16797-0.89453 0.054688-1.1211-0.11328l0.054688-0.11328c-0.67188-0.28125-1.0625 0.44922-1.793 0.16797v-0.054688c-0.28125-0.16797-0.61719 0.11328-0.89453 0.16797-0.33594-0.11328 0-0.33594-0.33594-0.44922-0.11328 0.33594-0.44922 0.11328-0.78516 0.054688 0.33594-0.054688 0.78516-0.11328 0.72656-0.39063-0.44922 0-0.11328-0.28125-0.55859-0.16797l-0.054688 0.33594c-0.16797 0.054688-0.55859 0-0.61719-0.16797 0.054687 0.054688 0.22266 0.054688 0.44922 0.054688 0-0.67188 1.2305-9.4648 1.2891-10.023 0.61719-0.39062 1.5117 0.16797 2.1836-0.44922-0.16797-0.11328 0.44922 0 0.22266-0.28125 0.11328 0.11328 0.28125 0.054687 0.44922 0.054687-0.22266 0.11328-0.39062 0.16797-0.39062 0.33594 0.95312 0.054687 1.9609 0 2.9102 0.054687 0.55859 0.11328 0.72656-0.55859 0.89453-0.55859v0.22266l0.55859 0.054687c-0.11328-0.28125 0-0.67188-0.22266-0.78516 0-0.16797 0.16797-0.054688 0.39062-0.054688-0.054688 0.054688-0.22266 0.22266-0.11328 0.28125 0.44922 0 0.16797-0.16797 0.67187-0.33594 0 0.054687-0.33594 0.39062 0.054688 0.55859 1.0625 0.22266 6.9453 0 8.1211-0.054688-0.054688 0.054688-0.22266 0.95312-0.28125 0.95312l0.55859-0.28125-0.28125-0.33594c0.61719-0.50391 4.1445-0.83984 4.7617-1.2305h-0.16797c0.50391-0.22266 0.89453-0.22266 1.5117-0.28125l-0.39062 0.11328c0.16797 0.39062 0.44922 0.39062 0.83984 0.33594l-0.22266-0.16797c0.39062-0.39062 0.78516-0.054688 1.3984-0.11328l-0.22266-0.11328c0.11328-0.11328 0.33594 0 0.50391 0-0.33594 0.16797 0.22266 0.28125 0.33594 0.44922-0.22266-0.39062 0.39062-0.39062 0.61719-0.39062 0.11328 0.28125 0.55859-0.22266 0.61719 0.11328 0.22266-0.054687 0.054687-0.28125-0.054688-0.28125 0.44922 0.16797 0.78516-0.28125 1.5664-0.33594 1.2891 0.054687 0.16797 0.28125 1.6797-0.11328l0.16797 0.22266 0.11328-0.33594c0.28125 0.61719 0.83984 0.16797 1.0078 0.78516 0.16797-0.22266 0.28125 0.054687 0.67187-0.16797-0.16797-0.39062-0.55859-0.22266-0.72656-0.50391 1.2891-0.16797 6.9453 0.16797 8.1758 0.28125-0.16797 0.054687-0.16797 0.22266 0 0.33594l0.44922-0.11328c-0.054688-0.11328-0.16797-0.11328-0.11328-0.22266 0.22266-0.11328 0.44922 0.16797 0.50391-0.16797 0 0.16797 0.28125 0.22266 0.28125 0.28125 0.22266-0.33594 1.0078 0.33594 1.2891-0.28125 0.61719-0.11328 0.16797 0.39062 0.83984 0.39062l0.054688-0.44922c0.054687 0.054688 3.5859 0.054688 3.5859-0.16797 0.054688 0.11328 0.11328 0.22266 0.28125 0.33594 0.61719-0.11328 1.2891-0.054688 1.9609-0.16797-0.054688 0.054688-0.11328 0.054688-0.054688 0.16797 2.3516-0.054688 4.5938 0.22266 6.8867 0.44922 0.44922 0 0.054687 0.39062 0.44922 0.44922 0.22266 0.11328 0.50391-0.11328 0.72656-0.22266-0.054687-0.054687-0.16797-0.054687-0.11328-0.16797 0.11328 0.054688 0.28125 0.11328 0.44922 0.11328-0.16797 0.16797-0.39062 0.28125 0 0.33594l-0.50391-0.054687c0 0.28125 0.16797-0.054688 0.50391 0.054687l0.28125-0.054687v0.28125c1.3398 2.1328 0.10547 10.699 0.10547 10.699z"/>
  <path d="m233.35 334.43c-0.95312 0-1.6797-0.054688-2.4062-0.16797 0.89453 0 1.8477 0 2.4062 0.16797z"/>
  <path d="m236.04 340.09c-0.39062 0.054687-0.72656 0.11328-1.0625 0.16797 0.33594-0.058593 0.67188-0.11328 1.0625-0.16797z"/>
  <path d="m243.94 328.16-0.054688-0.22266c-0.054687 0.50391-0.054687 0.95312-0.054687 1.3984 0 0.22266 0 0.44922 0.054687 0.61719 0 0.22266 0.054688 0.33594 0 0.72656 0 1.2305-0.16797 2.5742-0.95312 4.0312v-0.054688c-0.67188 1.1758-1.5117 2.5195-2.4062 3.3047-0.67188 0.50391-0.72656 0.50391-0.72656 0.44922 0-0.054687 0-0.054687-0.61719 0.28125-0.39063 0.44922-1.793 1.0625-3.1914 1.3438 0.78516-0.16797 1.625-0.44922 2.1836-0.78516 0.55859-0.28125 0.89453-0.55859 0.83984-0.61719-0.39062 0.28125-0.67188 0.39063-0.83984 0.44922-0.16797 0.054688-0.22266 0.054688-0.28125 0.054688-0.11328 0-0.22266 0.054687-1.1758 0.39062l-0.11328 0.22266c-0.22266 0.054688-0.44922 0.16797-0.72656 0.22266-0.28125 0.054688-0.55859 0.11328-0.83984 0.11328-0.55859 0.054687-1.0078 0-1.1211 0 0.28125 0 1.1211 0 1.9023-0.16797 0-0.054688 0.28125-0.50391 0.61719-1.0625 0.33594-0.55859 0.67188-1.3438 0.83984-2.1289 0.11328-0.39062 0.16797-0.78516 0.16797-1.1211v-0.95312c-0.054687-0.55859-0.16797-0.89453-0.16797-1.0078 0.39062-0.55859 0.83984-1.1758 1.0625-1.9609 0.11328-0.39062 0.16797-0.78516 0.16797-1.1758v-0.33203c0-0.16797 0-0.28125-0.054687-0.44922 0-0.28125-0.054688-0.55859-0.11328-0.83984-0.054688 0.55859 0-1.3438-0.16797-0.67188 0.054687-0.33594 0.054687-0.95312 0.054687-1.3438 0.054688 0.61719 0.054688 1.2305 0.16797 1.2891 0-2.8555 0-5.9922 0.054687-8.8477 0.054688-1.6797-0.28125-2.2969-0.28125-2.6875l0.11328 0.054688v-1.7344c-0.11328 0.33594-0.33594 0-0.39062 0.72656-0.054688-0.054687 0-0.61719-0.054688-1.1758 0 0.22266 0.11328 0.67188 0.16797 0.28125 0-1.3438-0.11328-0.44922-0.16797-2.0156 0 0 0.16797 1.0625 0.28125-0.22266 0-0.78516 0.054688-2.5195 0.054688-4.7617v-1.7344-0.89453c0-0.22266 0-0.39063-0.054688-0.61719-0.054687-0.39062-0.16797-0.83984-0.39062-1.1758-0.16797-0.39062-0.44922-0.72656-0.72656-1.0625-0.61719-0.67188-1.3984-1.1211-2.1836-1.2891-0.22266-0.054687-0.39062-0.054687-0.61719-0.11328h-0.72656-1.7344-4.8711c0.22266 0 0.72656-0.44922 0.89453-0.44922l-1.625 0.11328 0.89453 0.16797c-1.9023 0.28125-12.656 0.44922-14.727 0.61719h0.55859c-1.1758 0.054687-2.1836 0.11328-3.3594 0.11328h-1.3438l1.1758-0.054687c-0.44922-0.22266-1.457-0.16797-2.5742-0.16797l0.72656 0.054687c-1.2891 0.16797-2.3516 0.054688-4.3125 0.054688l0.72656 0.054687c-0.44922 0.054688-1.0078 0-1.5664 0 0.95312-0.11328-0.55859-0.11328-0.95312-0.22266 0.44922 0.16797-1.3438 0.16797-1.9023 0.16797-0.28125-0.16797-1.793 0.11328-1.9023-0.054688-0.50391 0.054688-0.22266 0.11328 0 0.16797h-0.28125c-1.1758 0-2.2383 0.16797-4.3672 0.22266-0.95312 0-1.5117-0.054687-1.793-0.054687h-0.28125c-0.054687 0-0.11328 0-0.28125 0.054687-0.16797 0.054688-0.50391 0.11328-1.0078 0.44922l-0.28125 0.054688v0.22266c-0.28125 0-0.55859 0.22266-0.78516 0.44922-0.22266 0.22266-0.39062 0.50391-0.55859 0.50391 0 0.28125-0.28125 0.44922-0.28125 1.0625 0.22266-0.22266 0.39062-0.83984 0.61719-0.95312-0.11328 0.22266-0.28125 0.55859-0.33594 0.95312-0.054688 0.22266-0.054688 0.44922-0.054688 0.72656v1.5664c0 2.2383 0 4.9297-0.054687 7.5586-0.054687 5.3203-0.11328 10.586-0.11328 12.375 0-0.55859-0.11328-0.44922-0.16797 0.11328l0.054687 1.3984c0.054688-0.16797 0.054688-0.55859 0.11328-0.33594 0.054687 0.61719-0.11328 1.2891 0.11328 1.625-0.11328-0.054687-0.11328 0.89453-0.11328 0.89453 0.054687 0.16797 0.054687 0.28125 0.054687 0.44922v0.28125c0 0.11328 0.054688 0.22266 0.054688 0.33594 0.11328 0.39062 0.28125 0.83984 0.55859 0.89453 0.33594 0.39062 0.33594 0.44922 0.33594 0.55859 0 0.054687 0 0.11328 0.054688 0.16797 0.054687 0.11328 0.16797 0.22266 0.39062 0.39062l0.16797-0.16797s0.33594 0.28125 0.83984 0.44922c0.28125 0.054687 0.55859 0.16797 0.89453 0.16797h0.33594 0.50391 1.0625c2.6875 0 5.3203-0.054688 5.3203-0.11328 0.16797 0.054688 0.28125 0.11328 0.83984 0.16797 1.9609-0.054687 3.8633-0.054687 6.0469-0.11328-0.22266 0-0.39062 0-0.22266 0.054687h2.0703c4.1445 0 8.1758 0.054688 12.266 0.11328 2.2383 0.054688 4.5352 0.054688 6.832 0.11328 1.3438 0 0.28125 0.22266 1.3984 0.22266 0.72656 0.054688 1.5664-0.054688 2.1836-0.11328-0.16797 0-0.55859-0.054688-0.33594-0.054688 0.39062 0.054688 0.83984 0.054688 1.2891 0.054688-0.44922 0.054687-1.2305 0.16797-0.11328 0.16797h-1.5117c-0.054688 0.11328 0.44922 0 1.5664 0.054687h0.95312l-0.054687 0.11328c4.7031 0.89453 1.0078 5.207 1.0078 5.207l-0.33594 0.054687-2.2969-0.33594c-2.9688 0.11328-6.3828 0-8.9609-0.054688-0.50391 0-1.0078-0.054688-1.3984-0.054688-1.1758 0-4.2578-0.054687-5.8789 0.11328l0.054688-0.11328c-1.5664 0-3.6406 0.16797-4.9844 0.22266-0.33594 0-0.61719 0-0.83984 0.054687v-0.054687c-0.78516 0-2.8555 0.16797-2.5742 0.39062-1.9023-0.054688-1.5664-0.28125-3.9766-0.16797h0.39062c-1.3984 0.054687-5.4336 0-9.4062 0h-1.6211c-0.33594 0-0.67188-0.054687-1.0078-0.11328-0.33594-0.054688-0.67188-0.11328-0.95312-0.22266-1.2891-0.33594-2.4062-0.95313-3.2461-1.6797-0.89453-0.72656-1.5117-1.5117-2.0156-2.1836-0.44922-0.67188-0.72656-1.2305-0.83984-1.625 0 0 0.054688 0.054688 0.054688 0.11328 0.054687 0.054687 0.054687 0.11328 0.054687 0.11328-0.33594-0.67188-0.61719-1.457-0.72656-2.2969-0.054688-0.39062-0.11328-0.83984-0.11328-1.2891v-0.28125-0.72656c0-1.2891 0-2.5195-0.11328-3.6406 0.054688-2.0703 0.11328-7.6719 0.16797-13.273v-4.1992-2.0156c0-0.67187 0-1.1758 0.054688-2.1289 0.16797-1.6797 0.78516-3.1367 1.457-4.1992 0.72656-1.1211 1.5117-1.8477 2.1836-2.3516 0.28125-0.22266 0.55859-0.39062 0.78516-0.55859 0.22266-0.16797 0.44922-0.28125 0.61719-0.33594 0.33594-0.16797 0.61719-0.33594 0.78516-0.39062 0.33594-0.16797 0.39063-0.16797 0.44922-0.22266 0.054688-0.054687 0.054688-0.054687 0.44922-0.16797 0.16797-0.054688 0.44922-0.16797 0.89453-0.16797 0.22266-0.054687 0.44922-0.054687 0.72656-0.11328 0.28125 0 0.61719-0.054688 0.89453-0.054688 0.55859 0 0.83984-0.11328 0.11328-0.16797 1.2891 0.054687 2.9102 0 4.1992 0.11328h0.16797c3.1367-0.054688 7.4492-0.11328 12.039-0.16797 7.4492-0.054688 15.625-0.054688 20.551-0.11328h-0.22266 2.6328 1.7344 0.95312 0.55859c0.22266 0 0.50391 0 0.72656 0.054687 1.9609 0.16797 4.0898 1.0078 5.7695 2.5742 1.625 1.5117 2.8008 3.6953 3.0781 6.0469 0.054688 0.28125 0.054688 0.55859 0.054688 0.89453v0.33594 0.28125 1.1758 2.3516 4.4258 6.3281l0.16797 1.0625c-0.11328 1.1211 0 2.1289-0.11328 3.5859 0 0.72656 0.11328 0.50391 0.16797 0.16797 0.125 1.3555 0.23438 2.6992 0.125 3.4258z"/>
  <path d="m512.46 310.8c-4.2578 1.3438-7.7266 2.2969-10.922 3.0781-0.11328 0.054688-0.16797 0.054688-0.28125 0.054688-0.61719 0.16797-1.1758 0.28125-1.793 0.44922 0.55859-0.16797 1.1758-0.33594 1.793-0.50391 0.11328 0 0.16797-0.054687 0.28125-0.054687 4.1992-1.2891 8.3438-2.4648 10.922-3.0234z"/>
  <path d="m499.52 314.38c-0.054687 0-0.11328 0.054688-0.16797 0.054688 0 0 0.054688 0 0.054688-0.054688h0.11328z"/>
  <path d="m523.43 319.48c0.67188-0.28125 1.3984-0.61719 2.1289-0.95312 0.72656-0.33594 1.457-0.72656 2.2383-1.1211-0.72656 0.39062-1.457 0.72656-2.1836 1.1211-0.73047 0.33594-1.457 0.67188-2.1836 0.95312z"/>
  <path d="m513.02 184.97c-0.11328-0.22266-0.16797-0.39062-0.22266-0.61719 0.054687 0.16797 0.16797 0.39063 0.22266 0.61719z"/>
  <path d="m228.31 242.43v0h0.11328c-0.058593 0.054688-0.058593 0-0.11328 0zm163.57 115.64c-0.16797 0-0.28125-0.054688-0.39062-0.11328-0.054688 0.11328 0.054687 0.11328 0.11328 0.16797-0.11328 0.054687-0.22266 0.11328-0.33594 0.16797 0.16797-0.10938 0.39062-0.16406 0.61328-0.22266zm111.89-44.352 0.33594-0.33594-2.5742 0.78516-0.16797 0.054688v0.11328c0.11328 0.44922 0.16797 0.89453 0.16797 1.3438v0.28125 6.832 1.9609l8.8477-2.1836 1.793-0.61719c0.050781 0.054688 17.523-14.227-8.4023-8.2344zm-5.1523 0.95312c0.054688 0.054688 0.11328 0 0.16797 0v-0.054687c-0.058594 0-0.11328 0-0.16797 0.054687zm-163.41 55.496h0.22266c-0.054688-0.054687-0.16406-0.054687-0.22266 0zm-79.406 26.656c0.72656 0.054688 1.457 0.11328 2.2383 0.11328 1.793 0.054687 3.7539 0 5.7109-0.22266-2.4609 0.054688-5.1484 0.10938-7.9492 0.10938zm-25.648-29.121c-0.28125-0.44922-0.22266-0.28125-0.054687 0.11328 0.11328 0.33594 0.33594 0.72656 0.50391 1.1211 0.054687-0.054688 0.16797-0.054688 0.22266-0.054688-0.28125-0.39453-0.50391-0.78516-0.67188-1.1797zm321.5-91.559c-0.11328-3.0234-0.55859-5.7695-1.2305-8.3984l-0.22266-1.0078-0.28125-1.0078c-0.16797-0.61719-0.39062-1.3438-0.55859-1.8477-0.39062-1.1211-0.72656-2.2383-1.1211-3.4141-0.72656-2.2969-1.457-4.7617-2.2383-7.5586l0.44922 1.1758c-1.0078-3.8633-3.4727-11.199-5.4336-18.145 0.44922 1.8477 0.67188 3.1367-0.55859-0.78516-2.2969-8.0625-4.1445-13.496-5.7109-19.434l-1.9609-5.543c-2.1289-7-5.8789-19.152-10.359-33.879-2.2383-7.3359-4.7031-15.344-7.2812-23.688-0.16797-0.50391-0.33594-1.0625-0.50391-1.5664-0.16797-0.61719-0.39062-1.1758-0.61719-1.793-0.16797-0.61719-0.44922-1.1758-0.67188-1.793-0.22266-0.61719-0.50391-1.1758-0.72656-1.793-1.0625-2.3516-2.2969-4.5938-3.8086-6.7773-2.9102-4.3125-6.6641-8.1211-10.863-11.199-4.2578-3.0781-9.0156-5.375-14-6.832-4.9844-1.457-10.191-2.0156-15.176-1.6797-2.5195 0.16797-4.9844 0.50391-7.3906 1.0625-0.61719 0.11328-1.1758 0.28125-1.793 0.44922-0.55859 0.16797-1.2305 0.33594-1.6797 0.50391-1.0078 0.28125-2.0156 0.61719-3.0234 0.89453-3.9766 1.2305-7.7852 2.4062-11.48 3.5273-14.727 4.5352-26.879 8.2891-33.938 10.414l1.1211-0.39063c-42.676 13.383-130.6 40.152-174.73 54.039-6.8867 1.8477-16.352 4.7617-23.52 6.8867 3.9766-1.1211 2.6875-0.50391-0.39062 0.44922-0.33594 0.11328-0.72656 0.22266-1.0625 0.33594-0.33594 0.11328-0.72656 0.22266-1.0625 0.33594-0.67188 0.22266-1.2891 0.50391-1.9023 0.72656-0.55859 0.22266-1.1211 0.44922-1.625 0.67188s-0.95312 0.44922-1.3984 0.61719c-1.6797 0.83984-2.7422 1.5117-3.5273 1.9609-1.5117 1.0078-1.6797 1.1211-1.8477 1.2891-0.16797 0.16797-0.33594 0.33594-1.793 1.457-0.33594 0.28125-0.78516 0.61719-1.2891 1.0625-0.50391 0.44922-1.1211 1.0078-1.793 1.625-1.3438 1.2891-3.0781 3.0781-5.0391 5.6562-2.2383 2.9688-4.9297 7.3906-6.7773 13.105-0.054688 0.11328-0.054688 0.22266-0.11328 0.39063 0.50391-0.11328 1.0625-0.22266 1.6797-0.33594 0.50391-0.11328 1.0078-0.16797 1.3984-0.22266l0.33594-0.054688h0.054688c0.11328 0 0.22266-0.054687 0.33594-0.054687 0.44922-0.054688 1.0625-0.16797 1.7344-0.16797 0.16797 0 0.28125 0 0.44922-0.054688 0.50391-0.054687 1.1211-0.11328 1.7344-0.11328 0.39062 0 0.72656 0 1.1211-0.054687h0.11328 1.0078 0.72656v-0.28125h2.0156c1.1758-2.2969 2.7422-4.4805 3.9766-5.543 0 0 0.16797-0.33594 0.33594-0.67188s0.33594-0.67188 0.33594-0.67188 0.44922-0.44922 0.89453-0.83984c0.22266-0.22266 0.44922-0.39062 0.61719-0.55859 0.16797-0.16797 0.28125-0.22266 0.28125-0.22266 1.8477-1.9023 3.5273-3.1914 4.8164-4.0898 0.33594-0.22266 0.67188-0.44922 0.95313-0.61719s0.55859-0.33594 0.83984-0.50391c0.50391-0.33594 0.95312-0.55859 1.3438-0.78516 0.78516-0.44922 1.2891-0.67188 1.6797-0.83984 0.39062-0.16797 0.61719-0.28125 0.83984-0.33594 0.22266-0.054687 0.39063-0.16797 0.72656-0.28125 0.33594-0.11328 0.72656-0.28125 1.457-0.44922 1.625-0.50391 4.4805-1.3438 9.8555-2.9688 12.207-3.8086 18.031-6.0469 24.863-7.9531-1.1758 0.33594-2.9102 0.67188-0.11328-0.28125 0.67188 0.11328 8.5664-2.8555 10.246-3.0234 3.1367-1.0078 13.215-4.0312 10.023-3.4727 2.1289-0.44922 10.754-2.9688 5.4883-1.2305 3.0781-0.95312 6.1602-1.793 8.3438-2.5742l-4.0312 1.1211c10.473-3.2461 16.297-4.7031 23.016-7.1133l-3.9219 1.0078c6.2734-1.9609 11.48-3.5859 14.113-3.9219l-6.3828 2.0703c10.414-3.1914 16.688-5.0977 25.258-7.9531l-3.0781 0.95312c10.922-3.7539 68.602-21.672 78.625-25.312l-4.7617 1.1211 8.5664-2.9102c-1.0078 0.39062-3.4141 1.9609-4.4805 2.3516 4.7617-1.457 14.281-4.3672 26.098-8.0078 6.0469-1.8477 12.656-3.8633 19.602-5.9922 1.7344-0.50391 3.4727-1.0625 5.2656-1.625 0.89453-0.28125 1.793-0.55859 2.6328-0.83984l2.0156-0.61719 0.61719-0.16797c3.1367-0.89453 6.4961-1.3438 9.8008-1.2891 6.6094 0.054688 13.16 2.2383 18.48 5.7695 5.3203 3.5273 9.2383 8.3438 11.648 13.215 0.33594 0.61719 0.55859 1.2305 0.83984 1.8477 0.28125 0.61719 0.50391 1.2305 0.72656 1.8477 0.22266 0.61719 0.39062 1.2305 0.61719 1.8477v0.11328c1.6797-0.33594 3.3594-0.78516 4.5938-0.33594-1.6797 0.61719-3.1367 0.72656-4.5938 0.39062 0.11328 0.33594 0.22266 0.72656 0.33594 1.0625l-0.28125 0.11328c-2.1836 0.28125-2.8555 1.3984-2.9688 0.61719l2.8555-0.78516c-2.1289 0.44922-0.78516-0.39062-0.11328-1.0078-0.89453 0.16797-1.7344 0.39062-2.5195 0.33594-0.33594 0.39062 0.39062 0.22266 0.78516 0.28125-1.0078 0.61719-2.3516 1.7344-3.8086 1.793-2.1289 0.55859-0.50391-1.1211-2.9688-0.44922-13.16 3.4141-26.039 6.4414-39.145 10.641-0.39063-0.22266 0-0.28125 0.33594-0.55859-3.8633 1.5117-7.4492 2.4648-10.922 3.9219-1.0625 0-1.5117-0.33594-1.9023-0.55859 0.16797 0.55859-19.77 6.7188-20.16 6.6641l0.16797 1.3438c-3.9219 1.2305-1.5664-1.1211-5.0977 0.28125-0.83984 2.2383-6.0469 1.625-7 2.9688 0-0.16797-1.793 0.33594-1.8477-0.28125-0.22266 1.1758-1.7344 0.78516-2.8008 1.3984-0.33594 0.39062 0.39062 0.22266 0.78516 0.39062l-2.4648 1.1211c-1.1211 0-1.5117-0.50391-0.44922-0.95312-6.7773 1.6797-39.09 10.527-46.145 13.16 1.1758 0.44922 3.2461-0.72656 4.4258 0.16797-1.6797 1.2305-2.8555 0.61719-3.4727 1.5664-1.2891-1.5117-4.3125 0.83984-6.2734-0.44922l-0.22266 1.1211-1.1211-0.33594c-8.0625 3.5859-1.7344 1.0625-9.2383 3.0781-4.1445 1.3984-5.7695 3.3594-8.2305 3.6406 0.44922 0 1.1758 0.33594 0.28125 0.83984-0.44922-0.83984-2.7422 1.5117-3.5859 0.83984-1.0625 0.44922-4.5938 1.3984-3.0781 2.2383-0.78516-0.39062-3.9766 0.28125-2.2969-0.78516-1.0625 0.28125-2.1836 0.44922-2.8555 0.95312l1.457-0.11328c-3.5273 1.2891-5.7695 0.95313-7.7852 2.7422l1.457 0.054688c-2.1289 0.72656-3.8633 1.3438-5.0977 0.44922l2.0703-1.0078c-3.5273 1.1211-5.6562 1.8477-8.457 3.3594l1.0625-0.28125c-3.0234 2.0156-18.312 7.6719-24.078 10.695 21.672-0.054687 44.52-0.054687 65.238-0.11328h17.586c6.1055 0 12.32 0 18.258-0.054688 11.648-3.3594 24.305-6.7188 28.785-7.6719 3.7539-2.4062 9.1836-3.1367 12.992-5.0977l-0.33594 0.39062c4.1992-1.7344 29.121-8.1758 34.047-10.137l-0.72656 0.054687c4.1992-2.0703 3.9766-0.61719 7.5586-1.2891-0.83984-1.1758 2.6875-3.0781 4.0898-3.5859l0.054688 0.28125c2.1289-0.89453 6.6641-3.5273 10.191-4.7617l0.054688 0.72656c2.7422-1.6797 8.457-3.0781 10.586-3.8086 4.9844-1.2305 12.938-2.2969 19.207-5.207l1.2891 0.16797c-0.054687-0.16797-0.11328-0.39062-0.16797-0.61719 0.054688 0.16797 0.11328 0.39062 0.22266 0.61719l0.28125 0.054688 0.22266 0.78516c0.44922 1.6797-0.11328 0.28125-0.50391-0.83984h-0.054687c0.89453 2.9102 1.625 5.543 1.8477 5.7109-1.1211-3.9766-0.22266-2.4062-0.50391-4.1992l2.8008 9.2969-0.39062-0.33594c0.61719 2.0703 2.2383 5.0391 4.9297 14.223 4.5938 15.457 9.8008 32.145 14.449 47.656-0.22266-0.22266-1.2891-3.4141-2.3516-6.6641 0.61719 2.0703 1.625 5.207 2.1289 7.168-0.78516-3.2461 1.3438 3.7539 1.5117 4.0312 0-0.054687-0.054688-0.16797-0.11328-0.55859 0.50391 1.3984 1.0078 2.8555 1.5117 4.3672 0.11328 0.39062 0.22266 0.72656 0.39062 1.1211 0.11328 0.39062 0.28125 0.78516 0.33594 1.0625 0.22266 0.67188 0.44922 1.3984 0.55859 2.1289 0.39062 1.3984 0.55859 2.9102 0.72656 4.3672 0.11328 1.457 0.22266 2.9688 0.11328 4.4805-0.16797 5.9375-2.1289 11.535-4.1992 15.734 0 0.11328 0 0.55859-0.054688 1.2305-0.054687 0.33594-0.11328 0.72656-0.16797 1.1758-0.054687 0.44922-0.11328 0.95312-0.22266 1.5117-0.39062 2.1836-1.1758 5.0391-2.4062 7.8398-1.1758 2.8008-2.8008 5.543-4.1992 7.5586-0.67188 1.0078-1.3438 1.8477-1.7344 2.4648-0.44922 0.61719-0.67187 0.95312-0.67187 1.0078-0.83984 0.44922-1.6797 0.83984-2.5195 1.2305-0.39062 0.16797-0.78516 0.33594-1.1758 0.50391-0.39062 0.16797-0.78516 0.28125-1.1211 0.44922-0.33594 0.16797-0.72656 0.28125-1.0078 0.39063-0.33594 0.11328-0.61719 0.16797-0.89453 0.28125-0.55859 0.16797-0.95313 0.28125-1.2305 0.39062 0.50391-0.11328 2.5195-0.61719 4.7617-1.5664 2.2969-0.89453 4.7617-2.3516 6.3828-3.4141l0.39062-0.67188c0.95312-0.61719 1.625-1.1758 2.1836-1.5664 0.55859-0.44922 0.95312-0.72656 1.2305-0.95312 0.61719-0.44922 0.78516-0.61719 1.0078-0.78516s0.39062-0.28125 1.0078-0.72656c0.28125-0.22266 0.61719-0.55859 1.1211-1.0078 0.22266-0.22266 0.50391-0.50391 0.83984-0.78516 0.28125-0.33594 0.61719-0.67188 1.0078-1.0625 0.28125-0.11328-0.95312 1.3984-3.0234 3.4141-1.9609 1.8477-4.8164 3.9766-7.7266 5.6562 2.6328-1.457 5.0977-3.1914 7.0547-4.8164 2.1289-1.793 3.6406-3.4727 4.4258-4.5352 2.0156-2.2383 1.9023-2.1289 2.0156-2.0703 0 0.054687 0.054688 0.054687 0.39062-0.33594 0.33594-0.39062 0.95312-1.1211 2.0156-2.6328 1.3984-2.2383 2.8008-4.9297 3.9219-7.8398 1.1211-2.9102 2.0156-6.0469 2.6328-8.9609v0.11328c0.60547-3.3984 0.77344-6.6445 0.66016-9.668z"/>
  <path d="m508.93 154.22c-1.6797 0.61719-3.1367 0.72656-4.5938 0.39062v-0.054687c1.6797-0.33594 3.418-0.78125 4.5938-0.33594z"/>
  <path d="m508.93 154.22c-1.6797 0.61719-3.1367 0.72656-4.5938 0.39062h-0.11328 0.11328c1.6797-0.39062 3.418-0.83594 4.5938-0.39062z"/>
  <path d="m282.3 225.01c-0.054687 0-0.054687 0-0.11328 0.054688 0.054687-0.054688 0.054687-0.054688 0.11328-0.054688z"/>
  <path d="m513.02 184.97c-0.11328-0.22266-0.16797-0.39062-0.22266-0.61719 0.054687 0.16797 0.16797 0.39063 0.22266 0.61719z"/>
  <path d="m459.87 438.2-0.054688-0.16797-0.054687-0.39062 0.054687 0.39062 0.50391 2.7422zm-4.8164 0.44922v0.11328z" fill="#fff"/>
  <path d="m485.18 387.35v0.55859s0-0.16797 0.054687-0.55859zm-30.129 51.297v0.11328zm18.48-6.1055c-0.50391 0.28125-0.89453 0.50391-1.2891 0.72656-0.39062 0.22266-0.72656 0.39062-1.0078 0.55859-0.61719 0.28125-1.0078 0.50391-1.3984 0.67188-0.67188 0.28125-0.89453 0.33594-1.1758 0.44922-0.22266 0.054687-0.50391 0.16797-1.1758 0.44922-0.33594 0.11328-0.83984 0.33594-1.457 0.55859-0.67188 0.22266-1.457 0.55859-2.5195 0.83984l-0.55859 0.50391c-0.83984 0.28125-1.9023 0.55859-3.0781 0.78516l-0.054688-0.39063 0.054688 0.39063 0.50391 2.7422-0.44922-2.5742c3.5273-0.72656 7.168-2.0156 9.7422-3.3047 2.5195-1.3398 4.0898-2.4062 3.8633-2.4062zm22.289-116.76h0.11328v-0.054687c-0.11328-0.003907-0.16797 0.054687-0.11328 0.054687zm2.8008-1.1211 0.11328 0.33594h0.054688v-0.39062c-0.058594 0-0.11328 0-0.16797 0.054687zm-64.906 112.39h0.11328zm-0.054688 0s-0.054687 0 0 0c-0.054687 0 0 0 0 0h0.054688-0.054688zm-0.28125 0h0.16797zm-205.07-184.63v0h0.11328c-0.058593 0.054688-0.058593 0-0.11328 0z"/>
  <path d="m496.21 383.15-0.054688-1.2305c-0.054687 2.8555-0.054687 5.4336-0.054687 7.8398 0 1.2305 0.054687 2.4062 0.054687 3.5859v1.9609 1.0078l-0.054687 1.0078c-0.16797 2.7422-0.55859 5.4883-1.2891 8.3984-0.78516 2.9102-1.9023 5.9922-3.6406 9.1836v-0.11328c-1.457 2.6328-3.1914 5.3203-5.1523 7.7852-1.9023 2.4648-4.0312 4.6484-6.0469 6.3828-1.457 1.1211-2.2383 1.6797-2.6875 1.9023-0.28125 0.16797-0.39062 0.22266-0.44922 0.22266h-0.054688s0-0.054688-0.054687-0.054688c-0.11328 0-0.50391 0.22266-2.4648 1.3984-1.0625 0.78516-3.0234 2.0156-5.543 3.0781-2.5195 1.0625-5.6016 2.0703-8.793 2.6875 3.5273-0.72656 7.168-2.0156 9.7422-3.3047s4.1445-2.3516 3.8633-2.3516c-0.50391 0.28125-0.89453 0.50391-1.2891 0.72656-0.39062 0.22266-0.72656 0.39062-1.0078 0.55859-0.61719 0.28125-1.0078 0.50391-1.3984 0.67188-0.67188 0.28125-0.89453 0.33594-1.1758 0.44922-0.22266 0.054688-0.50391 0.16797-1.1758 0.44922-0.33594 0.11328-0.83984 0.33594-1.457 0.55859-0.67188 0.22266-1.457 0.55859-2.5195 0.83984l-0.55859 0.50391c-0.83984 0.28125-1.9023 0.55859-3.0781 0.78516l-0.054688-0.39062c0.11328-0.11328 0.28125-0.22266 0.50391-0.39062 0.61719-0.44922 1.457-1.0625 2.4062-1.793 1.9023-1.5117 4.2578-3.6406 6.2148-5.9922 1.9609-2.3516 3.5859-4.8711 4.5938-6.832 0.28125-0.50391 0.50391-0.95312 0.67188-1.3438 0.16797-0.39062 0.33594-0.78516 0.50391-1.1211 0.22266-0.67188 0.39062-1.0625 0.44922-1.1758 3.2461-3.3594 6.7188-8.1758 8.625-13.777 0.50391-1.3984 0.83984-2.8555 1.1758-4.3125 0.28125-1.457 0.50391-2.9102 0.55859-4.3672 0.054687-0.72656 0.054687-1.457 0.054687-2.1836v-1.1211-1.1758c-0.054687-1.5664-0.11328-3.1367-0.16797-4.5938h-0.054687c0-0.89453 0-2.6328-0.054688-3.6953 0-0.55859-0.054687-0.89453-0.054687-0.89453s-0.054688 0.22266-0.11328 0.83984c0.11328-2.0156 0.054688-5.3203 0.054688-7.5039 0.11328 3.4141 0.16797 6.832 0.33594 7.0547 0.054687-16.184-0.054688-33.711 0.054687-49.84v-3.8086c-0.054687-5.8242-0.44922-8.625-0.55859-10.473v-0.78516l0.28125 0.44922 0.054688-9.7422c-0.28125 1.7344-0.67188 0-0.78516 4.1445-0.16797-0.28125-0.054687-3.3047-0.054687-6.6094 0.054687 0.83984 0.16797 2.4062 0.22266 2.4062 0.054688 0 0.054688-0.22266 0.054688-0.78516 0-7.5586-0.16797-2.5195-0.33594-11.367 0.054688 0.054687 0.16797 2.4062 0.33594 2.4062 0.11328 0 0.16797-0.83984 0.22266-3.6406 0-2.2383 0.054687-5.8242 0.054687-10.414v-7.5586-2.0703c0-0.61719 0-1.2891-0.054687-1.9609-0.054687-0.61719-0.11328-1.2891-0.16797-1.9609-0.11328-0.67188-0.16797-1.3438-0.28125-2.0156-0.89453-5.375-3.2461-11.09-7.2812-16.016-4.0312-4.9297-9.6875-8.8477-15.961-10.863-3.1367-1.0078-6.4414-1.5664-9.7422-1.625h-2.6875-2.8008-5.4883c-7.2812 0-14.168 0-20.496 0.054687-12.375 0-22.289 0.054688-27.273 0.054688 1.1211-0.054688 3.8633-0.83984 4.9297-0.89453l-9.0156 0.28125 4.9297 0.33594c-7 0.33594-35.617 0.61719-57.625 0.83984-11.426 0.11328-21 0.28125-24.977 0.39062h3.2461c-9.0703 0.22266-15.625 0.22266-26.488 0.28125l6.7188-0.11328c-1.9023-0.28125-5.4883-0.39062-9.8555-0.39062h-4.7617l4.0312 0.16797c-2.7422 0.16797-5.3203 0.16797-8.0625 0.16797-3.7539 0-7.7852-0.054687-13.047-0.054687h-2.9688l4.1445 0.11328c-1.0078 0.054687-2.1289 0.054687-3.3047 0.054687-1.6797 0-3.5273 0-5.4336-0.054687 5.6016-0.16797-3.4141-0.28125-5.6016-0.44922 3.1914 0.39062-7.3359 0.33594-10.641 0.39062-0.39063-0.054687-1.2305-0.11328-2.2383-0.11328-2.1289 0-5.0391 0.11328-6.832 0.11328-0.67188 0-1.1758 0-1.457-0.054687-0.11328 0-0.16797 0-0.16797-0.054688-2.8555 0.054688-1.2305 0.22266 0 0.28125h-2.6875c-6.0469 0-12.266 0.33594-23.352 0.39062-4.9844 0-7.8945-0.054687-9.6875-0.054687h-0.55859c-0.72656 0-1.1758 0-1.5117 0.054687-0.33594 0-0.55859 0-0.78516 0.054687-0.22266 0-0.50391 0.054688-0.89453 0.11328-0.39062 0.054687-0.95312 0.11328-1.8477 0.28125-0.44922 0.054687-0.95312 0.16797-1.5117 0.33594-0.28125 0.054688-0.61719 0.16797-0.95313 0.22266-0.33594 0.11328-0.72656 0.22266-1.0625 0.33594-0.72656 0.22266-1.5117 0.50391-2.3516 0.83984-1.0625 0.44922-2.1836 0.95312-3.4727 1.625 0 0-0.16797 0.054687-0.33594 0.16797-0.22266 0.11328-0.44922 0.22266-0.72656 0.33594-0.55859 0.22266-1.0625 0.55859-1.0625 0.55859s-0.22266 0.28125-0.50391 0.50391c-0.28125 0.28125-0.50391 0.50391-0.50391 0.50391-1.6797 0.78516-4.1992 2.7422-6.1055 4.9297-1.9609 2.1289-3.4141 4.4258-4.1445 5.0977-0.22266 0.50391-0.50391 1.0078-0.72656 1.5117-0.11328 0.28125-0.28125 0.55859-0.44922 0.83984s-0.28125 0.61719-0.44922 0.95312c-0.61719 1.3438-1.2891 3.0234-1.793 5.4336 0.44922-1.0078 1.0078-2.8555 1.8477-4.7031 0.78516-1.793 1.793-3.5273 2.5195-4.4805-0.28125 0.50391-0.61719 1.0625-0.95312 1.625-0.28125 0.61719-0.67188 1.2891-0.95312 2.0156-0.67188 1.457-1.3438 3.1367-1.793 5.0977-0.50391 1.9023-0.89453 4.0898-1.0078 6.4414 0 0.55859-0.054688 1.1758-0.054688 1.793v2.1836 4.5938c0 12.602-0.054687 27.551-0.054687 42.449-0.11328 29.793-0.22266 59.359-0.22266 69.609v-0.28125-0.28125-0.50391c0-0.28125 0-0.50391-0.054688-0.72656 0-0.28125-0.054688-0.39063-0.054688-0.39063-0.054687 0.054688-0.054687 0.33594-0.11328 0.78516-0.054687 0.44922-0.054687 1.1211-0.054687 1.6797 0 0 0 0.39062 0.054687 1.0078 0.054688 0.33594 0.054688 0.67188 0.11328 1.0625 0 0.16797 0.054688 0.39062 0.054688 0.61719 0 0.22266 0.054688 0.39062 0.11328 0.61719 0.22266 1.5664 0.55859 3.0234 0.61719 3.1914-0.054688-0.39062-0.11328-1.0078-0.16797-1.3984 0-0.22266-0.054688-0.39062 0-0.39062 0 0 0.054688 0.11328 0.11328 0.28125 0.28125 1.3984 0.61719 2.9102 1.0078 4.1992 0.39062 1.2891 0.83984 2.3516 1.2891 2.9102-0.054687 0 0 0.22266 0.11328 0.55859 0.11328 0.33594 0.33594 0.83984 0.55859 1.3438 0.44922 1.0078 1.0078 1.9609 0.95312 1.9609 0.44922 0.67188 1.2305 1.793 2.1836 3.0781 0.95312 1.2891 2.1836 2.7422 3.5273 4.0898 1.3438 1.3438 2.8555 2.5195 4.2578 3.4727 0.72656 0.44922 1.3438 0.83984 1.9609 1.1211 0.61719 0.28125 1.1211 0.50391 1.5664 0.67188 0.50391 0.28125 1.0078 0.44922 1.3984 0.67187 0.39062 0.16797 0.78516 0.33594 1.1211 0.44922 0.67188 0.28125 1.1211 0.44922 1.5117 0.61719 0.72656 0.28125 1.0078 0.44922 1.2891 0.55859 0.28125 0.11328 0.61719 0.28125 1.457 0.55859 0.83984 0.22266 2.2383 0.67188 4.7617 0.89453l0.67188-0.39063c0.054687 0 0.28125 0.054688 0.72656 0.054688 0.44922 0 1.0625 0.054688 1.793 0.054688h7.3359 21.672c15.398 0 30.406-0.054688 29.961-0.16797 0.89453 0.11328 1.7344 0.22266 4.7617 0.33594 11.031-0.054687 21.84-0.11328 33.992-0.16797-1.1758 0.054687-2.2383 0.054687-1.3438 0.16797h10.473c36.566 0 71.902 0.28125 108.3 0.44922 7.5586 0 1.5117 0.39062 7.9531 0.44922 0.78516 0 1.5664 0.054687 2.4062 0.054687 3.4727 0 7.1133-0.16797 9.8555-0.22266-1.0078-0.054687-3.1367-0.054687-1.9023-0.16797 2.0703 0.054688 4.5352 0.11328 7.168 0.11328-2.4648 0.16797-6.4961 0.28125-0.33594 0.33594l-8.625-0.054687c-0.16797 0.11328 0.054688 0.11328 0.61719 0.11328 0.83984 0 2.4648-0.054688 4.9297-0.054688 0.95312 0 2.0156 0 3.2461 0.054688h5.2656l-0.44922 0.28125c4.1445 0.28125 7.1133 0.72656 9.2383 1.2891 0.054688 0 0.054688 0 0.11328 0.054688 11.09 3.0234-3.6953 9.0156-3.6953 9.0156l-1.9023 0.054687-12.992-0.72656c-5.375 0.11328-10.977 0.11328-16.633 0.11328-15.344 0-30.688-0.28125-41.664-0.33594h-3.1367-8.8477c-7.2227 0-15.512 0-20.945 0.16797l0.44922-0.22266c-10.977 0.054687-25.984 0.44922-32.648 0.50391l0.16797-0.11328c-4.4258 0.054688-15.961 0.28125-14.559 0.72656-8.3438-0.11328-8.9609-0.39062-15.398-0.39062-1.7344 0-3.9219 0-6.832 0.054687l2.0703 0.054687c-2.6328 0-7 0.054688-12.488 0.054688-10.641 0-25.535-0.054688-40.32-0.054688-5.6016 0-11.199 0-16.52-0.054687h-7.7852-1.9609c-0.67187 0-1.3984 0-2.0703-0.11328-1.3438-0.054688-2.6875-0.22266-3.9766-0.44922-2.5742-0.39062-4.9297-1.0078-7.1133-1.7344-1.0625-0.33594-2.1289-0.78516-3.0781-1.1758-0.95312-0.44922-1.9023-0.83984-2.7422-1.2891-3.2461-1.625-5.6562-3.3047-7.1133-4.4805 0.11328 0.054687 0.28125 0.16797 0.39063 0.28125 0.22266 0.16797 0.44922 0.28125 0.55859 0.33594-2.8555-1.9609-5.6016-4.5352-8.0625-7.4492-2.4648-2.9688-4.6484-6.3828-6.2734-10.023-1.6797-3.6406-2.8008-7.5586-3.4141-11.426-0.11328-0.95313-0.28125-1.9023-0.33594-2.9102-0.054688-0.50391-0.11328-0.95312-0.11328-1.457s-0.054687-0.95312-0.054687-1.3984c-0.054687-1.6797-0.11328-3.3594-0.16797-4.9844 0.11328-11.762 0.28125-42.953 0.33594-74.535 0-7.8945 0-15.848 0.054687-23.465v-11.199-5.4336c0.054688-1.0078 0-1.9609 0.11328-2.9688 0.054688-0.50391 0.054688-0.95312 0.11328-1.457 0.054687-0.50391 0.11328-0.95312 0.16797-1.457 1.0625-7.6172 4.0312-14.223 7.5039-19.152 3.4727-4.9297 7.2812-8.3438 10.305-10.586 2.6328-1.9023 4.8164-3.0781 6.4961-3.9766 0.83984-0.39062 1.5664-0.72656 2.1836-1.0078 0.61719-0.28125 1.1211-0.44922 1.5664-0.61719 1.6797-0.67188 1.9609-0.72656 2.1289-0.83984 0.22266-0.11328 0.39062-0.16797 1.9609-0.61719 0.054687 0 0.11328-0.054688 0.16797-0.054688 0.89453-0.22266 2.1289-0.55859 3.9766-0.83984 0.44922-0.11328 0.95312-0.16797 1.5117-0.22266s1.1211-0.16797 1.7344-0.16797c0.61719-0.054687 1.2891-0.11328 2.0156-0.11328 0.33594 0 0.72656 0 1.1211-0.054688h1.0078 0.44922c3.0234 0 4.2578-0.16797 0.22266-0.28125 7.4492 0.054688 17.359 0 24.473 0.28125 12.824-0.11328 29.121-0.16797 46.984-0.22266 32.93-0.11328 71.062-0.16797 102.03-0.16797 12.824 0 24.414-0.054688 33.879-0.054688l-1.1758 0.054688c7.3359 0 20.047-0.054688 35.504-0.11328 3.8633 0 7.8945 0 12.039-0.054687h3.1367 0.28125 1.457c0.61719 0 1.2305 0.054687 1.8477 0.11328 2.4648 0.16797 4.9297 0.50391 7.3906 1.1211 4.9297 1.1758 9.6875 3.1914 14.055 6.0469 4.3672 2.8008 8.2305 6.4414 11.367 10.586 3.1914 4.1992 5.6016 8.9023 7.168 13.887 0.78516 2.4648 1.2891 5.0391 1.625 7.5586 0.054687 0.61719 0.16797 1.2891 0.22266 1.9023 0.054688 0.61719 0.11328 1.2891 0.11328 1.9023 0 0.61719 0 1.2891 0.054688 1.9023v1.625c0 8.6797 0.054688 17.078 0.054688 24.809v7.7852 5.8789 0.28125c-0.11328 0.054688-0.16797 0.11328-0.11328 0.11328h0.11328v0.054687 0.054687 2.6875 2.8008 4.9297 10.863l0.28125 5.8789c-0.22266 6.1602-0.054688 11.871-0.22266 20.273 0 1.9609 0.054688 2.6875 0.11328 2.6875 0.054688 0 0.11328-0.61719 0.16797-1.457-0.17969 6.9375-0.011719 14.496-0.17969 18.418z"/>
  <path d="m282.18 225.06c0.054687 0 0.054687 0 0.11328-0.054688-0.058594 0-0.058594 0-0.11328 0.054688zm191.35 207.48c-0.50391 0.28125-0.89453 0.50391-1.2891 0.72656-0.39062 0.22266-0.72656 0.39062-1.0078 0.55859-0.61719 0.28125-1.0078 0.50391-1.3984 0.67188-0.67188 0.28125-0.89453 0.33594-1.1758 0.44922-0.22266 0.054687-0.50391 0.16797-1.1758 0.44922-0.33594 0.11328-0.83984 0.33594-1.457 0.55859-0.67188 0.22266-1.457 0.55859-2.5195 0.83984l-0.55859 0.50391c-0.83984 0.28125-1.9023 0.55859-3.0781 0.78516l0.50391 2.7422-0.44922-2.5742c3.5273-0.72656 7.168-2.0156 9.7422-3.3047 2.5195-1.3398 4.0898-2.4062 3.8633-2.4062zm22.289-116.76h0.11328v-0.054687c-0.11328-0.003907-0.16797 0.054687-0.11328 0.054687zm2.8008-1.1211 0.11328 0.33594h0.054688v-0.39062c-0.058594 0-0.11328 0-0.16797 0.054687zm0.78125-0.28125s-0.054688 0-0.054688 0.054688c0.054688 0 0.11328-0.054688 0.16797-0.054688h-0.11328zm2.1875 0.89844v-1.5117c-0.11328 0.054688-0.16797 0.054688-0.28125 0.054688-0.61719 0.16797-1.1758 0.33594-1.793 0.50391 0.61719-0.11328 1.1758-0.28125 1.793-0.44922l0.054688 0.28125v0.11328c0.11328 0.44922 0.16797 0.89453 0.16797 1.3438 0.058594-0.058594 0.058594-0.16797 0.058594-0.33594zm-67.875 111.77h0.11328zm-0.054688 0s-0.054687 0 0 0c-0.054687 0 0 0 0 0h0.054688-0.054688zm-205.35-184.63v0h0.11328c-0.058593 0.054688-0.058593 0-0.11328 0zm205.3 184.63s0.054687 0 0 0c0.054687 0 0 0 0 0zm-205.3-184.63v0h0.11328c-0.058593 0.054688-0.058593 0-0.11328 0zm245.22 190.12c-0.50391 0.28125-0.89453 0.50391-1.2891 0.72656-0.39062 0.22266-0.72656 0.39062-1.0078 0.55859-0.61719 0.28125-1.0078 0.50391-1.3984 0.67188-0.67188 0.28125-0.89453 0.33594-1.1758 0.44922-0.22266 0.054687-0.50391 0.16797-1.1758 0.44922-0.33594 0.11328-0.83984 0.33594-1.457 0.55859-0.67188 0.22266-1.457 0.55859-2.5195 0.83984l-0.55859 0.50391c-0.83984 0.28125-1.9023 0.55859-3.0781 0.78516l0.054688 0.16797c3.5273-0.72656 7.168-2.0156 9.7422-3.3047 2.5195-1.3398 4.0898-2.4062 3.8633-2.4062z" fill="#fff"/>
  <path d="m228.43 242.48h-0.11328c0.054688-0.054688 0.054688 0 0.11328 0z"/>
  <path d="m495.99 315.67v0.054687h-0.11328c-0.10938 0.058594-0.054687 0 0.11328-0.054687z"/>
  <g>

  </g>
 </g>
</svg>
