<svg width="539" height="430" viewBox="0 0 539 430" fill="none" xmlns="http://www.w3.org/2000/svg">
<path d="M403.612 355.787C402.565 355.412 400.773 355.412 399.133 355.339C400.477 355.636 401.82 355.787 403.612 355.787Z" fill="black"/>
<path d="M71.9453 371.467H73.362C72.8411 371.389 72.3932 371.389 71.9453 371.467Z" fill="black"/>
<path d="M402.492 369.973L401.82 370.046L397.492 369.077C390.773 369.525 383.008 368.926 378.003 368.781C375.763 368.781 370.013 368.708 366.951 369.005L367.102 368.708C363.445 368.781 358.367 369.307 356.201 369.452L356.274 369.301C354.779 369.374 350.971 369.676 351.419 370.27C347.836 370.119 348.508 369.525 343.951 369.822L344.622 369.895C339.471 370.119 314.232 369.598 309.825 369.822L310.273 369.671C306.169 370.046 300.867 369.598 296.612 370.119C288.773 369.822 254.8 369.447 245.914 369.744C238.222 369.895 245.315 370.192 237.701 370.119C236.581 370.119 236.133 370.343 237.55 370.494C235.013 370.421 231.727 370.494 229.336 370.119C213.877 370.64 183.117 370.567 168.107 370.791L168.482 370.718C165.721 370.718 160.789 370.791 154.82 370.869C151.534 370.869 147.878 370.942 144.143 371.02C130.555 371.171 115.769 371.317 110.17 371.317L108.227 371.692C106.139 371.395 104.269 371.619 101.43 371.395C99.9357 371.468 100.535 371.692 101.279 371.77C98.8158 371.546 96.2013 371.843 94.7846 371.619L95.1596 371.468C91.3523 371.093 89.1127 372.067 84.9304 371.692V371.619C83.2116 371.395 81.196 371.77 79.7012 371.843C77.6127 371.692 79.5502 371.395 77.7586 371.244C77.0138 371.619 75.144 371.395 73.2794 371.317C75.3679 371.317 77.6856 371.166 77.5346 370.796C74.9982 370.796 77.0137 370.348 74.3991 370.572L74.1751 371.02C73.0553 371.171 70.8887 371.02 70.5918 370.869C70.8887 370.942 72.0085 370.942 73.1282 370.942C73.1282 370.046 80.2949 358.322 80.6698 357.578C84.1802 357.057 89.3313 357.802 93.2895 356.979C92.2427 356.828 95.8259 356.979 94.5604 356.604C95.2322 356.755 96.3521 356.677 97.0968 356.677C95.977 356.828 94.7842 356.901 94.7061 357.125C99.8572 357.198 105.383 357.125 110.534 357.198H111.43C114.638 357.349 115.758 356.453 116.508 356.453L116.357 356.75L119.643 356.823C119.044 356.448 119.643 355.927 118.227 355.776C118.3 355.552 119.347 355.703 120.466 355.703C120.091 355.776 119.274 356 119.946 356.078C122.482 356.078 120.768 355.854 123.753 355.703C123.753 355.776 121.737 356.224 124.201 356.448C130.248 356.745 164.07 356.375 170.867 356.375C170.492 356.448 169.524 357.568 169.149 357.568L172.211 357.193L170.571 356.745C174.154 356.073 194.388 355.625 198.196 355.104H197.076C200.139 354.807 202.305 354.807 205.962 354.729L203.722 354.88C204.618 355.401 206.409 355.401 208.649 355.328L207.305 355.104C208.576 354.807 209.769 354.807 211.113 354.88C212.305 354.953 213.649 355.031 215.368 354.953L213.951 354.802C214.696 354.651 215.816 354.802 216.863 354.802C214.92 355.026 218.206 355.177 218.805 355.401C217.613 354.88 221.196 354.88 222.316 354.88C222.915 355.255 225.675 354.583 225.899 355.031C226.946 354.88 226.196 354.656 225.826 354.656C228.217 354.88 230.305 354.281 234.639 354.208C242.253 354.281 235.607 354.583 244.196 354.057L245.165 354.354L245.764 353.906C247.258 354.729 250.769 354.13 251.514 354.953C252.409 354.656 253.305 355.026 255.248 354.729C254.352 354.208 252.113 354.432 251.144 354.057C258.535 353.833 291.316 354.281 298.185 354.432C297.065 354.505 297.362 354.729 298.336 354.88L300.951 354.729C300.654 354.578 299.904 354.578 300.352 354.432C301.472 354.359 302.815 354.656 303.336 354.208C303.263 354.505 305.055 354.505 304.977 354.583C306.248 354.135 310.951 355.104 312.368 354.208C316.102 354.057 313.263 354.729 317.222 354.729L317.446 354.13C317.821 354.203 338.8 354.203 338.2 353.906C338.497 354.057 338.799 354.281 339.841 354.427C343.575 354.276 347.159 354.354 351.19 354.203C350.815 354.276 350.445 354.276 350.742 354.427C364.258 354.354 377.174 354.724 390.539 355.026C393.076 355.026 391.06 355.547 393.227 355.625C394.571 355.776 396.211 355.474 397.331 355.328C397.034 355.255 396.284 355.255 396.732 355.104C397.404 355.177 398.3 355.255 399.196 355.255C398.373 355.479 396.883 355.63 399.045 355.703H396.133C395.982 356 396.956 355.63 399.045 355.854L400.763 355.781L400.612 356.078C409.435 358.547 402.492 369.973 402.492 369.973Z" fill="black"/>
<path d="M302.519 379.68C301.774 379.305 300.503 379.305 299.311 379.232C300.279 379.529 301.248 379.68 302.519 379.68Z" fill="black"/>
<path d="M63.3594 395.36H64.3281C64.0312 395.287 63.7292 395.287 63.3594 395.36Z" fill="black"/>
<path d="M240.399 378.187L240.248 378.786C237.337 378.786 239.426 378.114 236.738 378.265C235.691 379.088 232.332 378.192 231.363 378.64C231.363 378.567 230.092 378.567 230.17 378.265C229.795 378.713 228.827 378.338 228.004 378.489C227.707 378.64 228.228 378.64 228.452 378.786L226.587 378.937C225.842 378.786 225.691 378.489 226.436 378.489C221.509 378.338 197.837 377.89 192.535 378.114C193.207 378.489 194.847 378.265 195.446 378.786C194.03 379.082 193.358 378.713 192.759 379.01C192.238 378.187 189.696 378.786 188.576 377.963L188.201 378.411L187.535 378.109C181.337 378.556 186.118 378.332 180.665 378.26C177.53 378.332 175.962 378.931 174.243 378.707C174.54 378.707 175.212 379.004 174.394 379.082C174.243 378.707 172.228 379.379 171.78 378.931C170.957 379.004 168.347 378.931 169.243 379.452C168.795 379.155 166.483 379.077 167.827 378.853C167.082 378.853 166.259 378.78 165.738 378.853L166.707 379.004C164.092 379.077 162.603 378.629 160.884 379.155L161.853 379.379C160.285 379.379 158.941 379.452 158.342 378.931L159.983 378.78C157.368 378.78 155.801 378.853 153.561 379.155H154.306C151.545 379.676 136.91 380.124 134.369 380.796L135.561 381.244L133.322 381.619C133.619 381.619 134.369 380.275 134.592 380.348C129.889 380.421 105.248 380.723 100.843 380.421C99.0514 380.197 100.546 379.749 100.546 379.676C98.3796 379.827 99.6504 380.124 97.7858 380.124C97.265 380.051 97.8588 379.827 98.1608 379.749C97.3379 379.822 96.5931 379.676 96.5931 379.822C97.5619 379.973 97.1921 380.494 97.5619 380.869L95.2493 380.796L95.3222 380.499C94.8014 380.499 93.9785 381.395 91.666 381.244C87.7857 381.093 83.5253 381.244 79.6452 381.171C79.7181 380.947 80.541 380.874 81.364 380.723C80.8431 380.723 80.0202 380.796 79.5722 380.65C80.541 381.025 77.9316 380.874 78.6764 381.025C75.8379 381.848 72.1035 381.098 69.5671 381.624C69.3431 382.369 64.114 394.166 64.114 394.988C63.2911 394.988 62.5463 394.988 62.3223 394.915C62.5462 395.139 64.0411 395.212 64.8587 395.066L65.0097 394.618C66.8742 394.467 65.4576 394.915 67.3222 394.842C67.3952 395.217 65.7545 395.29 64.2597 395.363C65.6034 395.436 66.9472 395.66 67.468 395.29C68.7388 395.441 67.3169 395.738 68.8846 395.889C70.0044 395.816 71.421 395.441 72.619 395.665V395.738C75.6816 396.113 77.2493 395.139 80.0097 395.514L79.7128 395.665C80.6816 395.889 82.6243 395.592 84.3431 395.816C83.8223 395.743 83.3744 395.441 84.4941 395.441C86.5097 395.665 87.9264 395.441 89.4212 395.738L90.8379 395.363C97.9316 395.436 125.781 394.915 132.874 394.842L132.577 394.915C143.405 394.764 165.582 394.764 176.708 394.243C178.426 394.618 180.812 394.54 182.609 394.618C181.64 394.467 181.937 394.17 182.76 394.243C188.286 394.316 183.135 394.019 188.661 393.868C195.083 393.493 219.5 393.941 225.172 394.243C228.234 393.723 232.041 394.092 235.026 393.795L234.729 393.946C237.937 393.723 256.083 394.243 259.817 394.019L259.296 393.946C262.582 393.65 262.134 394.17 264.671 394.394C264.296 393.795 267.134 393.426 268.181 393.426L268.108 393.577C269.676 393.504 273.338 392.978 276.025 392.905L275.952 393.202C278.192 392.827 282.301 392.978 283.869 392.978C287.525 393.129 293.051 393.723 297.905 393.275L301.04 394.243L301.488 394.17C301.488 394.17 306.566 382.749 300.144 380.358L300.217 380.062L298.946 380.134C297.452 379.983 296.707 380.358 296.858 380.062L298.946 380.134C297.452 380.062 298.499 379.838 299.098 379.687C298.426 379.687 297.827 379.614 297.306 379.536C297.009 379.687 297.53 379.687 297.754 379.759C296.931 379.911 295.811 380.207 294.769 380.056C293.202 380.056 294.696 379.536 292.827 379.457C283.196 379.233 273.863 378.786 264.155 378.858C263.931 378.707 264.228 378.707 264.452 378.634C261.54 378.786 258.926 378.707 256.238 378.858C255.493 378.707 255.269 378.483 255.045 378.338C255.785 378.187 240.623 378.26 240.399 378.187Z" fill="black"/>
<path d="M124.066 319.867C123.618 319.867 123.322 319.716 123.02 319.419C123.395 319.497 123.842 319.497 124.066 319.867Z" fill="black"/>
<path d="M123.759 334.053L123.608 334.126L122.639 333.158C121.072 333.605 119.28 333.007 118.16 332.861C117.639 332.861 116.296 332.788 115.624 333.085V332.71C114.801 332.783 113.608 333.309 113.087 333.454V333.303C112.712 333.376 111.816 333.678 111.967 334.272C111.296 334.121 111.296 333.673 110.697 333.751C110.4 333.23 110.098 332.704 109.874 332.184C109.499 331.585 109.577 331.809 109.801 332.335C109.952 332.783 110.249 333.303 110.473 333.829H110.4H110.249L110.4 333.902C109.207 334.126 103.379 333.605 102.337 333.829L102.41 333.678C101.441 334.053 100.244 333.605 99.2747 334.126C98.3789 333.975 96.0664 333.829 93.6758 333.678C91.2122 333.605 88.6706 333.527 87.6288 333.751C85.8371 333.902 87.4778 334.199 85.6862 334.126C85.4622 334.126 85.3112 334.35 85.6862 334.501C85.0872 334.428 84.3424 334.501 83.8216 334.126C80.2383 334.647 73.1446 334.574 69.707 334.798L69.7799 334.725C67.4673 334.798 58.582 335.324 56.3425 335.246L55.8946 335.621C55.4467 335.324 54.9988 335.548 54.3269 335.324C53.9519 335.397 54.1029 335.621 54.254 335.699C53.655 335.475 53.0613 335.772 52.7592 335.548L52.8321 335.397C51.9363 335.022 51.4154 335.996 50.4414 335.621V335.548C50.0664 335.324 49.5456 335.699 49.2487 335.772C48.7279 335.621 49.2487 335.324 48.8008 335.173C48.6498 335.621 48.2018 335.324 47.7539 335.246C48.2018 335.173 48.8008 335.095 48.7227 334.725C48.1237 334.725 48.5716 334.35 47.9779 334.501L47.9049 334.949C47.681 335.022 47.1602 334.949 47.082 334.725C47.1549 334.798 47.3789 334.798 47.681 334.798C47.681 333.902 49.3217 322.178 49.3998 321.434C50.2227 320.913 51.4154 321.658 52.3113 320.835C52.0873 320.684 52.9102 320.835 52.6081 320.46C52.7592 320.611 52.9831 320.533 53.2071 320.533C52.9102 320.684 52.6863 320.757 52.6863 320.981C53.9571 321.054 55.3008 320.981 56.5665 321.054C57.3113 321.205 57.5353 320.309 57.6863 320.309V320.606L58.4311 320.679C58.2801 320.304 58.4311 319.783 58.1342 319.632C58.1342 319.408 58.3582 319.559 58.6551 319.559C58.5822 319.632 58.3582 319.856 58.504 319.934C59.103 319.934 58.728 319.71 59.3999 319.486C59.3999 319.559 58.9519 320.007 59.4728 320.231C60.8894 320.528 68.7332 320.231 70.3009 320.158C70.228 320.231 70.004 321.429 69.9259 321.429L70.6707 321.054L70.2957 320.606C71.1186 319.934 75.8217 319.486 76.7176 318.965H76.4936C77.1655 318.668 77.6863 318.668 78.5092 318.59L77.9884 318.741C78.2123 319.262 78.5873 319.262 79.1082 319.189L78.8113 318.965C79.3321 318.445 79.8582 318.892 80.6758 318.814L80.3789 318.663C80.6029 318.512 80.8269 318.663 81.0508 318.663C80.6029 318.887 81.3477 319.038 81.4987 319.262C81.2019 318.741 82.0196 318.741 82.3217 318.741C82.4727 319.116 83.0664 318.445 83.1446 318.892C83.4415 318.82 83.2175 318.517 83.0717 318.517C83.6706 318.741 84.1185 318.142 85.1602 318.07C86.9519 318.142 85.3842 318.445 87.3998 317.918L87.6238 318.215L87.7748 317.767C88.0717 318.439 88.7436 318.142 88.9675 318.512C89.0404 318.585 89.0404 318.663 89.0404 318.809C89.2644 318.512 89.4154 318.882 89.9363 318.585C89.7123 318.064 89.1915 318.288 88.9675 317.913C90.6863 317.689 98.2279 318.137 99.7957 318.288C99.5717 318.361 99.5717 318.585 99.8686 318.736L100.468 318.585C100.395 318.434 100.244 318.434 100.316 318.288C100.613 318.137 100.915 318.512 100.988 318.064C100.988 318.288 101.363 318.361 101.363 318.439C101.66 317.991 102.78 318.887 103.082 318.064C103.905 317.913 103.306 318.585 104.202 318.585L104.275 317.986H105.098C106.514 317.986 109.056 317.913 109.056 317.762C109.129 317.913 109.207 318.059 109.431 318.21C110.327 318.059 111.15 318.137 112.046 317.986C111.973 318.059 111.895 318.059 111.973 318.21C115.108 318.137 118.098 318.507 121.155 318.809C121.754 318.809 121.306 319.33 121.754 319.408C122.051 319.559 122.426 319.257 122.723 319.111C122.65 319.038 122.499 319.038 122.572 318.887C122.723 318.96 122.947 319.038 123.171 319.038C122.947 319.262 122.65 319.413 123.171 319.486L122.499 319.413C122.499 319.788 122.723 319.34 123.171 319.486L123.546 319.413V319.788C125.405 322.632 123.759 334.053 123.759 334.053Z" fill="black"/>
<path d="M110.706 333.827C110.633 333.827 110.555 333.827 110.409 333.899C110.185 333.452 109.961 332.853 109.737 332.405C109.513 331.884 109.44 331.66 109.81 332.254C110.107 332.785 110.404 333.306 110.706 333.827Z" fill="black"/>
<path d="M225.307 319.867C224.859 319.867 224.562 319.716 224.26 319.419C224.635 319.497 225.083 319.497 225.307 319.867Z" fill="black"/>
<path d="M225.012 334.053L224.861 334.126L223.814 333.158C222.247 333.605 220.455 333.006 219.335 332.861C218.814 332.861 217.47 332.788 216.799 333.085V332.71C215.976 332.783 214.783 333.309 214.262 333.454V333.303C213.887 333.376 213.07 333.678 213.142 334.272C212.32 334.048 212.471 333.527 211.424 333.824L211.575 333.897C210.382 334.121 204.554 333.6 203.512 333.824L203.585 333.673C202.616 334.048 201.418 333.6 200.45 334.121C198.658 333.824 190.819 333.449 188.726 333.746C186.934 333.897 188.575 334.194 186.861 334.121C186.637 334.121 186.486 334.345 186.788 334.496C186.189 334.423 185.444 334.496 184.924 334.121C181.34 334.642 174.247 334.569 170.736 334.793L170.809 334.72C168.569 334.793 159.611 335.319 157.371 335.241L156.923 335.616C156.475 335.319 156.027 335.543 155.356 335.319C154.981 335.392 155.132 335.616 155.356 335.694C154.757 335.47 154.163 335.767 153.861 335.543L153.934 335.392C153.038 335.017 152.517 335.991 151.543 335.616V335.543C151.168 335.319 150.647 335.694 150.35 335.767C149.829 335.616 150.35 335.319 149.902 335.168C149.751 335.616 149.303 335.319 148.856 335.241C149.303 335.168 149.902 335.09 149.824 334.72C149.225 334.72 149.673 334.345 149.079 334.496L149.007 334.944C148.783 335.017 148.262 334.944 148.184 334.72C148.257 334.793 148.481 334.793 148.783 334.793C148.783 333.897 150.423 322.173 150.501 321.429C151.324 320.908 152.517 321.653 153.413 320.83C153.189 320.679 154.012 320.83 153.71 320.455C153.861 320.606 154.085 320.528 154.309 320.528C154.085 320.679 153.788 320.752 153.788 320.976C155.059 321.049 156.402 320.976 157.668 321.049C158.413 321.2 158.637 320.304 158.861 320.304L158.788 320.601L159.533 320.674C159.382 320.299 159.533 319.778 159.236 319.627C159.236 319.403 159.46 319.554 159.757 319.554C159.684 319.627 159.46 319.851 159.606 319.929C160.205 319.929 159.83 319.705 160.501 319.481C160.501 319.554 160.054 320.002 160.574 320.226C161.991 320.523 169.835 320.226 171.403 320.153C171.33 320.226 171.106 321.424 171.028 321.424L171.772 321.049L171.397 320.601C172.22 319.929 176.923 319.481 177.819 318.96H177.595C178.267 318.663 178.788 318.663 179.684 318.585L179.163 318.736C179.387 319.257 179.762 319.257 180.283 319.184L179.986 318.96C180.507 318.439 181.033 318.887 181.85 318.809L181.553 318.658C181.705 318.507 182.001 318.658 182.225 318.658C181.777 318.882 182.522 319.033 182.673 319.257C182.376 318.736 183.194 318.736 183.496 318.736C183.647 319.111 184.241 318.439 184.319 318.887C184.543 318.814 184.319 318.512 184.246 318.512C184.845 318.736 185.293 318.137 186.335 318.064C188.054 318.137 186.559 318.439 188.574 317.913L188.798 318.21L188.949 317.762C189.324 318.585 190.069 317.986 190.293 318.809C190.517 318.512 190.668 318.882 191.116 318.585C190.892 318.064 190.371 318.288 190.147 317.913C191.866 317.689 199.408 318.137 200.975 318.288C200.751 318.361 200.751 318.585 201.048 318.736L201.647 318.585C201.574 318.434 201.423 318.434 201.496 318.288C201.72 318.137 202.095 318.512 202.168 318.064C202.168 318.288 202.543 318.361 202.543 318.439C202.84 317.991 203.887 318.887 204.262 318.064C205.085 317.913 204.486 318.585 205.382 318.585L205.455 317.986C205.527 318.059 210.382 318.059 210.236 317.762C210.309 317.913 210.387 318.137 210.611 318.21C211.434 318.059 212.33 318.137 213.225 317.986C213.152 318.059 213.074 318.059 213.152 318.21C216.288 318.137 219.277 318.507 222.335 318.809C222.934 318.809 222.408 319.33 222.934 319.408C223.23 319.559 223.605 319.257 223.902 319.111C223.829 319.038 223.678 319.038 223.751 318.887C223.902 318.96 224.126 319.038 224.35 319.038C224.126 319.262 223.829 319.413 224.277 319.486L223.605 319.413C223.605 319.788 223.829 319.34 224.277 319.486L224.652 319.413V319.788C226.652 322.632 225.012 334.053 225.012 334.053Z" fill="black"/>
<path d="M326.559 319.867C326.111 319.867 325.814 319.716 325.512 319.419C325.887 319.497 326.335 319.497 326.559 319.867Z" fill="black"/>
<path d="M326.267 334.053L326.116 334.126L325.147 333.157C323.579 333.605 321.788 333.006 320.668 332.861C320.147 332.861 318.803 332.788 318.131 333.085V332.71C317.308 332.782 316.116 333.309 315.595 333.454V333.303C315.22 333.376 314.324 333.678 314.475 334.272C313.652 334.048 313.803 333.527 312.756 333.824L312.907 333.897C311.715 334.121 305.887 333.6 304.845 333.824L304.918 333.673C303.949 334.048 302.751 333.6 301.782 334.121C299.991 333.824 292.152 333.449 290.058 333.746C288.267 333.897 289.907 334.194 288.194 334.121C287.97 334.121 287.819 334.345 288.194 334.496C287.595 334.423 286.85 334.496 286.329 334.121C284.09 334.418 280.506 334.569 277.293 334.642C275.35 334.715 273.486 334.715 272.215 334.793L272.288 334.72C270.048 334.793 261.09 335.319 258.85 335.241L258.402 335.616C257.955 335.319 257.507 335.543 256.835 335.319C256.46 335.392 256.611 335.616 256.762 335.694C256.163 335.47 255.569 335.767 255.267 335.543L255.34 335.392C254.444 335.017 253.923 335.991 252.949 335.616V335.543C252.574 335.319 252.126 335.694 251.757 335.767C251.236 335.616 251.757 335.319 251.309 335.168C251.158 335.616 250.71 335.319 250.262 335.241C250.71 335.168 251.309 335.09 251.23 334.72C250.632 334.72 251.079 334.345 250.486 334.496L250.413 334.944C250.116 335.017 249.668 334.944 249.59 334.72C249.663 334.793 249.887 334.793 250.189 334.793C250.189 334.272 250.788 329.939 251.236 326.355C251.611 323.892 251.908 321.725 251.908 321.428C252.731 320.908 253.923 321.652 254.819 320.829C254.595 320.678 255.418 320.829 255.116 320.454C255.267 320.605 255.491 320.527 255.715 320.527C255.491 320.678 255.194 320.751 255.194 320.975C256.465 321.048 257.809 320.975 259.074 321.048C259.819 321.199 260.043 320.303 260.267 320.303V320.6L261.012 320.673C260.861 320.298 261.012 319.777 260.715 319.626C260.715 319.402 260.939 319.553 261.236 319.553C261.163 319.626 260.939 319.85 261.085 319.928C261.684 319.928 261.309 319.704 261.981 319.48C261.981 319.553 261.533 320.001 262.053 320.225C263.1 320.449 267.955 320.298 270.866 320.225C271.762 320.225 272.434 320.152 272.809 320.152C272.736 320.225 272.512 321.423 272.434 321.423L273.106 321.048L272.731 320.6C273.553 319.928 278.257 319.48 279.152 318.96H278.928C279.6 318.663 280.121 318.663 280.944 318.585L280.423 318.736C280.647 319.256 281.022 319.256 281.543 319.183L281.246 318.96C281.767 318.439 282.293 318.887 283.111 318.808L282.814 318.657C282.965 318.506 283.262 318.657 283.486 318.657C283.038 318.881 283.783 319.032 283.934 319.256C283.637 318.736 284.454 318.736 284.757 318.736C284.908 319.111 285.579 318.439 285.579 318.887C285.803 318.814 285.579 318.512 285.507 318.512C286.105 318.736 286.553 318.137 287.595 318.064C289.387 318.137 287.819 318.439 289.835 317.913L290.059 318.21L290.21 317.762C290.585 318.585 291.329 317.986 291.553 318.809C291.777 318.512 291.928 318.881 292.449 318.585C292.225 318.064 291.704 318.288 291.48 317.913C293.199 317.689 300.741 318.137 302.309 318.288C302.085 318.361 302.085 318.585 302.309 318.736L302.908 318.585C302.835 318.434 302.684 318.433 302.757 318.288C303.053 318.137 303.356 318.512 303.428 318.064C303.428 318.288 303.803 318.361 303.803 318.439C304.1 317.991 305.22 318.887 305.522 318.064C306.418 317.913 305.746 318.585 306.642 318.585L306.715 317.986C306.788 318.058 311.642 318.058 311.496 317.762C311.569 317.913 311.647 318.137 311.871 318.21C312.767 318.058 313.59 318.137 314.486 317.986C314.413 318.058 314.335 318.058 314.413 318.21C317.548 318.137 320.538 318.506 323.595 318.808C324.194 318.808 323.746 319.329 324.194 319.407C324.267 319.48 324.418 319.48 324.491 319.407C324.564 319.407 324.642 319.335 324.715 319.335C325.012 319.262 325.314 319.183 325.538 319.038C325.314 319.262 325.017 319.413 325.538 319.486L324.866 319.413C324.866 319.788 325.09 319.34 325.538 319.486L325.913 319.413V319.788C327.908 322.631 326.267 334.053 326.267 334.053Z" fill="black"/>
<path d="M324.613 319.64C324.764 319.567 324.91 319.489 325.061 319.416C324.988 319.343 324.837 319.343 324.91 319.192C325.061 319.265 325.285 319.343 325.431 319.343C325.212 319.494 324.915 319.567 324.613 319.64Z" fill="black"/>
<path d="M427.813 319.867C427.365 319.867 427.068 319.716 426.766 319.419C427.141 319.497 427.589 319.497 427.813 319.867Z" fill="black"/>
<path d="M427.507 334.053L427.355 334.126L426.387 333.158C424.819 333.605 423.027 333.006 421.908 332.861C421.387 332.861 420.043 332.788 419.371 333.085L419.444 332.71C418.621 332.783 417.428 333.309 416.908 333.454V333.303C416.533 333.376 415.637 333.678 415.788 334.272C414.965 334.048 415.116 333.527 414.069 333.824L414.22 333.897C413.027 334.121 407.199 333.6 406.158 333.824L406.23 333.673C405.262 334.048 404.064 333.6 403.095 334.121C401.303 333.824 393.465 333.449 391.371 333.746C389.579 333.897 391.22 334.194 389.428 334.121C389.204 334.121 389.053 334.345 389.428 334.496C388.829 334.423 388.085 334.496 387.564 334.121C383.98 334.642 376.887 334.569 373.449 334.793L373.522 334.72C371.282 334.793 362.324 335.319 360.085 335.241L359.637 335.616C359.189 335.319 358.741 335.543 358.069 335.319C357.694 335.392 357.845 335.616 357.996 335.694C357.397 335.47 356.803 335.767 356.501 335.543L356.574 335.392C355.678 335.017 355.158 335.991 354.184 335.616V335.543C353.809 335.319 353.361 335.694 352.991 335.767C352.543 335.616 352.991 335.319 352.543 335.168C352.392 335.616 351.944 335.319 351.496 335.241C351.944 335.168 352.543 335.09 352.465 334.72C351.866 334.72 352.314 334.345 351.72 334.496L351.647 334.944C351.423 335.017 350.902 334.944 350.824 334.72C350.897 334.793 351.121 334.793 351.423 334.793C351.423 333.897 353.064 322.173 353.142 321.429C353.965 320.908 355.158 321.653 356.053 320.83C355.829 320.679 356.652 320.83 356.35 320.455C356.501 320.606 356.725 320.528 356.949 320.528C356.652 320.679 356.428 320.752 356.428 320.976C357.699 321.049 359.043 320.976 360.309 321.049C361.054 321.2 361.277 320.304 361.501 320.304V320.601L362.246 320.674C362.095 320.299 362.246 319.778 361.949 319.627C361.949 319.403 362.173 319.554 362.47 319.554C362.397 319.627 362.173 319.851 362.319 319.929C362.918 319.929 362.543 319.705 363.215 319.481C363.215 319.554 362.767 320.002 363.288 320.226C364.705 320.523 372.548 320.226 374.116 320.153C374.043 320.226 373.819 321.424 373.741 321.424L374.486 321.049L374.111 320.601C374.934 319.929 379.637 319.481 380.46 318.96H380.236C380.908 318.663 381.428 318.663 382.251 318.585L381.731 318.736C381.955 319.257 382.329 319.257 382.85 319.184L382.553 318.96C383.074 318.439 383.6 318.887 384.418 318.809L384.121 318.658C384.272 318.507 384.569 318.658 384.793 318.658C384.345 318.882 385.09 319.033 385.241 319.257C384.944 318.736 385.762 318.736 386.064 318.736C386.215 319.111 386.809 318.439 386.887 318.887C387.184 318.814 386.96 318.512 386.814 318.512C387.413 318.736 387.861 318.137 388.902 318.064C390.621 318.137 389.126 318.439 391.142 317.913L391.366 318.21L391.517 317.762C391.892 318.585 392.637 317.986 392.861 318.809C393.085 318.512 393.236 318.882 393.757 318.585C393.533 318.064 393.012 318.288 392.788 317.913C394.507 317.689 402.048 318.137 403.689 318.288C403.465 318.361 403.465 318.585 403.689 318.736L404.288 318.585C404.215 318.434 404.064 318.434 404.137 318.288C404.434 318.137 404.736 318.512 404.809 318.064C404.809 318.288 405.184 318.361 405.184 318.439C405.481 317.991 406.527 318.887 406.902 318.064C407.725 317.913 407.126 318.585 408.022 318.585L408.095 317.986C408.168 318.059 412.876 318.059 412.876 317.762C412.949 317.913 413.027 318.059 413.251 318.21C414.074 318.059 414.97 318.137 415.866 317.986C415.793 318.059 415.715 318.059 415.793 318.21C418.928 318.137 421.918 318.507 424.975 318.809C425.574 318.809 425.048 319.33 425.574 319.408C425.871 319.559 426.246 319.257 426.543 319.111C426.47 319.038 426.319 319.038 426.392 318.887C426.543 318.96 426.767 319.038 426.991 319.038C426.767 319.262 426.47 319.413 426.991 319.486L426.319 319.413C426.319 319.788 426.543 319.34 426.991 319.486L427.366 319.413V319.788C429.152 322.632 427.507 334.053 427.507 334.053Z" fill="black"/>
<path d="M114.132 287.907C112.861 287.907 111.892 287.834 110.924 287.683C112.117 287.683 113.387 287.683 114.132 287.907Z" fill="black"/>
<path d="M117.719 295.453C117.199 295.526 116.751 295.604 116.303 295.677C116.751 295.599 117.199 295.526 117.719 295.453Z" fill="black"/>
<path d="M128.252 279.547L128.179 279.25C128.106 279.922 128.106 280.521 128.106 281.114C128.106 281.411 128.106 281.713 128.179 281.937C128.179 282.234 128.252 282.385 128.179 282.906C128.179 284.547 127.955 286.338 126.908 288.281V288.208C126.012 289.776 124.893 291.567 123.7 292.614C122.804 293.286 122.731 293.286 122.731 293.213C122.731 293.14 122.731 293.14 121.908 293.588C121.387 294.187 119.518 295.005 117.653 295.38C118.7 295.156 119.82 294.781 120.565 294.333C121.309 293.958 121.757 293.588 121.684 293.51C121.164 293.885 120.789 294.031 120.565 294.109C120.341 294.182 120.268 294.182 120.19 294.182C120.039 294.182 119.893 294.255 118.622 294.703L118.471 295C118.174 295.073 117.872 295.224 117.502 295.297C117.127 295.37 116.757 295.448 116.382 295.448C115.637 295.521 115.039 295.448 114.887 295.448C115.262 295.448 116.382 295.448 117.424 295.224C117.424 295.151 117.799 294.552 118.247 293.807C118.695 293.062 119.143 292.015 119.367 290.969C119.518 290.448 119.591 289.922 119.591 289.474V288.203C119.518 287.458 119.367 287.01 119.367 286.859C119.887 286.114 120.486 285.291 120.783 284.245C120.934 283.724 121.007 283.198 121.007 282.677V282.234C121.007 282.01 121.007 281.859 120.934 281.635C120.934 281.26 120.861 280.89 120.783 280.515C120.71 281.26 120.783 278.724 120.559 279.62C120.632 279.172 120.632 278.349 120.632 277.828C120.705 278.651 120.705 279.469 120.856 279.547C120.856 275.739 120.856 271.557 120.929 267.75C121.002 265.51 120.554 264.687 120.554 264.166L120.705 264.239V261.927C120.554 262.375 120.257 261.927 120.184 262.896C120.111 262.823 120.184 262.073 120.111 261.328C120.111 261.625 120.262 262.224 120.335 261.703C120.335 259.911 120.184 261.104 120.111 259.015C120.111 259.015 120.335 260.432 120.486 258.718C120.486 257.672 120.559 255.359 120.559 252.37V250.057V248.864C120.559 248.567 120.559 248.343 120.486 248.041C120.413 247.521 120.262 246.922 119.966 246.474C119.742 245.953 119.367 245.505 118.997 245.057C118.174 244.161 117.132 243.562 116.085 243.338C115.788 243.265 115.564 243.265 115.262 243.187H114.294H111.981H105.486C105.783 243.187 106.455 242.588 106.679 242.588L104.512 242.739L105.705 242.963C103.169 243.338 88.8304 243.562 86.0691 243.786H86.8138C85.2461 243.859 83.9024 243.937 82.3347 243.937H80.5429L82.1107 243.864C81.5117 243.567 80.168 243.64 78.6784 243.64L79.6471 243.713C77.9283 243.937 76.5117 243.786 73.8971 243.786L74.8659 243.859C74.2669 243.932 73.5221 243.859 72.7773 243.859C74.0482 243.708 72.0326 243.708 71.5065 243.562C72.1055 243.786 69.7148 243.786 68.9701 243.786C68.5951 243.562 66.5794 243.937 66.4337 243.713C65.7618 243.786 66.1368 243.864 66.4337 243.937H66.0587C64.491 243.937 63.0743 244.161 60.2358 244.234C58.965 244.234 58.2202 244.161 57.8451 244.161H57.4701C57.3972 244.161 57.3191 244.161 57.0951 244.234C56.8712 244.307 56.4232 244.385 55.7514 244.833L55.3764 244.906V245.203C55.0014 245.203 54.6316 245.5 54.3295 245.802C54.0326 246.099 53.8087 246.474 53.5847 246.474C53.5847 246.849 53.2097 247.073 53.2097 247.89C53.5066 247.593 53.7305 246.771 54.0326 246.619C53.8816 246.916 53.6576 247.364 53.5847 247.89C53.5118 248.187 53.5118 248.489 53.5118 248.859V250.948C53.5118 253.932 53.5118 257.521 53.4389 261.026C53.366 268.119 53.2878 275.14 53.2878 277.526C53.2878 276.781 53.1368 276.927 53.0639 277.677L53.1368 279.541C53.2097 279.317 53.2097 278.796 53.2878 279.093C53.3608 279.916 53.1368 280.812 53.4389 281.26C53.2878 281.187 53.2878 282.453 53.2878 282.453C53.3608 282.677 53.3608 282.828 53.3608 283.052V283.427C53.3608 283.578 53.4337 283.724 53.4337 283.875C53.5847 284.395 53.8087 284.994 54.1785 285.067C54.6264 285.588 54.6264 285.666 54.6264 285.812C54.6264 285.885 54.6264 285.963 54.6993 286.036C54.7722 286.187 54.9233 286.333 55.2201 286.557L55.4441 286.333C55.4441 286.333 55.892 286.708 56.5639 286.932C56.9389 287.005 57.3087 287.156 57.7566 287.156H58.2045H58.8764H60.2931C63.8764 287.156 67.3868 287.083 67.3868 287.005C67.6107 287.078 67.7618 287.156 68.5066 287.229C71.1211 287.156 73.6576 287.156 76.5691 287.078C76.2722 287.078 76.0483 287.078 76.2722 287.151H79.0326C84.5586 287.151 89.9337 287.224 95.3873 287.302C98.3717 287.375 101.434 287.375 104.497 287.453C106.288 287.453 104.872 287.75 106.361 287.75C107.33 287.823 108.45 287.677 109.273 287.599C109.049 287.599 108.528 287.526 108.825 287.526C109.346 287.599 109.944 287.599 110.543 287.599C109.945 287.671 108.903 287.823 110.392 287.823H108.377C108.304 287.974 108.976 287.823 110.465 287.895H111.736L111.663 288.046C117.934 289.239 113.007 294.989 113.007 294.989L112.559 295.062L109.497 294.614C105.538 294.765 100.986 294.614 97.5487 294.541C96.8768 294.541 96.205 294.468 95.6842 294.468C94.1165 294.468 90.0071 294.395 87.8456 294.619L87.9186 294.468C85.83 294.468 83.0644 294.692 81.2727 294.765C80.8248 294.765 80.4498 294.765 80.1529 294.838V294.765C79.106 294.765 76.3456 294.989 76.7206 295.286C74.1842 295.213 74.6321 294.911 71.4185 295.062H71.9393C70.0748 295.135 64.6945 295.062 59.3977 295.062H57.2363C56.7883 295.062 56.3404 294.989 55.8925 294.911C55.4446 294.838 54.9967 294.76 54.6217 294.614C52.9029 294.166 51.4134 293.343 50.2936 292.375C49.1009 291.406 48.278 290.359 47.6061 289.463C47.0072 288.567 46.6374 287.822 46.4863 287.296C46.4863 287.296 46.5592 287.369 46.5592 287.447C46.6322 287.52 46.6322 287.598 46.6322 287.598C46.1842 286.703 45.8092 285.656 45.6634 284.536C45.5905 284.015 45.5124 283.416 45.5124 282.817V282.442V281.473C45.5124 279.755 45.5124 278.114 45.3613 276.619C45.4342 273.859 45.5124 266.39 45.5853 258.922V253.323V250.636C45.5853 249.74 45.5853 249.068 45.6582 247.797C45.8822 245.557 46.7051 243.615 47.6009 242.198C48.5696 240.703 49.6165 239.734 50.5123 239.063C50.8873 238.766 51.2571 238.542 51.5592 238.318C51.8561 238.094 52.1582 237.943 52.3821 237.87C52.8301 237.646 53.2051 237.422 53.429 237.349C53.8769 237.125 53.9499 237.125 54.028 237.052C54.1009 236.979 54.1009 236.979 54.627 236.828C54.8509 236.755 55.2259 236.604 55.8196 236.604C56.1165 236.531 56.4186 236.531 56.7884 236.453C57.1634 236.453 57.6113 236.38 57.9811 236.38C58.7259 236.38 59.1009 236.229 58.1321 236.156C59.8509 236.229 62.0124 236.156 63.7311 236.307H63.955C68.1373 236.234 73.8873 236.156 80.007 236.083C89.9393 236.01 100.84 236.01 107.408 235.932H107.111H110.622H112.934H114.205H114.95C115.247 235.932 115.622 235.932 115.919 236.005C118.533 236.229 121.372 237.349 123.611 239.438C125.778 241.453 127.346 244.365 127.716 247.5C127.788 247.875 127.788 248.245 127.788 248.693V249.141V249.516V251.083V254.219V260.12V268.557L128.012 269.974C127.861 271.469 128.012 272.813 127.861 274.755C127.861 275.724 128.012 275.427 128.085 274.979C128.252 276.787 128.398 278.578 128.252 279.547Z" fill="black"/>
<path d="M486.28 256.4C480.602 258.192 475.977 259.463 471.717 260.504C471.566 260.577 471.493 260.577 471.342 260.577C470.519 260.801 469.774 260.952 468.951 261.176C469.696 260.952 470.519 260.728 471.342 260.504C471.493 260.504 471.566 260.431 471.717 260.431C477.316 258.712 482.842 257.145 486.28 256.4Z" fill="black"/>
<path d="M469.027 261.173C468.954 261.173 468.876 261.246 468.803 261.246C468.803 261.246 468.876 261.246 468.876 261.173H469.027Z" fill="black"/>
<path d="M500.906 267.973C501.802 267.598 502.771 267.15 503.745 266.703C504.714 266.255 505.687 265.734 506.729 265.208C505.76 265.729 504.787 266.177 503.818 266.703C502.844 267.15 501.875 267.598 500.906 267.973Z" fill="black"/>
<path d="M487.025 88.6266C486.874 88.3297 486.801 88.1058 486.729 87.8037C486.801 88.0277 486.952 88.3245 487.025 88.6266Z" fill="black"/>
<path d="M107.412 165.24H107.563C107.484 165.313 107.484 165.24 107.412 165.24ZM325.505 319.427C325.281 319.427 325.13 319.354 324.984 319.276C324.911 319.427 325.057 319.427 325.135 319.5C324.984 319.572 324.838 319.651 324.687 319.724C324.911 319.578 325.208 319.505 325.505 319.427ZM474.692 260.291L475.139 259.843L471.707 260.89L471.483 260.963V261.114C471.634 261.713 471.707 262.306 471.707 262.905V263.28V272.39V275.004L483.504 272.093L485.895 271.27C485.962 271.343 509.259 252.301 474.692 260.291ZM467.822 261.561C467.895 261.634 467.973 261.561 468.046 261.561V261.489C467.968 261.489 467.895 261.489 467.822 261.561ZM249.942 335.556H250.239C250.166 335.483 250.02 335.483 249.942 335.556ZM144.067 371.097C145.036 371.17 146.01 371.249 147.052 371.249C149.442 371.321 152.057 371.249 154.666 370.952C151.385 371.025 147.802 371.097 144.067 371.097ZM109.87 332.269C109.495 331.671 109.573 331.894 109.797 332.421C109.948 332.868 110.245 333.389 110.469 333.915C110.542 333.842 110.693 333.842 110.766 333.842C110.391 333.316 110.094 332.796 109.87 332.269ZM538.536 210.191C538.385 206.16 537.792 202.498 536.896 198.993L536.599 197.649L536.224 196.305C536 195.483 535.703 194.514 535.479 193.842C534.958 192.347 534.51 190.857 533.984 189.29C533.016 186.227 532.042 182.941 531 179.212L531.599 180.779C530.255 175.628 526.969 165.847 524.354 156.586C524.953 159.05 525.25 160.768 523.609 155.539C520.547 144.789 518.083 137.544 515.995 129.627L513.38 122.236C510.542 112.903 505.542 96.7005 499.568 77.0645C496.584 67.2833 493.297 56.6058 489.86 45.4805C489.636 44.8086 489.412 44.0638 489.188 43.3919C488.964 42.569 488.667 41.8242 488.365 41.0013C488.141 40.1783 487.766 39.4335 487.469 38.6106C487.172 37.7877 486.797 37.0429 486.501 36.2199C485.084 33.0845 483.438 30.0949 481.422 27.1835C477.542 21.4335 472.537 16.3554 466.938 12.2515C461.261 8.14739 454.918 5.08485 448.272 3.14219C441.626 1.19952 434.684 0.454725 428.037 0.902592C424.678 1.12655 421.391 1.57447 418.183 2.31926C417.36 2.4703 416.615 2.69426 415.792 2.91822C415.048 3.14218 414.152 3.36613 413.553 3.59009C412.209 3.96509 410.865 4.41301 409.522 4.7828C404.219 6.42347 399.141 7.99106 394.215 9.48586C374.579 15.5328 358.376 20.538 348.964 23.3712L350.459 22.8504C293.558 40.6944 176.326 76.3864 117.486 94.9024C108.303 97.366 95.683 101.251 86.1257 104.085C91.4278 102.59 89.709 103.413 85.6048 104.684C85.1569 104.835 84.6361 104.98 84.1882 105.132C83.7403 105.283 83.2194 105.428 82.7715 105.579C81.8757 105.876 81.0527 106.251 80.2351 106.548C79.4903 106.845 78.7403 107.147 78.0684 107.444C77.3966 107.741 76.7976 108.043 76.2039 108.267C73.9643 109.387 72.5476 110.283 71.5008 110.881C69.4852 112.225 69.2612 112.376 69.0372 112.6C68.8133 112.824 68.5893 113.048 66.6466 114.543C66.1986 114.918 65.5997 115.366 64.9278 115.96C64.2559 116.559 63.433 117.303 62.5371 118.126C60.7454 119.845 58.433 122.23 55.8183 125.668C52.8339 129.626 49.2454 135.522 46.7819 143.141C46.709 143.292 46.709 143.438 46.6309 143.662C47.3027 143.511 48.0475 143.365 48.8705 143.214C49.5423 143.063 50.2142 142.99 50.735 142.917L51.1829 142.844H51.2558C51.4069 142.844 51.5527 142.771 51.7038 142.771C52.3027 142.698 53.1204 142.547 54.0163 142.547C54.2403 142.547 54.3913 142.547 54.6153 142.475C55.2871 142.402 56.11 142.323 56.9278 142.323C57.4486 142.323 57.8965 142.323 58.4226 142.251H58.5736H59.9174H60.8861V141.876H63.5736C65.1413 138.813 67.2298 135.902 68.8757 134.485C68.8757 134.485 69.0997 134.037 69.3236 133.589C69.5476 133.141 69.7715 132.693 69.7715 132.693C69.7715 132.693 70.3705 132.094 70.9643 131.573C71.2611 131.277 71.5632 131.053 71.7872 130.829C72.0111 130.605 72.1622 130.532 72.1622 130.532C74.6258 127.995 76.8652 126.277 78.584 125.079C79.0319 124.782 79.4799 124.48 79.8549 124.256C80.2299 124.032 80.5997 123.808 80.9747 123.584C81.6466 123.136 82.2455 122.839 82.7664 122.537C83.8133 121.938 84.4852 121.641 85.006 121.417C85.5268 121.193 85.8289 121.042 86.1258 120.969C86.4227 120.896 86.6466 120.745 87.0945 120.594C87.5424 120.443 88.0633 120.219 89.0372 119.995C91.2039 119.323 95.0112 118.204 102.178 116.037C118.454 110.959 126.219 107.974 135.329 105.433C133.761 105.881 131.448 106.329 135.177 105.058C136.073 105.209 146.599 101.25 148.839 101.027C153.021 99.6829 166.459 95.6517 162.203 96.3964C165.041 95.7974 176.541 92.438 169.521 94.7557C173.625 93.4849 177.734 92.365 180.646 91.3234L175.271 92.8182C189.235 88.4901 197 86.5474 205.959 83.3338L200.729 84.6776C209.094 82.063 216.036 79.8964 219.547 79.4484L211.036 82.2088C224.922 77.9536 233.287 75.4118 244.714 71.6046L240.61 72.8755C255.172 67.8703 332.079 43.9794 345.443 39.1261L339.094 40.6209L350.516 36.7407C349.172 37.2615 345.964 39.3552 344.542 39.8761C350.891 37.9334 363.583 34.0532 379.339 29.199C387.402 26.7354 396.214 24.048 405.475 21.2094C407.788 20.5376 410.105 19.7928 412.496 19.0428C413.689 18.6678 414.887 18.298 416.006 17.923L418.694 17.1001L419.517 16.8761C423.699 15.6834 428.178 15.0844 432.585 15.1573C441.397 15.2302 450.131 18.1417 457.225 22.85C464.318 27.5531 469.542 33.9751 472.755 40.47C473.203 41.2929 473.5 42.1107 473.875 42.9336C474.25 43.7565 474.547 44.5743 474.844 45.3972C475.141 46.2201 475.365 47.0379 475.667 47.8608V48.0118C477.906 47.5639 480.146 46.9649 481.792 47.5639C479.552 48.3868 477.609 48.5327 475.667 48.0847C475.818 48.5327 475.964 49.0535 476.115 49.5014L475.74 49.6524C472.828 50.0274 471.932 51.517 471.781 50.4754L475.589 49.4285C472.75 50.0274 474.542 48.9077 475.437 48.0848C474.245 48.3087 473.125 48.6056 472.078 48.5327C471.63 49.0535 472.599 48.8296 473.125 48.9077C471.781 49.7306 469.99 51.2202 468.047 51.2983C465.208 52.0431 467.375 49.8035 464.089 50.6994C446.542 55.2515 429.37 59.2879 411.895 64.8874C411.374 64.5905 411.895 64.5124 412.343 64.1426C407.192 66.1582 402.411 67.429 397.78 69.3718C396.364 69.3718 395.765 68.9239 395.244 68.627C395.468 69.3718 368.884 77.5854 368.364 77.5125L368.588 79.3042C363.359 80.9449 366.499 77.8094 361.791 79.6792C360.671 82.6636 353.728 81.8459 352.458 83.6376C352.458 83.4137 350.067 84.0855 349.994 83.2626C349.697 84.8303 347.682 84.3095 346.26 85.1271C345.812 85.648 346.781 85.424 347.307 85.648L344.02 87.1428C342.525 87.1428 342.005 86.4709 343.421 85.8719C334.385 88.1115 291.301 99.9079 281.895 103.419C283.462 104.018 286.223 102.45 287.796 103.643C285.556 105.283 283.988 104.465 283.165 105.731C281.447 103.715 277.415 106.851 274.801 105.132L274.504 106.627L273.009 106.179C262.259 110.96 270.697 107.596 260.691 110.283C255.165 112.148 252.999 114.762 249.717 115.137C250.316 115.137 251.285 115.585 250.092 116.257C249.493 115.137 246.436 118.273 245.311 117.377C243.895 117.976 239.186 119.241 241.207 120.361C240.16 119.84 235.905 120.736 238.145 119.314C236.728 119.689 235.233 119.913 234.337 120.585L236.28 120.434C231.577 122.153 228.587 121.705 225.9 124.09L227.842 124.163C225.004 125.132 222.691 125.955 221.045 124.762L223.806 123.419C219.103 124.913 216.264 125.882 212.53 127.898L213.946 127.523C209.915 130.21 189.53 137.752 181.842 141.783C210.738 141.71 241.202 141.71 268.826 141.632H292.274C300.415 141.632 308.701 141.632 316.618 141.559C332.149 137.08 349.025 132.6 354.998 131.33C360.004 128.121 367.243 127.147 372.321 124.533L371.873 125.054C377.472 122.741 410.701 114.152 417.269 111.538L416.3 111.61C421.899 108.85 421.603 110.787 426.379 109.892C425.259 108.324 429.962 105.787 431.832 105.11L431.905 105.485C434.743 104.293 440.79 100.782 445.493 99.1365L445.565 100.105C449.222 97.8656 456.841 96.0011 459.68 95.0271C466.326 93.3864 476.931 91.9646 485.289 88.0844L487.008 88.3084C486.935 88.0844 486.857 87.7876 486.784 87.4855C486.857 87.7094 486.935 88.0063 487.081 88.3084L487.456 88.3813L487.753 89.4282C488.352 91.6678 487.602 89.8032 487.081 88.3084H487.008C488.201 92.1887 489.175 95.6991 489.472 95.9229C487.977 90.6208 489.175 92.7147 488.8 90.324L492.534 102.72L492.014 102.272C492.836 105.032 494.998 108.991 498.587 121.236C504.712 141.845 511.654 164.096 517.852 184.777C517.555 184.48 516.133 180.225 514.716 175.892C515.539 178.652 516.883 182.834 517.555 185.449C516.508 181.121 519.347 190.454 519.57 190.824C519.57 190.751 519.498 190.6 519.419 190.079C520.091 191.944 520.763 193.887 521.435 195.902C521.586 196.423 521.732 196.871 521.956 197.397C522.107 197.918 522.331 198.444 522.404 198.814C522.701 199.71 523.003 200.678 523.149 201.652C523.669 203.517 523.893 205.532 524.117 207.475C524.268 209.418 524.414 211.434 524.268 213.449C524.044 221.366 521.43 228.829 518.669 234.428C518.669 234.579 518.669 235.173 518.597 236.069C518.524 236.516 518.445 237.037 518.373 237.636C518.3 238.235 518.222 238.907 518.076 239.652C517.555 242.563 516.508 246.371 514.867 250.105C513.3 253.839 511.133 257.496 509.268 260.183C508.373 261.527 507.477 262.647 506.956 263.469C506.357 264.292 506.06 264.74 506.06 264.813C504.94 265.412 503.821 265.933 502.701 266.454C502.18 266.678 501.654 266.902 501.133 267.126C500.612 267.35 500.086 267.501 499.638 267.725C499.19 267.949 498.67 268.1 498.295 268.246C497.847 268.397 497.472 268.469 497.102 268.621C496.357 268.844 495.831 268.996 495.461 269.141C496.133 268.99 498.82 268.318 501.81 267.053C504.873 265.86 508.159 263.917 510.32 262.501L510.841 261.605C512.112 260.782 513.008 260.037 513.753 259.516C514.498 258.917 515.024 258.548 515.393 258.245C516.216 257.647 516.44 257.423 516.737 257.199C517.034 256.975 517.258 256.824 518.081 256.23C518.456 255.933 518.904 255.485 519.576 254.886C519.873 254.589 520.248 254.214 520.695 253.839C521.07 253.391 521.518 252.943 522.039 252.423C522.414 252.272 520.768 254.287 518.008 256.975C515.393 259.438 511.586 262.277 507.706 264.516C511.216 262.574 514.503 260.261 517.112 258.094C519.951 255.704 521.966 253.464 523.013 252.048C525.701 249.063 525.55 249.209 525.701 249.287C525.701 249.36 525.774 249.36 526.222 248.839C526.669 248.318 527.492 247.344 528.909 245.329C530.773 242.344 532.643 238.756 534.138 234.876C535.633 230.995 536.826 226.813 537.649 222.928V223.079C538.456 218.548 538.68 214.22 538.529 210.188L538.536 210.191Z" fill="black"/>
<path d="M481.572 47.6266C479.333 48.4495 477.39 48.5954 475.447 48.1474V48.0745C477.687 47.6266 480.005 47.0329 481.572 47.6266Z" fill="black"/>
<path d="M481.573 47.6267C479.333 48.4496 477.391 48.5955 475.448 48.1476C477.688 47.6267 480.005 47.033 481.573 47.6267Z" fill="black"/>
<path d="M179.399 142.013C179.326 142.013 179.326 142.013 179.248 142.086C179.321 142.013 179.321 142.013 179.399 142.013Z" fill="black"/>
<path d="M487.025 88.6266C486.874 88.3297 486.801 88.1058 486.729 87.8037C486.801 88.0277 486.952 88.3245 487.025 88.6266Z" fill="black"/>
<path d="M416.158 426.267L416.085 426.043L416.757 429.699L416.158 426.267Z" fill="white"/>
<path d="M449.905 358.467V359.211C449.905 359.211 449.905 358.987 449.978 358.467H449.905ZM434.373 418.722C433.701 419.097 433.18 419.394 432.654 419.691C432.133 419.988 431.685 420.212 431.31 420.436C430.488 420.811 429.967 421.107 429.446 421.331C428.55 421.706 428.253 421.779 427.878 421.93C427.581 422.003 427.206 422.154 426.31 422.529C425.863 422.68 425.191 422.977 424.368 423.274C423.472 423.571 422.425 424.019 421.008 424.394L420.264 425.066C419.144 425.441 417.727 425.811 416.16 426.113L416.831 429.769L416.232 426.337C420.936 425.368 425.79 423.649 429.222 421.93C432.581 420.144 434.675 418.722 434.373 418.722ZM464.092 263.042H464.243V262.969C464.092 262.964 464.019 263.042 464.092 263.042ZM467.826 261.547L467.977 261.995H468.05V261.474C467.972 261.474 467.899 261.474 467.826 261.547ZM107.41 165.227H107.561C107.483 165.3 107.483 165.227 107.41 165.227Z" fill="black"/>
<path d="M464.612 352.867L464.54 351.226C464.467 355.033 464.467 358.471 464.467 361.679C464.467 363.32 464.54 364.887 464.54 366.46V369.075V370.419L464.467 371.762C464.243 375.419 463.722 379.08 462.748 382.96C461.701 386.84 460.211 390.95 457.894 395.205V395.054C455.951 398.564 453.639 402.148 451.024 405.434C448.488 408.721 445.649 411.632 442.961 413.945C441.019 415.439 439.977 416.184 439.378 416.481C439.003 416.705 438.857 416.778 438.779 416.778H438.706C438.706 416.778 438.706 416.705 438.633 416.705C438.482 416.705 437.961 417.002 435.347 418.569C433.93 419.616 431.316 421.257 427.956 422.674C424.597 424.09 420.487 425.434 416.232 426.257C420.935 425.288 425.79 423.569 429.222 421.851C432.654 420.132 434.748 418.715 434.373 418.715C433.701 419.09 433.18 419.387 432.654 419.684C432.133 419.981 431.685 420.205 431.31 420.429C430.487 420.804 429.967 421.101 429.446 421.325C428.55 421.7 428.253 421.772 427.878 421.924C427.581 421.996 427.206 422.148 426.31 422.523C425.862 422.674 425.191 422.97 424.368 423.267C423.472 423.564 422.425 424.012 421.008 424.387L420.264 425.059C419.144 425.434 417.727 425.804 416.159 426.106L416.087 425.585C416.238 425.434 416.462 425.288 416.758 425.064C417.581 424.465 418.701 423.648 419.967 422.674C422.503 420.658 425.644 417.819 428.253 414.684C430.868 411.548 433.034 408.189 434.378 405.575C434.753 404.903 435.05 404.304 435.274 403.783C435.498 403.262 435.722 402.736 435.946 402.288C436.243 401.392 436.467 400.871 436.545 400.72C440.873 396.241 445.503 389.819 448.045 382.351C448.717 380.486 449.165 378.544 449.613 376.601C449.988 374.658 450.284 372.721 450.357 370.778C450.43 369.809 450.43 368.835 450.43 367.867V366.372V364.804C450.357 362.716 450.279 360.622 450.206 358.679H450.133C450.133 357.486 450.133 355.169 450.06 353.752C450.06 353.007 449.988 352.559 449.988 352.559C449.988 352.559 449.915 352.856 449.837 353.679C449.988 350.992 449.909 346.585 449.909 343.674C450.061 348.226 450.133 352.783 450.357 353.08C450.43 331.501 450.284 308.132 450.43 286.627V281.549C450.357 273.783 449.831 270.049 449.686 267.585V266.538L450.061 267.137L450.133 254.147C449.758 256.46 449.238 254.147 449.087 259.673C448.863 259.298 449.014 255.267 449.014 250.861C449.087 251.98 449.238 254.069 449.311 254.069C449.383 254.069 449.383 253.772 449.383 253.022C449.383 242.944 449.159 249.663 448.936 237.866C449.008 237.939 449.159 241.074 449.383 241.074C449.534 241.074 449.607 239.954 449.68 236.22C449.68 233.236 449.753 228.454 449.753 222.335V212.257V209.496C449.753 208.673 449.753 207.777 449.68 206.882C449.607 206.059 449.529 205.163 449.456 204.267C449.305 203.371 449.232 202.475 449.081 201.58C447.889 194.413 444.753 186.793 439.373 180.225C433.998 173.652 426.456 168.428 418.092 165.741C413.909 164.397 409.503 163.652 405.102 163.574H401.519H397.784H390.467C380.758 163.574 371.576 163.574 363.139 163.647C346.639 163.647 333.42 163.72 326.775 163.72C328.269 163.647 331.926 162.6 333.348 162.527L321.327 162.902L327.9 163.35C318.566 163.798 280.41 164.173 251.066 164.47C235.832 164.621 223.066 164.845 217.764 164.991H222.092C209.998 165.288 201.259 165.288 186.775 165.366L195.733 165.215C193.197 164.84 188.415 164.694 182.592 164.694H176.243L181.618 164.918C177.962 165.142 174.525 165.142 170.868 165.142C165.863 165.142 160.488 165.069 153.472 165.069H149.514L155.04 165.22C153.696 165.293 152.201 165.293 150.634 165.293C148.394 165.293 145.931 165.293 143.389 165.22C150.858 164.996 138.837 164.845 135.92 164.621C140.175 165.142 126.139 165.069 121.732 165.142C121.211 165.069 120.091 164.991 118.748 164.991C115.909 164.991 112.029 165.142 109.638 165.142C108.742 165.142 108.071 165.142 107.696 165.069C107.545 165.069 107.472 165.069 107.472 164.996C103.664 165.069 105.831 165.293 107.472 165.371H103.888C95.8258 165.371 87.5336 165.819 72.7523 165.892C66.1064 165.892 62.2263 165.819 59.8356 165.819H59.0909C58.1221 165.819 57.5231 165.819 57.0753 165.892C56.6273 165.892 56.3305 165.892 56.0284 165.965C55.7315 165.965 55.3565 166.038 54.8357 166.116C54.3148 166.189 53.5648 166.267 52.3721 166.491C51.7731 166.564 51.1012 166.715 50.3565 166.939C49.9815 167.012 49.5336 167.163 49.0856 167.236C48.6377 167.387 48.1169 167.533 47.669 167.684C46.7002 167.981 45.6534 168.356 44.5335 168.803C43.1168 169.402 41.622 170.074 39.9032 170.97C39.9032 170.97 39.6793 171.043 39.4553 171.194C39.1584 171.345 38.8563 171.491 38.4866 171.642C37.7418 171.939 37.0699 172.387 37.0699 172.387C37.0699 172.387 36.773 172.762 36.398 173.059C36.023 173.434 35.7261 173.731 35.7261 173.731C33.4865 174.777 30.1272 177.387 27.5855 180.303C24.9709 183.142 23.0333 186.205 22.0595 187.1C21.7626 187.772 21.3876 188.444 21.0907 189.116C20.9397 189.491 20.7157 189.861 20.4918 190.236C20.2678 190.611 20.1168 191.059 19.8928 191.507C19.0699 193.298 18.174 195.538 17.5021 198.751C18.1011 197.408 18.8459 194.944 19.9657 192.481C21.0126 190.09 22.3564 187.778 23.3251 186.507C22.9501 187.179 22.5021 187.923 22.0542 188.673C21.6792 189.496 21.1584 190.392 20.7834 191.361C19.8876 193.303 18.9917 195.543 18.3927 198.158C17.7209 200.694 17.2 203.611 17.049 206.746C17.049 207.491 16.9761 208.314 16.9761 209.137V212.048V218.173C16.9761 234.976 16.9032 254.908 16.9032 274.772C16.7521 314.496 16.6063 353.917 16.6063 367.584V367.209V366.834V366.162C16.6063 365.787 16.6063 365.49 16.5334 365.193C16.5334 364.818 16.4605 364.673 16.4605 364.673C16.3876 364.746 16.3876 365.121 16.3094 365.72C16.2365 366.318 16.2365 367.214 16.2365 367.959C16.2365 367.959 16.2365 368.48 16.3094 369.303C16.3823 369.751 16.3823 370.199 16.4605 370.72C16.4605 370.943 16.5334 371.24 16.5334 371.542C16.5334 371.839 16.6063 372.063 16.6844 372.365C16.9813 374.454 17.4292 376.397 17.5073 376.621C17.4344 376.1 17.3563 375.277 17.2834 374.756C17.2834 374.459 17.2105 374.235 17.2834 374.235C17.2834 374.235 17.3563 374.386 17.4344 374.61C17.8094 376.475 18.2573 378.49 18.7782 380.209C19.299 381.928 19.8979 383.345 20.4969 384.089C20.424 384.089 20.497 384.386 20.648 384.834C20.799 385.282 21.0959 385.954 21.3928 386.626C21.9917 387.97 22.7365 389.24 22.6636 389.24C23.2626 390.136 24.3043 391.631 25.5751 393.345C26.8459 395.063 28.4865 397.001 30.2781 398.798C32.0699 400.589 34.0855 402.157 35.9552 403.428C36.9239 404.027 37.7469 404.548 38.5697 404.923C39.3927 405.298 40.0646 405.595 40.6583 405.819C41.3302 406.194 42.002 406.418 42.5228 406.714C43.0436 406.938 43.5697 407.162 44.0176 407.313C44.9135 407.688 45.5124 407.912 46.0332 408.136C47.002 408.511 47.3769 408.735 47.752 408.881C48.127 409.032 48.5749 409.256 49.6947 409.626C50.8145 409.923 52.6791 410.522 56.0436 410.819L56.9395 410.298C57.0124 410.298 57.3145 410.371 57.9082 410.371C58.5072 410.371 59.3249 410.444 60.2989 410.444H70.0801H98.9761C119.507 410.444 139.517 410.371 138.924 410.22C140.117 410.371 141.237 410.516 145.273 410.668C159.981 410.595 174.393 410.516 190.596 410.444C189.028 410.516 187.611 410.516 188.804 410.668H202.768C251.523 410.668 298.637 411.043 347.168 411.266C357.246 411.266 349.184 411.787 357.772 411.865C358.819 411.865 359.861 411.938 360.98 411.938C365.611 411.938 370.465 411.714 374.121 411.641C372.777 411.569 369.939 411.569 371.585 411.417C374.345 411.49 377.632 411.569 381.142 411.569C377.856 411.792 372.48 411.944 380.694 412.016L369.194 411.944C368.97 412.095 369.267 412.095 370.017 412.095C371.137 412.095 373.303 412.022 376.59 412.022C377.861 412.022 379.277 412.022 380.918 412.095H387.939L387.34 412.47C392.866 412.845 396.824 413.438 399.658 414.188C399.73 414.188 399.73 414.188 399.809 414.261C414.595 418.293 394.882 426.282 394.882 426.282L392.345 426.355L375.022 425.386C367.856 425.537 360.386 425.537 352.845 425.537C332.386 425.537 311.928 425.162 297.293 425.089H293.111H281.314C271.684 425.089 260.631 425.089 253.387 425.313L253.986 425.016C239.35 425.089 219.341 425.615 210.456 425.688L210.68 425.537C204.778 425.61 189.398 425.912 191.268 426.506C180.142 426.355 179.32 425.985 170.737 425.985C168.424 425.985 165.508 425.985 161.628 426.058L164.388 426.131C160.878 426.131 155.055 426.204 147.737 426.204C133.549 426.204 113.691 426.131 93.9773 426.131C86.5085 426.131 79.0453 426.131 71.9506 426.058H61.5703H58.9558C58.06 426.058 57.0913 426.058 56.1954 425.907C54.4037 425.834 52.6121 425.61 50.8933 425.308C47.461 424.787 44.3203 423.964 41.4089 422.996C39.9922 422.548 38.5703 421.949 37.3047 421.428C36.0339 420.829 34.7683 420.308 33.6485 419.709C29.3203 417.542 26.1069 415.303 24.1641 413.735C24.3151 413.808 24.5391 413.959 24.6849 414.11C24.9818 414.334 25.2839 414.485 25.4297 414.558C21.6224 411.943 17.9609 408.511 14.6797 404.626C11.3933 400.667 8.48183 396.115 6.31517 391.262C4.07557 386.408 2.58075 381.184 1.76302 376.027C1.61198 374.756 1.38802 373.491 1.3151 372.147C1.24219 371.475 1.16406 370.876 1.16406 370.204C1.16406 369.532 1.09115 368.933 1.09115 368.34C1.01823 366.1 0.940108 363.86 0.867188 361.694C1.01823 346.011 1.24218 304.423 1.3151 262.314C1.3151 251.788 1.3151 241.183 1.38802 231.027V216.095V208.85C1.46094 207.507 1.38802 206.236 1.53906 204.892C1.61198 204.22 1.61198 203.621 1.6901 202.949C1.76302 202.277 1.84114 201.678 1.91406 201.007C3.33073 190.85 7.289 182.043 11.9193 175.471C16.5495 168.898 21.6275 164.345 25.6593 161.356C29.1697 158.819 32.0811 157.252 34.3207 156.054C35.4405 155.533 36.4093 155.085 37.2322 154.71C38.0551 154.335 38.727 154.111 39.3207 153.887C41.5603 152.991 41.9353 152.918 42.1593 152.767C42.4561 152.616 42.6801 152.543 44.7738 151.944C44.8467 151.944 44.9248 151.871 44.9978 151.871C46.1905 151.575 47.8363 151.127 50.2999 150.752C50.8988 150.601 51.5707 150.528 52.3155 150.455C53.0603 150.382 53.8103 150.231 54.628 150.231C55.451 150.158 56.3468 150.08 57.3155 150.08C57.7634 150.08 58.2842 150.08 58.8103 150.007H60.154H60.753C64.7842 150.007 66.4301 149.783 61.0499 149.632C70.9821 149.705 84.1952 149.632 93.6805 150.007C110.779 149.856 132.509 149.783 156.326 149.71C200.233 149.559 251.075 149.486 292.366 149.486C309.465 149.486 324.918 149.413 337.538 149.413L335.97 149.486C345.751 149.486 362.699 149.413 383.309 149.335C388.46 149.335 393.835 149.335 399.361 149.262H403.543H403.918H405.861C406.684 149.262 407.501 149.335 408.324 149.413C411.611 149.637 414.897 150.085 418.178 150.908C424.751 152.476 431.095 155.163 436.918 158.97C442.741 162.705 447.892 167.559 452.074 173.085C456.33 178.684 459.543 184.955 461.632 191.601C462.679 194.888 463.351 198.32 463.798 201.679C463.871 202.502 464.022 203.398 464.095 204.216C464.168 205.039 464.246 205.934 464.246 206.752C464.246 207.575 464.246 208.471 464.319 209.288V211.455C464.319 223.028 464.392 234.226 464.392 244.534V254.914V262.753V263.128C464.241 263.2 464.168 263.279 464.241 263.279H464.392V263.352V263.424V267.008V270.742V277.315V291.799L464.767 299.638C464.47 307.851 464.694 315.466 464.47 326.668C464.47 329.283 464.543 330.252 464.621 330.252C464.694 330.252 464.772 329.429 464.845 328.309C464.606 337.559 464.83 347.637 464.606 352.866L464.612 352.867Z" fill="black"/>
<path d="M179.238 142.08C179.311 142.08 179.311 142.08 179.389 142.007C179.311 142.007 179.311 142.007 179.238 142.08ZM434.372 418.72C433.7 419.095 433.179 419.392 432.653 419.689C432.132 419.986 431.684 420.21 431.309 420.434C430.486 420.809 429.965 421.105 429.445 421.329C428.549 421.704 428.252 421.777 427.877 421.928C427.58 422.001 427.205 422.152 426.309 422.527C425.861 422.678 425.189 422.975 424.366 423.272C423.471 423.569 422.424 424.017 421.007 424.392L420.262 425.064C419.143 425.439 417.726 425.809 416.158 426.111L416.83 429.767L416.231 426.335C420.934 425.366 425.788 423.647 429.221 421.928C432.58 420.142 434.674 418.72 434.372 418.72ZM464.09 263.04H464.241V262.967C464.09 262.962 464.017 263.04 464.09 263.04ZM467.825 261.545L467.976 261.993H468.049V261.472C467.971 261.472 467.898 261.472 467.825 261.545ZM468.866 261.17C468.866 261.17 468.794 261.17 468.794 261.243C468.866 261.243 468.945 261.17 469.017 261.17H468.866ZM471.783 262.368V260.353C471.632 260.425 471.559 260.425 471.408 260.425C470.585 260.649 469.84 260.873 469.017 261.097C469.84 260.946 470.585 260.722 471.408 260.498L471.481 260.873V261.024C471.632 261.623 471.705 262.217 471.705 262.816C471.783 262.738 471.783 262.592 471.783 262.368ZM107.41 165.221H107.561C107.483 165.294 107.483 165.221 107.41 165.221ZM107.41 165.221H107.561C107.483 165.294 107.483 165.221 107.41 165.221ZM434.37 418.715C433.698 419.09 433.177 419.387 432.651 419.684C432.131 419.98 431.683 420.204 431.308 420.428C430.485 420.803 429.964 421.1 429.443 421.324C428.547 421.699 428.25 421.772 427.875 421.923C427.578 421.996 427.203 422.147 426.308 422.522C425.86 422.673 425.188 422.97 424.365 423.267C423.469 423.564 422.422 424.012 421.006 424.387L420.261 425.059C419.141 425.434 417.724 425.803 416.157 426.105L416.23 426.329C420.933 425.361 425.787 423.642 429.219 421.923C432.579 420.137 434.672 418.715 434.37 418.715Z" fill="white"/>
<path d="M107.573 165.307H107.422C107.495 165.234 107.495 165.307 107.573 165.307Z" fill="black"/>
<path d="M464.318 262.893V262.966H464.167C464.022 263.044 464.095 262.966 464.318 262.893Z" fill="black"/>
</svg>
