<svg width="613" height="434" viewBox="0 0 613 434" fill="none" xmlns="http://www.w3.org/2000/svg">
<path d="M52.8005 0.800049C23.9725 0.800049 0.535156 24.2374 0.535156 53.0654V381.599C0.535156 410.427 23.9725 433.864 52.8005 433.864H560.534C589.362 433.864 612.799 410.421 612.799 381.599V53.0654C612.799 24.2374 589.362 0.800049 560.534 0.800049H52.8005ZM52.8005 15.732H560.534C568.148 15.732 575.2 17.9716 581.064 21.7998L332.558 273.106C317.984 287.836 294.844 287.846 280.292 273.106L32.2525 21.7998C38.1222 17.9716 45.1692 15.732 52.7832 15.732H52.8005ZM21.5352 32.3001L212.402 225.727L21.5352 402.367C17.6393 396.46 15.4674 389.289 15.4674 381.596V53.0627C15.4674 45.3752 17.6393 38.1987 21.5352 32.2974V32.3001ZM591.802 32.3001C595.693 38.2011 597.864 45.373 597.864 53.0654V381.599C597.864 389.286 595.693 396.463 591.797 402.364L400.703 225.497L591.802 32.3001ZM390.202 236.233L581.069 412.873C575.204 416.696 568.147 418.941 560.538 418.941H52.8045C45.19 418.941 38.1378 416.696 32.2738 412.873L222.914 236.473L269.58 283.609C289.804 304.088 323.08 304.063 343.315 283.609L390.216 236.245L390.202 236.233Z" fill="black"/>
</svg>
