<svg width="375" height="747" viewBox="0 0 375 747" fill="none" xmlns="http://www.w3.org/2000/svg">
<path d="M304.053 746.666H71.3592C55.0472 746.666 42.5259 743.494 32.9845 738.213C23.4376 732.937 16.9739 725.583 12.7552 717.645C4.31772 701.817 4.43225 683.885 4.40625 673.838L4.41146 72.8383C4.41146 65.3123 4.38541 53.3276 7.89585 41.1409C11.3751 28.9691 18.6303 16.3809 32.9839 8.4636C42.5255 3.17187 55.0465 0 71.3585 0H304.052C320.355 0 332.885 3.17187 342.427 8.45307C351.984 13.7291 358.437 21.0937 362.656 29.0104C371.093 44.8597 370.984 62.7864 371.015 72.8331V673.833C371.005 681.37 371.041 693.354 367.531 705.53C364.046 717.702 356.796 730.296 342.432 738.208C332.906 743.489 320.38 746.661 304.088 746.661C304.072 746.666 304.063 746.666 304.053 746.666ZM36.3592 14.5593C28.0623 19.1687 22.6192 25.3719 18.9005 32.3087C11.4734 46.1367 11.3589 62.8713 11.3849 72.8353V673.835C11.3745 681.315 11.411 692.59 14.5828 703.601C17.8016 714.632 23.9317 725.215 36.3588 732.106C44.6609 736.71 55.9321 739.695 71.3641 739.695H304.057C319.484 739.695 330.755 736.71 339.063 732.106C347.365 727.492 352.792 721.288 356.511 714.361C363.938 700.522 364.063 683.793 364.037 673.834L364.032 72.834C364.042 65.3548 363.995 54.0887 360.823 43.058C357.615 32.0216 351.474 21.454 339.058 14.5527C330.756 9.95893 319.485 6.96413 304.053 6.96413L71.3593 6.96934C55.9326 6.97455 44.662 9.96414 36.3593 14.5579L36.3592 14.5593Z" fill="black"/>
<path d="M158.348 693.693C158.348 677.469 171.504 664.329 187.712 664.329C203.925 664.329 217.076 677.469 217.076 693.693C217.076 709.895 203.93 723.047 187.712 723.047C171.504 723.058 158.348 709.907 158.348 693.693ZM162.217 693.693C162.254 707.761 173.634 719.141 187.712 719.177C201.78 719.14 213.176 707.77 213.196 693.693C213.18 679.614 201.79 668.219 187.712 668.193C173.644 668.229 162.253 679.614 162.217 693.693Z" fill="black"/>
<path d="M0 275.186V227.331C0 224.337 2.43226 221.904 5.42706 221.904C8.42186 221.904 10.8541 224.326 10.8541 227.331V275.186C10.8541 278.17 8.43226 280.613 5.42706 280.613C2.43226 280.618 0 278.181 0 275.186Z" fill="black"/>
<path d="M0 200.146V152.291C0 149.297 2.43226 146.875 5.42706 146.875C8.42186 146.875 10.8541 149.297 10.8541 152.291V200.146C10.8541 203.141 8.43226 205.573 5.42706 205.573C2.43226 205.578 0 203.146 0 200.146Z" fill="black"/>
<path d="M0 115.311V89.2127C0 86.2179 2.43226 83.7856 5.42706 83.7856C8.42186 83.7856 10.8541 86.2075 10.8541 89.2127V115.311C10.8541 118.306 8.43226 120.738 5.42706 120.738C2.43226 120.738 0 118.306 0 115.311Z" fill="black"/>
<path d="M364.094 199.319V151.465C364.094 148.47 366.526 146.038 369.521 146.038C372.526 146.038 374.948 148.459 374.948 151.465V199.319C374.948 202.314 372.526 204.746 369.521 204.746C366.531 204.746 364.094 202.314 364.094 199.319Z" fill="black"/>
<path d="M20.5059 655.013V88.4395H354.906V655.026H20.5059V655.013ZM24.3858 651.143H351.039V92.3164L24.3858 92.3216V651.143Z" fill="black"/>
<path d="M192.893 24.0513C192.893 30.9627 182.523 30.9627 182.523 24.0513C182.523 17.1398 192.893 17.1398 192.893 24.0513Z" fill="black"/>
<path d="M156.719 46.3061C154.787 46.3061 153.225 44.7488 153.225 42.8113C153.225 40.8894 154.787 39.3269 156.719 39.3269H218.709C220.641 39.3269 222.193 40.8894 222.193 42.8113C222.193 44.7436 220.636 46.3061 218.709 46.3061H156.719Z" fill="black"/>
<path d="M135.094 42.822C135.094 51.5251 122.047 51.5251 122.047 42.822C122.047 34.1241 135.094 34.1241 135.094 42.822Z" fill="black"/>
</svg>
