<svg width="599" height="599" viewBox="0 0 599 599" fill="none" xmlns="http://www.w3.org/2000/svg">
<path d="M471.786 137.773L511.901 97.6584C514.817 94.7418 514.817 90.0177 511.901 87.1011C508.984 84.1844 504.26 84.1844 501.343 87.1011L461.229 127.216C458.312 130.132 458.312 134.856 461.229 137.773C462.687 139.231 464.598 139.961 466.51 139.961C468.416 139.961 470.328 139.231 471.786 137.773Z" fill="black"/>
<path d="M588.574 202.933L534.568 220.318C530.646 221.579 528.485 225.787 529.75 229.714C530.766 232.881 533.698 234.897 536.855 234.897C537.61 234.897 538.381 234.782 539.146 234.537L593.152 217.152C597.074 215.891 599.235 211.683 597.969 207.756C596.704 203.834 592.527 201.657 588.574 202.933Z" fill="black"/>
<path d="M371.573 69.6133C374.729 69.6133 377.661 67.5977 378.677 64.431L396.062 10.4257C397.323 6.49863 395.166 2.29023 391.245 1.02983C387.292 -0.251425 383.109 1.92046 381.849 5.84756L364.463 59.8529C363.203 63.78 365.359 67.9884 369.281 69.2488C370.047 69.4988 370.817 69.6133 371.573 69.6133Z" fill="black"/>
<path d="M127.546 460.893L87.4316 501.008C84.515 503.924 84.515 508.648 87.4316 511.565C88.89 513.023 90.8014 513.753 92.7128 513.753C94.6243 513.753 96.5358 513.023 97.994 511.565L138.109 471.45C141.025 468.534 141.025 463.81 138.109 460.893C135.187 457.976 130.463 457.976 127.546 460.893Z" fill="black"/>
<path d="M60.1868 364.133L6.1815 381.519C2.25963 382.779 0.098158 386.987 1.36376 390.915C2.38458 394.081 5.31164 396.097 8.4731 396.097C9.22832 396.097 9.9991 395.982 10.7648 395.737L64.7702 378.352C68.692 377.092 70.8535 372.883 69.5879 368.956C68.3223 365.034 64.1295 362.863 60.1868 364.133Z" fill="black"/>
<path d="M220.653 534.24L203.268 588.245C202.008 592.172 204.164 596.38 208.086 597.641C208.846 597.891 209.622 598.005 210.378 598.005C213.534 598.005 216.466 595.99 217.482 592.823L234.867 538.818C236.127 534.891 233.971 530.682 230.049 529.422C226.086 528.125 221.909 530.318 220.653 534.24Z" fill="black"/>
<path d="M465.119 438.053H510.015L579.718 507.761C581.562 509.61 584.234 510.371 586.77 509.735C589.307 509.115 591.333 507.22 592.114 504.73C607.193 456.933 594.598 405.282 559.259 369.943C521.874 332.558 466.759 320.839 417.593 339.433L259.566 181.406C278.154 132.229 266.441 77.1246 229.055 39.7393C193.711 4.39531 142.061 -8.18736 94.2687 6.88464C91.7791 7.67109 89.8832 9.69718 89.2635 12.2284C88.6437 14.7648 89.3885 17.4366 91.2375 19.2805L160.94 88.9832V133.879L134.205 160.614H89.3095L19.6068 90.9058C17.7631 89.0673 15.1068 88.3017 12.5547 88.9318C10.0183 89.5516 7.99213 91.4474 7.21093 93.937C-7.86774 141.734 4.72654 193.385 40.0656 228.724C78.2376 266.89 136.211 278.156 185.852 257.521L341.466 413.134C320.826 462.774 332.091 520.749 370.263 558.921C395.732 584.39 429.659 598.046 464.523 598.046C478.039 598.041 491.7 595.989 505.05 591.781C507.539 590.994 509.435 588.968 510.055 586.437C510.675 583.901 509.93 581.229 508.081 579.385L438.378 509.682V464.786L465.119 438.053ZM425.635 518.053L488.302 580.72C449.427 588.631 409.214 576.756 380.829 548.376C345.829 513.371 336.307 459.621 357.141 414.616C358.453 411.777 357.854 408.413 355.641 406.199L192.814 243.373C191.382 241.94 189.476 241.185 187.533 241.185C186.476 241.185 185.403 241.409 184.403 241.873C139.397 262.711 85.6427 253.185 50.6427 218.185C22.2573 189.794 10.3973 149.554 18.2987 110.706L80.9653 173.373C82.3664 174.774 84.2623 175.56 86.2465 175.56H137.325C139.304 175.56 141.205 174.774 142.606 173.373L173.716 142.263C175.117 140.862 175.903 138.966 175.903 136.982V85.9033C175.903 83.9241 175.117 82.0231 173.716 80.6221L111.049 17.9555C149.904 10.044 190.137 21.9139 218.522 50.2995C252.788 84.5648 262.768 135.602 243.949 180.31C242.772 183.112 243.407 186.341 245.553 188.487L410.527 353.461C412.672 355.612 415.896 356.231 418.704 355.065C463.417 336.242 514.449 346.226 548.714 380.491C577.1 408.882 588.96 449.122 581.058 487.97L518.392 425.303C516.991 423.902 515.095 423.116 513.11 423.116H462.032C460.053 423.116 458.151 423.902 456.751 425.303L425.641 456.413C424.24 457.814 423.454 459.71 423.454 461.694V512.773C423.449 514.757 424.24 516.658 425.636 518.059L425.635 518.053Z" fill="black"/>
</svg>
