<svg width="747" height="677" viewBox="0 0 747 677" fill="none" xmlns="http://www.w3.org/2000/svg">
<path d="M118.133 19.6095C113.779 14.8595 106.404 14.5314 101.655 18.8803C96.9046 23.2293 96.5765 30.6095 100.931 35.359L122.165 58.547V58.5418C126.514 63.297 133.895 63.6199 138.644 59.271C143.393 54.922 143.717 47.5418 139.368 42.7923L118.133 19.6095Z" fill="black"/>
<path d="M92.4943 91.7494C92.4943 91.7494 108.432 93.3379 108.828 93.3379C115.041 93.3327 120.156 88.4576 120.468 82.2546C120.776 76.0515 116.171 70.692 109.994 70.0619L94.8543 68.5307H94.8491C91.7709 68.2182 88.6928 69.1401 86.2969 71.0984C83.8959 73.0515 82.3751 75.8796 82.0625 78.9578C81.4115 85.3744 86.0828 91.0983 92.4943 91.7494Z" fill="black"/>
<path d="M163.654 39.1828C167.201 39.1515 170.55 37.5161 172.753 34.7401C174.962 31.9589 175.795 28.3286 175.024 24.8652L171.31 9.01582C169.836 2.74502 163.56 -1.15085 157.289 0.323153C151.013 1.79195 147.122 8.07315 148.591 14.3445L152.305 30.1938C153.612 35.4178 158.269 39.1046 163.654 39.1828Z" fill="black"/>
<path d="M616.561 62.2814C619.826 62.297 622.946 60.9376 625.165 58.5418L646.399 35.3538V35.359C650.754 30.609 650.425 23.2287 645.676 18.8803C640.926 14.5314 633.545 14.8595 629.197 19.6095L607.962 42.7921C604.822 46.188 603.999 51.1255 605.863 55.3599C607.733 59.5943 611.936 62.3126 616.561 62.2814Z" fill="black"/>
<path d="M626.92 82.8602C627.53 88.8081 632.535 93.3342 638.514 93.3394C638.905 93.3394 654.847 91.7509 654.847 91.7509C661.259 91.0998 665.931 85.3759 665.28 78.9591C664.629 72.5477 658.905 67.881 652.493 68.5321L637.353 70.0633H637.348C630.942 70.7195 626.275 76.4487 626.92 82.8602Z" fill="black"/>
<path d="M581 38.8853C587.26 40.2864 593.489 36.4217 595.021 30.1926L598.735 14.3433C599.443 11.3329 598.922 8.16104 597.292 5.53077C595.662 2.9005 593.052 1.02557 590.042 0.322502C587.026 -0.385832 583.855 0.134996 581.229 1.76517C578.599 3.39544 576.724 6.00477 576.016 9.01517L572.302 24.8645C570.839 31.1353 574.729 37.4109 581 38.8853Z" fill="black"/>
<path d="M2.09875 223.68L128.656 608.293V533.643L24.2654 216.389C22.2029 210.228 25.4269 203.546 31.531 201.321L128.656 167.42V142.696L23.8537 179.28C15.1558 182.389 8.01503 188.77 3.95236 197.061C-0.110307 205.353 -0.776844 214.905 2.09822 223.681L2.09875 223.68Z" fill="black"/>
<path d="M484.493 163.333H262.827C256.384 163.333 251.16 168.557 251.16 175C251.16 181.443 256.384 186.667 262.827 186.667H484.493C490.936 186.667 496.16 181.443 496.16 175C496.16 168.557 490.936 163.333 484.493 163.333Z" fill="black"/>
<path d="M484.493 210H262.827C256.384 210 251.16 215.224 251.16 221.667C251.16 228.109 256.384 233.333 262.827 233.333H484.493C490.936 233.333 496.16 228.109 496.16 221.667C496.16 215.224 490.936 210 484.493 210Z" fill="black"/>
<path d="M484.493 256.667H262.827C256.384 256.667 251.16 261.891 251.16 268.333C251.16 274.776 256.384 280 262.827 280H484.493C490.936 280 496.16 274.776 496.16 268.333C496.16 261.891 490.936 256.667 484.493 256.667Z" fill="black"/>
<path d="M484.493 303.333H262.827C256.384 303.333 251.16 308.557 251.16 315C251.16 321.443 256.384 326.667 262.827 326.667H484.493C490.936 326.667 496.16 321.443 496.16 315C496.16 308.557 490.936 303.333 484.493 303.333Z" fill="black"/>
<path d="M484.493 350H262.827C256.384 350 251.16 355.224 251.16 361.667C251.16 368.109 256.384 373.333 262.827 373.333H484.493C490.936 373.333 496.16 368.109 496.16 361.667C496.16 355.224 490.936 350 484.493 350Z" fill="black"/>
<path d="M484.493 396.667H262.827C256.384 396.667 251.16 401.891 251.16 408.333C251.16 414.776 256.384 420 262.827 420H484.493C490.936 420 496.16 414.776 496.16 408.333C496.16 401.891 490.936 396.667 484.493 396.667Z" fill="black"/>
<path d="M496.174 455C496.174 448.557 490.95 443.333 484.507 443.333H262.84C256.398 443.333 251.174 448.557 251.174 455C251.174 461.443 256.398 466.667 262.84 466.667H484.507C490.95 466.667 496.174 461.443 496.174 455Z" fill="black"/>
<path d="M723.48 179.28L618.668 142.696V167.42L715.799 201.321H715.804C721.908 203.545 725.127 210.228 723.064 216.389L648.991 441.509C655.918 446.572 662.236 452.41 667.83 458.916L745.231 223.676C748.106 214.9 747.439 205.353 743.377 197.056C739.314 188.764 732.179 182.384 723.481 179.275L723.48 179.28Z" fill="black"/>
<path d="M572.001 641.04V641.665C571.995 648.108 566.777 653.332 560.334 653.337H187.001C180.558 653.332 175.339 648.108 175.334 641.665V104.998C175.344 98.561 180.563 93.3422 187.001 93.3318H560.334C566.771 93.3422 571.99 98.561 572.001 104.998V420.625C579.771 420.229 587.563 420.229 595.334 420.625V104.998C595.323 95.7173 591.631 86.8265 585.068 80.2638C578.506 73.7065 569.61 70.0138 560.334 70.0034H187C177.724 70.0138 168.828 73.7065 162.266 80.2638C155.703 86.8263 152.01 95.7172 152 104.998V641.665C152.01 650.946 155.703 659.843 162.266 666.4C168.823 672.962 177.719 676.655 187 676.665H560.334C569.615 676.655 578.511 672.962 585.068 666.4C591.631 659.843 595.323 650.947 595.334 641.665V641.04C587.579 641.874 579.755 641.874 572.001 641.04Z" fill="black"/>
<path d="M583.666 443.333C560.458 443.333 538.202 452.552 521.791 468.964C505.385 485.376 496.166 507.631 496.166 530.833C496.166 554.041 505.385 576.298 521.797 592.708C538.209 609.115 560.463 618.334 583.671 618.334C606.874 618.334 629.135 609.115 645.541 592.703C661.953 576.291 671.166 554.036 671.166 530.828C671.14 507.631 661.911 485.391 645.51 468.99C629.103 452.583 606.865 443.359 583.666 443.333ZM583.666 595C566.65 595 550.327 588.24 538.297 576.208C526.26 564.172 519.499 547.853 519.499 530.833C519.499 513.817 526.26 497.495 538.291 485.464C550.323 473.428 566.646 466.667 583.661 466.667C600.682 466.667 616.999 473.427 629.035 485.459C641.067 497.49 647.833 513.814 647.833 530.828C647.817 547.844 641.051 564.151 629.021 576.183C616.99 588.215 600.682 594.986 583.666 595Z" fill="black"/>
<path d="M609.533 506.387L571.767 530.184L560.429 517.002C556.22 512.132 548.861 511.59 543.986 515.788C539.106 519.991 538.549 527.346 542.741 532.231L560.637 553.034C564.434 557.367 570.809 558.32 575.705 555.284L621.971 526.122C627.424 522.69 629.059 515.487 625.622 510.034C622.184 504.586 614.981 502.951 609.534 506.388L609.533 506.387Z" fill="black"/>
<path d="M405.747 554.773C405.747 561.216 400.523 566.435 394.081 566.435C387.638 566.435 382.414 561.216 382.414 554.773C382.414 548.331 387.638 543.107 394.081 543.107C400.523 543.107 405.747 548.331 405.747 554.773Z" fill="black"/>
<path d="M323.559 609.44L359.695 589.315L359.701 589.31C365.326 586.174 367.347 579.07 364.211 573.446C361.081 567.815 353.977 565.795 348.347 568.93L318.82 585.383C318.82 585.383 275.039 552.618 274.971 552.566C271.159 549.827 266.08 549.618 262.054 552.035C258.034 554.451 255.825 559.024 256.445 563.675C256.445 563.675 265.039 619.869 265.049 619.941C267.315 634.763 290.424 631.498 288.117 616.415L283.82 588.327L310.894 608.587V608.592C314.581 611.342 319.539 611.675 323.559 609.44Z" fill="black"/>
<path d="M480.72 490H262.827C256.384 490 251.16 495.224 251.16 501.667C251.16 508.109 256.384 513.333 262.827 513.333H474.347C475.607 505.344 477.743 497.521 480.717 490H480.72Z" fill="black"/>
</svg>
