<svg width="711" height="648" viewBox="0 0 711 648" fill="none" xmlns="http://www.w3.org/2000/svg">
<path d="M687.933 0.770752H323.56C310.867 0.770752 301.159 10.479 301.159 23.1721V232.239C304.143 232.984 307.878 232.984 310.117 232.984C350.434 232.984 382.544 265.838 382.544 306.156C382.544 346.473 349.689 379.328 309.372 379.328H301.158V624.981C301.158 637.674 310.866 647.382 323.56 647.382H687.933C700.626 647.382 710.334 637.674 710.334 624.981L710.329 22.4342C710.329 10.4863 700.621 0.778208 687.928 0.778208L687.933 0.770752ZM666.283 601.837H412.416L555.029 566.744C565.482 563.76 572.951 554.796 572.951 544.343V103.809C572.951 92.6116 565.482 83.6481 555.029 81.4081L412.416 45.5694H666.283V601.837ZM489.323 323.331C489.323 311.383 499.031 300.929 511.724 300.929C523.672 300.929 534.125 310.638 534.125 323.331C534.125 336.024 524.417 345.732 511.724 345.732C499.031 344.982 489.323 335.279 489.323 323.331Z" fill="black"/>
<path d="M198.866 277.04C203.345 285.999 207.824 293.467 213.054 299.442C245.158 333.791 303.403 334.535 310.122 334.535C325.805 334.535 339.242 321.842 339.242 305.415C339.242 289.732 326.549 277.04 310.867 276.295C298.175 276.295 267.561 271.816 255.613 259.123C254.118 256.883 249.639 247.925 246.654 241.951C233.961 215.071 214.55 175.498 174.971 175.498H105.534C57.7475 175.498 39.8261 225.524 29.3728 252.404C27.1384 256.133 26.3884 259.118 24.8988 262.102C15.1905 285.998 2.49746 347.966 1.0028 354.69C-1.9816 370.373 7.7216 385.305 23.4041 388.289C25.6437 389.034 27.1385 389.034 28.6333 389.034C42.0707 389.034 54.0187 379.325 57.008 365.888C61.4872 341.248 71.94 297.94 77.1693 283.752C77.9141 282.257 77.9141 280.768 78.6641 280.018L80.9037 372.606L54.0184 612.286C51.7788 628.712 63.7267 643.646 80.8984 645.885H84.6328C99.5648 645.885 113.007 634.687 114.497 619.004L139.137 401.724L164.522 619.004C166.762 635.431 181.694 647.379 198.121 645.885C214.547 643.645 226.495 628.712 225.001 612.286L197.375 372.606L198.866 277.04Z" fill="black"/>
<path d="M199.613 100.08C199.613 133.487 172.534 160.564 139.134 160.564C105.728 160.564 78.6504 133.485 78.6504 100.08C78.6504 66.6787 105.729 39.6013 139.134 39.6013C172.536 39.6013 199.613 66.68 199.613 100.08Z" fill="black"/>
</svg>
