<svg width="8" height="3" viewBox="0 0 8 3" fill="none" xmlns="http://www.w3.org/2000/svg">
<path d="M4.05053 2.99753C4.12821 2.98857 4.20026 2.96024 4.25667 2.91662L7.3675 0.527005C7.44606 0.473943 7.49379 0.397267 7.49944 0.315176C7.50508 0.233013 7.46819 0.152657 7.39736 0.0929988C7.32662 0.0333383 7.22819 -0.000276303 7.12543 1.22484e-06C7.02257 0.000278991 6.92449 0.0344499 6.85419 0.0945261L4 2.28821L1.14581 0.0945266C1.0755 0.0344504 0.977425 0.000279043 0.87457 1.77131e-06C0.771801 -0.000275977 0.673373 0.0333389 0.602639 0.0929993C0.531812 0.15266 0.494922 0.233016 0.500564 0.315177C0.506206 0.39727 0.553943 0.473946 0.632497 0.527006L3.74333 2.91662C3.82509 2.97947 3.9381 3.00927 4.0505 2.99746L4.05053 2.99753Z" fill="#333333"/>
</svg>
