<svg width="224" height="39" viewBox="0 0 224 39" fill="none" xmlns="http://www.w3.org/2000/svg">
<path d="M86.5014 0.201784H68.5857V24.6173H75.2186V5.85167H85.2021C87.8006 5.85167 88.2109 6.65879 88.2109 9.14743C88.2109 12.3087 87.8006 12.645 85.2021 12.645H75.287C75.287 12.645 75.5605 13.4521 76.3811 15.3354C77.1332 17.2187 78.7744 18.2949 80.8258 18.2949C82.8772 18.2949 86.5697 18.2949 86.5697 18.2949C93.5446 18.2949 95.0489 15.9407 95.0489 9.08017C94.9806 2.75768 92.6556 0.201784 86.5014 0.201784ZM6.63291 10.0218C6.70129 10.1563 6.97481 10.8289 7.45348 12.1069C8.0689 13.5866 9.36813 14.461 11.0093 14.461C12.6504 14.461 25.0957 14.461 25.0957 14.461L23.3178 9.95456L6.63291 10.0218V5.51537H25.8478V0.134529H4.30797C1.91465 0.134529 0 1.8833 0 4.23741V20.5145C0 22.734 1.91465 24.6173 4.30797 24.6173H26.053V19.2365H6.63291V10.0218ZM62.7733 0.201784H54.9779L47.1142 8.00401L39.2504 0.134529H31.3183L42.3276 11.6361L29.5404 24.6173H37.8144L47.1142 15.4699L56.2772 24.6173H64.5512L51.7641 11.7033L62.7733 0.201784ZM206.031 0.201784H199.398V20.5817C199.398 22.8013 201.312 24.6846 203.706 24.6846H223.878V19.0347H206.031V0.201784ZM174.575 10.0891C174.644 10.2909 174.917 10.9635 175.396 12.1742C176.011 13.6539 177.311 14.5283 178.952 14.5283C180.593 14.5283 193.038 14.5283 193.038 14.5283L191.26 10.0218H174.575V5.58262H193.79V0.201784H172.251C169.857 0.201784 167.943 1.95056 167.943 4.30468V20.5817C167.943 22.8013 169.857 24.6846 172.251 24.6846H193.996V19.3038H174.575V10.0891ZM118.162 0H109.956C104.28 0 99.2201 1.41247 99.2201 8.94565V15.8735C99.2201 23.4067 104.212 24.8191 109.956 24.8191H118.162C123.906 24.8191 128.966 23.4067 128.966 15.8735V8.94565C128.897 1.41247 123.632 0 118.162 0ZM122.128 15.1336C122.128 18.7657 120.555 19.1692 118.162 19.1692H109.956C107.563 19.1692 105.99 18.7657 105.99 15.1336V9.61825C105.99 5.98619 107.563 5.64989 109.956 5.64989H118.162C120.35 5.64989 122.128 5.98619 122.128 9.61825V15.1336ZM158.027 12.3087V12.0396C161.31 11.5016 161.925 9.48373 161.925 6.38975C161.925 1.00891 159.053 0.134529 154.061 0.134529H134.573V24.6173H154.198C159.463 24.6173 162.267 23.8102 162.267 17.824C162.335 14.73 161.72 12.5777 158.027 12.3087ZM152.625 19.2365H141.206V5.51537H153.241C155.087 5.51537 155.292 6.12071 155.292 7.60044C155.292 9.55099 154.745 9.95456 152.42 9.95456H141.206C141.206 9.95456 141.479 10.6272 142.026 12.1069C142.642 13.5866 143.941 14.461 145.582 14.461H152.83C154.95 14.461 155.702 14.7973 155.702 16.8151C155.702 18.7657 154.814 19.2365 152.625 19.2365ZM223.878 3.56481C223.878 5.51536 222.237 7.12962 220.254 7.12962C218.271 7.12962 216.63 5.51536 216.63 3.56481C216.63 1.61425 218.271 0 220.254 0C222.237 0 223.878 1.61425 223.878 3.56481Z" fill="#FFDD00"/>
<path d="M2.88841 37.8818H4.28603V31.8416H6.89492V30.4413H0.279524V31.8416H2.88841V37.8818Z" fill="white"/>
<path d="M14.2621 34.1511C14.2621 35.5723 13.1337 36.7323 11.7257 36.7323C10.3281 36.7323 9.18926 35.5723 9.18926 34.1511C9.18926 32.7508 10.3281 31.6013 11.7257 31.6013C13.1337 31.6013 14.2621 32.7508 14.2621 34.1511ZM7.79165 34.1511C7.79165 36.3561 9.55161 38.1326 11.7257 38.1326C13.8998 38.1326 15.6597 36.3561 15.6597 34.1511C15.6597 31.9775 13.8998 30.1905 11.7257 30.1905C9.55161 30.1905 7.79165 31.9775 7.79165 34.1511Z" fill="white"/>
<path d="M17.0813 37.8818H18.4685V36.168H20.3631C21.9988 36.168 23.3757 34.9035 23.3757 33.3047C23.3757 31.7058 21.9885 30.4413 20.3631 30.4413H17.0813V37.8818ZM18.4685 34.799V31.8207H20.3217C21.2327 31.8207 21.9781 32.5 21.9781 33.3047C21.9781 34.1198 21.2638 34.799 20.3527 34.799H18.4685Z" fill="white"/>
<path d="M24.7645 37.8818H26.1622V31.8416H30.3447V30.4413H24.7645V37.8818Z" fill="white"/>
<path d="M37.6556 34.1511C37.6556 35.5723 36.5272 36.7323 35.1192 36.7323C33.7216 36.7323 32.5828 35.5723 32.5828 34.1511C32.5828 32.7508 33.7216 31.6013 35.1192 31.6013C36.5272 31.6013 37.6556 32.7508 37.6556 34.1511ZM31.1852 34.1511C31.1852 36.3561 32.9451 38.1326 35.1192 38.1326C37.2933 38.1326 39.0533 36.3561 39.0533 34.1511C39.0533 31.9775 37.2933 30.1905 35.1192 30.1905C32.9451 30.1905 31.1852 31.9775 31.1852 34.1511Z" fill="white"/>
<path d="M40.4748 37.8818H44.3364C45.5373 37.8818 46.5208 36.8995 46.5208 35.6768C46.5208 34.9871 46.1999 34.4228 45.703 34.078C46.0964 33.7436 46.3448 33.2629 46.3448 32.6567C46.3448 31.4445 45.3613 30.4413 44.1604 30.4413H40.4748V37.8818ZM41.8621 36.4815V34.8095H44.3157C44.7609 34.8095 45.1232 35.1857 45.1232 35.6559C45.1232 36.1053 44.7609 36.4815 44.3157 36.4815H41.8621ZM41.8621 33.4928V31.8416H44.1293C44.5745 31.8416 44.9472 32.2178 44.9472 32.6881C44.9472 33.1375 44.5745 33.4928 44.1293 33.4928H41.8621Z" fill="white"/>
<path d="M54.1646 34.1511C54.1646 35.5723 53.0362 36.7323 51.6282 36.7323C50.2306 36.7323 49.0918 35.5723 49.0918 34.1511C49.0918 32.7508 50.2306 31.6013 51.6282 31.6013C53.0362 31.6013 54.1646 32.7508 54.1646 34.1511ZM47.6942 34.1511C47.6942 36.3561 49.4541 38.1326 51.6282 38.1326C53.8023 38.1326 55.5622 36.3561 55.5622 34.1511C55.5622 31.9775 53.8023 30.1905 51.6282 30.1905C49.4541 30.1905 47.6942 31.9775 47.6942 34.1511Z" fill="white"/>
<path d="M56.8576 34.8931H60.0463V33.5241H56.8576V34.8931Z" fill="white"/>
<path d="M61.6441 37.8818H63.0314V36.168H64.926C66.5617 36.168 67.9386 34.9035 67.9386 33.3047C67.9386 31.7058 66.5513 30.4413 64.926 30.4413H61.6441V37.8818ZM63.0314 34.799V31.8207H64.8845C65.7956 31.8207 66.541 32.5 66.541 33.3047C66.541 34.1198 65.8266 34.799 64.9156 34.799H63.0314Z" fill="white"/>
<path d="M68.0286 37.8818H69.5505L69.9439 36.9413H73.8676L74.2817 37.8818H75.8035L72.5735 30.4413H71.238L68.0286 37.8818ZM70.5133 35.5828L71.9109 32.2387L73.3085 35.5828H70.5133Z" fill="white"/>
<path d="M76.423 36.7428C77.6136 37.8296 78.7938 38.1326 79.6323 38.1326C81.4337 38.1326 82.6967 36.9622 82.6967 35.6768C82.6967 35.0812 82.4069 34.4646 81.7857 34.0675C82.293 33.66 82.5518 33.1479 82.5518 32.6045C82.5518 31.4654 81.4544 30.1905 79.6116 30.1905C78.7938 30.1905 77.7378 30.4622 76.6507 31.3714L77.4893 32.4373C78.2968 31.8103 79.0629 31.6013 79.653 31.6013C80.6159 31.6013 81.1438 32.1133 81.1438 32.594C81.1438 32.9703 80.7815 33.451 79.8705 33.451H78.214V34.799H79.8912C80.9471 34.799 81.2991 35.2797 81.2991 35.6768C81.2991 36.2516 80.6366 36.7428 79.7048 36.7428C79.1251 36.7428 78.2658 36.5233 77.334 35.6977L76.423 36.7428Z" fill="white"/>
<path d="M84.2592 37.8818H88.1208C89.3217 37.8818 90.3052 36.8995 90.3052 35.6768C90.3052 34.9871 89.9843 34.4228 89.4873 34.078C89.8807 33.7436 90.1292 33.2629 90.1292 32.6567C90.1292 31.4445 89.1457 30.4413 87.9448 30.4413H84.2592V37.8818ZM85.6465 36.4815V34.8095H88.1001C88.5452 34.8095 88.9076 35.1857 88.9076 35.6559C88.9076 36.1053 88.5452 36.4815 88.1001 36.4815H85.6465ZM85.6465 33.4928V31.8416H87.9137C88.3589 31.8416 88.7316 32.2178 88.7316 32.6881C88.7316 33.1375 88.3589 33.4928 87.9137 33.4928H85.6465Z" fill="white"/>
<path d="M92.8456 30.4413C92.8456 32.615 92.8456 34.0362 92.5971 35.0498C92.359 35.9904 91.9138 36.492 91.096 36.7532L91.5101 38.1013C92.8559 37.6833 93.5806 36.8159 93.943 35.4156C94.1914 34.4437 94.2328 33.2524 94.2432 31.8521H97.0384V37.8818H98.4361V30.4413H92.8456Z" fill="white"/>
<path d="M100.242 37.8818H106.05V36.492H101.63V34.8304H104.829V33.451H101.63V31.8416H106.05V30.4413H100.242V37.8818Z" fill="white"/>
<path d="M107.633 37.8818H109.03V34.8617H110.48L112.55 37.8818H114.248L111.68 34.1511L114.248 30.4413H112.55L110.48 33.4614H109.03V30.4413H107.633V37.8818Z" fill="white"/>
<path d="M115.038 37.8818H116.56L116.953 36.9413H120.877L121.291 37.8818H122.813L119.583 30.4413H118.247L115.038 37.8818ZM117.523 35.5828L118.92 32.2387L120.318 35.5828H117.523Z" fill="white"/>
<path d="M124.982 37.8818H126.379V31.8416H128.988V30.4413H122.373V31.8416H124.982V37.8818Z" fill="white"/>
<path d="M130.389 37.8818H136.197V36.492H131.776V34.8304H134.975V33.451H131.776V31.8416H136.197V30.4413H130.389V37.8818Z" fill="white"/>
<path d="M138.783 30.4413C138.783 32.615 138.783 34.0362 138.535 35.0498C138.297 35.9904 137.852 36.492 137.034 36.7532L137.448 38.1013C138.794 37.6833 139.518 36.8159 139.881 35.4156C140.129 34.4437 140.171 33.2524 140.181 31.8521H142.976V37.8818H144.374V30.4413H138.783Z" fill="white"/>
<path d="M147.578 36.5129V34.0362H149.535C150.249 34.0362 150.829 34.6109 150.829 35.2902C150.829 35.9381 150.239 36.5129 149.514 36.5129H147.578ZM146.18 37.8818H149.545C150.994 37.8818 152.226 36.7428 152.226 35.2797C152.226 33.8481 151.036 32.6777 149.535 32.6777H147.578V30.4413H146.18V37.8818Z" fill="white"/>
<path d="M153.57 37.8818H154.958V34.8408H158.767V37.8818H160.155V30.4413H158.767V33.451H154.958V30.4413H153.57V37.8818Z" fill="white"/>
<path d="M161.951 37.8818H165.223C166.682 37.8818 167.883 36.7428 167.883 35.2797C167.883 33.8481 166.713 32.6777 165.212 32.6777H163.349V30.4413H161.951V37.8818ZM163.349 36.5129V34.0362H165.212C165.937 34.0362 166.486 34.6109 166.486 35.2902C166.486 35.9381 165.916 36.5129 165.192 36.5129H163.349ZM169.985 37.8818V30.4413H168.587V37.8818H169.985Z" fill="white"/>
<path d="M171.788 37.8818H173.362L177.14 32.4686V37.8818H178.528V30.4413H176.964L173.186 35.8649V30.4413H171.788V37.8818ZM172.896 28.6439C173.299 29.3963 174.159 30.3368 175.153 30.3368C176.126 30.3368 176.975 29.4277 177.399 28.6439L176.395 28.09C176.281 28.3095 175.701 29.1873 175.153 29.1873C174.645 29.1873 174.066 28.3931 173.9 28.09L172.896 28.6439Z" fill="white"/>
<path d="M185.679 37.8818H191.621V39H193.019V36.4815H192.118V30.4413H190.721V36.4815H187.076V30.4413H185.679V37.8818Z" fill="white"/>
<path d="M194.332 37.8818H200.14V36.492H195.719V34.8304H198.918V33.451H195.719V31.8416H200.14V30.4413H194.332V37.8818Z" fill="white"/>
<path d="M201.722 37.8818H203.11V34.8408H206.919V37.8818H208.307V30.4413H206.919V33.451H203.11V30.4413H201.722V37.8818Z" fill="white"/>
<path d="M212.298 37.8818H213.696V31.8416H216.304V30.4413H209.689V31.8416H212.298V37.8818Z" fill="white"/>
<path d="M217.706 37.8818H219.093V36.168H220.987C222.623 36.168 224 34.9035 224 33.3047C224 31.7058 222.613 30.4413 220.987 30.4413H217.706V37.8818ZM219.093 34.799V31.8207H220.946C221.857 31.8207 222.602 32.5 222.602 33.3047C222.602 34.1198 221.888 34.799 220.977 34.799H219.093Z" fill="white"/>
</svg>
