<svg width="174" height="32" viewBox="0 0 174 32" fill="none" xmlns="http://www.w3.org/2000/svg">
<path d="M66.8433 0.154473H52.9991V18.8455H58.1246V4.47968H65.8393C67.8473 4.47968 68.1643 5.09756 68.1643 7.00271C68.1643 9.42276 67.8473 9.68022 65.8393 9.68022H58.1775C58.1775 9.68022 58.3888 10.2981 59.0229 11.7398C59.6042 13.1816 60.8723 14.0054 62.4575 14.0054C64.0428 14.0054 66.8961 14.0054 66.8961 14.0054C72.2859 14.0054 73.4484 12.2032 73.4484 6.95122C73.3955 2.11111 71.599 0.154473 66.8433 0.154473ZM5.12554 7.67209C5.17838 7.77507 5.38974 8.28997 5.75962 9.26829C6.23519 10.4011 7.23916 11.0705 8.50733 11.0705C9.7755 11.0705 19.3925 11.0705 19.3925 11.0705L18.0186 7.6206L5.12554 7.67209V4.22223H19.9737V0.102987H3.32896C1.47954 0.102987 0 1.44174 0 3.2439V15.7046C0 17.4038 1.47954 18.8455 3.32896 18.8455H20.1323V14.7263H5.12554V7.67209ZM48.5076 0.154473H42.4838L36.4071 6.12737L30.3305 0.102987H24.201L32.7083 8.90786L22.8271 18.8455H29.2208L36.4071 11.8428L43.4878 18.8455H49.8815L40.0003 8.95935L48.5076 0.154473ZM159.209 0.154473H154.083V15.7561C154.083 17.4553 155.563 18.897 157.412 18.897H173V14.5718H159.209V0.154473ZM134.902 7.72358C134.955 7.87805 135.166 8.39295 135.536 9.31978C136.012 10.4526 137.016 11.122 138.284 11.122C139.552 11.122 149.169 11.122 149.169 11.122L147.795 7.67209H134.902V4.27371H149.75V0.154473H133.105C131.256 0.154473 129.776 1.49323 129.776 3.2954V15.7561C129.776 17.4553 131.256 18.897 133.105 18.897H149.909V14.7778H134.902V7.72358ZM91.3085 0H84.9676C80.5818 0 76.6716 1.0813 76.6716 6.84824V12.1518C76.6716 17.9187 80.529 19 84.9676 19H91.3085C95.7471 19 99.6573 17.9187 99.6573 12.1518V6.84824C99.6045 1.0813 95.5357 0 91.3085 0ZM94.3732 11.5854C94.3732 14.3659 93.1579 14.6748 91.3085 14.6748H84.9676C83.1182 14.6748 81.9029 14.3659 81.9029 11.5854V7.36314C81.9029 4.58266 83.1182 4.32521 84.9676 4.32521H91.3085C92.9994 4.32521 94.3732 4.58266 94.3732 7.36314V11.5854ZM122.115 9.42276V9.2168C124.651 8.80488 125.126 7.26016 125.126 4.8916C125.126 0.772358 122.907 0.102987 119.05 0.102987H103.99V18.8455H119.155C123.224 18.8455 125.391 18.2276 125.391 13.645C125.443 11.2764 124.968 9.62873 122.115 9.42276ZM117.94 14.7263H109.116V4.22223H118.416C119.842 4.22223 120.001 4.68564 120.001 5.81843C120.001 7.31165 119.578 7.6206 117.782 7.6206H109.116C109.116 7.6206 109.327 8.1355 109.75 9.26829C110.225 10.4011 111.229 11.0705 112.498 11.0705H118.099C119.737 11.0705 120.318 11.3279 120.318 12.8726C120.318 14.3659 119.631 14.7263 117.94 14.7263ZM173 2.729C173 4.22222 171.732 5.458 170.199 5.458C168.667 5.458 167.399 4.22222 167.399 2.729C167.399 1.23577 168.667 0 170.199 0C171.732 0 173 1.23577 173 2.729Z" fill="#FFDD00"/>
<path d="M2.232 29H3.312V24.376H5.328V23.304H0.216V24.376H2.232V29ZM11.0209 26.144C11.0209 27.232 10.1489 28.12 9.06094 28.12C7.98094 28.12 7.10094 27.232 7.10094 26.144C7.10094 25.072 7.98094 24.192 9.06094 24.192C10.1489 24.192 11.0209 25.072 11.0209 26.144ZM6.02094 26.144C6.02094 27.832 7.38094 29.192 9.06094 29.192C10.7409 29.192 12.1009 27.832 12.1009 26.144C12.1009 24.48 10.7409 23.112 9.06094 23.112C7.38094 23.112 6.02094 24.48 6.02094 26.144ZM13.1994 29H14.2714V27.688H15.7354C16.9994 27.688 18.0634 26.72 18.0634 25.496C18.0634 24.272 16.9914 23.304 15.7354 23.304H13.1994V29ZM14.2714 26.64V24.36H15.7034C16.4074 24.36 16.9834 24.88 16.9834 25.496C16.9834 26.12 16.4314 26.64 15.7274 26.64H14.2714ZM19.1366 29H20.2166V24.376H23.4486V23.304H19.1366V29ZM29.0981 26.144C29.0981 27.232 28.2261 28.12 27.1381 28.12C26.0581 28.12 25.1781 27.232 25.1781 26.144C25.1781 25.072 26.0581 24.192 27.1381 24.192C28.2261 24.192 29.0981 25.072 29.0981 26.144ZM24.0981 26.144C24.0981 27.832 25.4581 29.192 27.1381 29.192C28.8181 29.192 30.1781 27.832 30.1781 26.144C30.1781 24.48 28.8181 23.112 27.1381 23.112C25.4581 23.112 24.0981 24.48 24.0981 26.144ZM31.2766 29H34.2606C35.1886 29 35.9486 28.248 35.9486 27.312C35.9486 26.784 35.7006 26.352 35.3166 26.088C35.6206 25.832 35.8126 25.464 35.8126 25C35.8126 24.072 35.0526 23.304 34.1246 23.304H31.2766V29ZM32.3486 27.928V26.648H34.2446C34.5886 26.648 34.8686 26.936 34.8686 27.296C34.8686 27.64 34.5886 27.928 34.2446 27.928H32.3486ZM32.3486 25.64V24.376H34.1006C34.4446 24.376 34.7326 24.664 34.7326 25.024C34.7326 25.368 34.4446 25.64 34.1006 25.64H32.3486ZM41.8553 26.144C41.8553 27.232 40.9833 28.12 39.8953 28.12C38.8153 28.12 37.9353 27.232 37.9353 26.144C37.9353 25.072 38.8153 24.192 39.8953 24.192C40.9833 24.192 41.8553 25.072 41.8553 26.144ZM36.8553 26.144C36.8553 27.832 38.2153 29.192 39.8953 29.192C41.5753 29.192 42.9353 27.832 42.9353 26.144C42.9353 24.48 41.5753 23.112 39.8953 23.112C38.2153 23.112 36.8553 24.48 36.8553 26.144ZM43.9363 26.712H46.4003V25.664H43.9363V26.712ZM47.6351 29H48.7071V27.688H50.1711C51.4351 27.688 52.4991 26.72 52.4991 25.496C52.4991 24.272 51.4271 23.304 50.1711 23.304H47.6351V29ZM48.7071 26.64V24.36H50.1391C50.8431 24.36 51.4191 24.88 51.4191 25.496C51.4191 26.12 50.8671 26.64 50.1631 26.64H48.7071ZM52.5686 29H53.7446L54.0486 28.28H57.0806L57.4006 29H58.5766L56.0806 23.304H55.0486L52.5686 29ZM54.4886 27.24L55.5686 24.68L56.6486 27.24H54.4886ZM59.0553 28.128C59.9753 28.96 60.8873 29.192 61.5353 29.192C62.9273 29.192 63.9033 28.296 63.9033 27.312C63.9033 26.856 63.6793 26.384 63.1993 26.08C63.5913 25.768 63.7913 25.376 63.7913 24.96C63.7913 24.088 62.9433 23.112 61.5193 23.112C60.8873 23.112 60.0713 23.32 59.2313 24.016L59.8793 24.832C60.5033 24.352 61.0953 24.192 61.5513 24.192C62.2953 24.192 62.7033 24.584 62.7033 24.952C62.7033 25.24 62.4233 25.608 61.7193 25.608H60.4393V26.64H61.7353C62.5513 26.64 62.8233 27.008 62.8233 27.312C62.8233 27.752 62.3113 28.128 61.5913 28.128C61.1433 28.128 60.4793 27.96 59.7593 27.328L59.0553 28.128ZM65.1107 29H68.0947C69.0227 29 69.7827 28.248 69.7827 27.312C69.7827 26.784 69.5347 26.352 69.1507 26.088C69.4547 25.832 69.6467 25.464 69.6467 25C69.6467 24.072 68.8867 23.304 67.9587 23.304H65.1107V29ZM66.1827 27.928V26.648H68.0787C68.4227 26.648 68.7027 26.936 68.7027 27.296C68.7027 27.64 68.4227 27.928 68.0787 27.928H66.1827ZM66.1827 25.64V24.376H67.9347C68.2787 24.376 68.5667 24.664 68.5667 25.024C68.5667 25.368 68.2787 25.64 67.9347 25.64H66.1827ZM71.7457 23.304C71.7457 24.968 71.7457 26.056 71.5537 26.832C71.3697 27.552 71.0257 27.936 70.3937 28.136L70.7137 29.168C71.7537 28.848 72.3137 28.184 72.5937 27.112C72.7857 26.368 72.8177 25.456 72.8257 24.384H74.9857V29H76.0657V23.304H71.7457ZM77.4616 29H81.9496V27.936H78.5336V26.664H81.0056V25.608H78.5336V24.376H81.9496V23.304H77.4616V29ZM83.1723 29H84.2523V26.688H85.3723L86.9723 29H88.2843L86.3003 26.144L88.2843 23.304H86.9723L85.3723 25.616H84.2523V23.304H83.1723V29ZM88.8949 29H90.0709L90.3749 28.28H93.4069L93.7269 29H94.9029L92.4069 23.304H91.3749L88.8949 29ZM90.8149 27.24L91.8949 24.68L92.9749 27.24H90.8149ZM96.5786 29H97.6586V24.376H99.6746V23.304H94.5626V24.376H96.5786V29ZM100.757 29H105.245V27.936H101.829V26.664H104.301V25.608H101.829V24.376H105.245V23.304H100.757V29ZM107.244 23.304C107.244 24.968 107.244 26.056 107.052 26.832C106.868 27.552 106.524 27.936 105.892 28.136L106.212 29.168C107.252 28.848 107.812 28.184 108.092 27.112C108.284 26.368 108.316 25.456 108.324 24.384H110.484V29H111.564V23.304H107.244ZM114.04 27.952V26.056H115.552C116.104 26.056 116.552 26.496 116.552 27.016C116.552 27.512 116.096 27.952 115.536 27.952H114.04ZM112.96 29H115.56C116.68 29 117.632 28.128 117.632 27.008C117.632 25.912 116.712 25.016 115.552 25.016H114.04V23.304H112.96V29ZM118.67 29H119.742V26.672H122.686V29H123.758V23.304H122.686V25.608H119.742V23.304H118.67V29ZM125.147 29H127.675C128.803 29 129.731 28.128 129.731 27.008C129.731 25.912 128.827 25.016 127.667 25.016H126.227V23.304H125.147V29ZM126.227 27.952V26.056H127.667C128.227 26.056 128.651 26.496 128.651 27.016C128.651 27.512 128.211 27.952 127.651 27.952H126.227ZM131.355 29V23.304H130.275V29H131.355ZM132.748 29H133.964L136.884 24.856V29H137.956V23.304H136.748L133.828 27.456V23.304H132.748V29ZM133.604 21.928C133.916 22.504 134.58 23.224 135.348 23.224C136.1 23.224 136.756 22.528 137.084 21.928L136.308 21.504C136.22 21.672 135.772 22.344 135.348 22.344C134.956 22.344 134.508 21.736 134.38 21.504L133.604 21.928ZM143.482 29H148.074V29.856H149.154V27.928H148.458V23.304H147.378V27.928H144.562V23.304H143.482V29ZM150.169 29H154.657V27.936H151.241V26.664H153.713V25.608H151.241V24.376H154.657V23.304H150.169V29ZM155.879 29H156.951V26.672H159.895V29H160.967V23.304H159.895V25.608H156.951V23.304H155.879V29ZM164.052 29H165.132V24.376H167.148V23.304H162.036V24.376H164.052V29ZM168.23 29H169.302V27.688H170.766C172.03 27.688 173.094 26.72 173.094 25.496C173.094 24.272 172.022 23.304 170.766 23.304H168.23V29ZM169.302 26.64V24.36H170.734C171.438 24.36 172.014 24.88 172.014 25.496C172.014 26.12 171.462 26.64 170.758 26.64H169.302Z" fill="#5B5B5B"/>
</svg>
