<svg width="16" height="17" viewBox="0 0 16 17" fill="none" xmlns="http://www.w3.org/2000/svg">
<path d="M14.7915 7.79324L14.8729 7.71189L14.8434 7.60067L13.7694 3.54086L15.1414 2.16887L15.2828 2.02745L15.1414 1.88603L14.614 1.35858L14.4726 1.21716L14.3311 1.35858L12.9592 2.73056L8.89939 1.65655L8.78816 1.62713L8.70681 1.70848L0.858578 9.55679L0.717159 9.69821L0.858578 9.83963L6.66032 15.6414L6.80174 15.7828L6.94316 15.6414L14.7915 7.79324ZM9.13218 2.90331L12.0216 3.66776L10.9352 4.75412C10.5639 4.61113 10.1466 4.63072 9.78785 4.81309L9.78783 4.81311C9.38464 5.01811 9.10409 5.40378 9.03311 5.85043L9.0331 5.85047C8.96223 6.29713 9.10956 6.75071 9.42933 7.07051L9.42935 7.07054C9.74913 7.39023 10.2027 7.53755 10.6494 7.46657L10.618 7.26905L10.6494 7.46657C11.0961 7.39558 11.4816 7.11491 11.6865 6.71184C11.869 6.35298 11.8886 5.93571 11.7455 5.5644L12.832 4.47797L13.5964 7.36741L6.80186 14.1623L2.33771 9.69808L9.13218 2.90331Z" fill="#333333" stroke="#333333" stroke-width="0.4"/>
</svg>
