<svg width="1440" height="158" viewBox="0 0 1440 158" fill="none" xmlns="http://www.w3.org/2000/svg">
<path d="M556.77 1.28457H441.455V156.715H484.148V37.2521H548.407C565.133 37.2521 567.773 42.3903 567.773 58.2331C567.773 78.3577 565.133 80.4986 548.407 80.4986H484.588C484.588 80.4986 486.349 85.6369 491.63 97.626C496.472 109.615 507.035 116.466 520.239 116.466C533.443 116.466 557.21 116.466 557.21 116.466C602.104 116.466 611.787 101.48 611.787 57.8049C611.347 17.5556 596.382 1.28457 556.77 1.28457ZM42.693 63.7995C43.1332 64.6558 44.8937 68.9377 47.9746 77.0732C51.9359 86.4932 60.2984 92.0596 70.8616 92.0596C81.4249 92.0596 161.529 92.0596 161.529 92.0596L150.086 63.3713L42.693 63.7995V35.1112H166.371V0.856421H27.7285C12.3238 0.856421 0 11.9892 0 26.9756V130.596C0 144.726 12.3238 156.715 27.7285 156.715H167.691V122.461H42.693V63.7995ZM404.043 1.28457H353.868L303.253 50.954L252.637 0.856421H201.582L272.443 74.0759L190.138 156.715H243.394L303.253 98.4824L362.231 156.715H415.487L333.182 74.5041L404.043 1.28457ZM1326.12 1.28457H1283.43V131.024C1283.43 145.154 1295.76 157.144 1311.16 157.144H1441V121.176H1326.12V1.28457ZM1123.66 64.2276C1124.1 65.5122 1125.86 69.7941 1128.94 77.5014C1132.91 86.9214 1141.27 92.4878 1151.83 92.4878C1162.39 92.4878 1242.5 92.4878 1242.5 92.4878L1231.06 63.7995H1123.66V35.5393H1247.34V1.28457H1108.7C1093.29 1.28457 1080.97 12.4174 1080.97 27.4038V131.024C1080.97 145.154 1093.29 157.144 1108.7 157.144H1248.66V122.889H1123.66V64.2276ZM760.552 0H707.736C671.205 0 638.635 8.99188 638.635 56.9485V101.051C638.635 149.008 670.765 158 707.736 158H760.552C797.523 158 830.093 149.008 830.093 101.051V56.9485C829.653 8.99188 795.763 0 760.552 0ZM786.08 96.3414C786.08 119.463 775.957 122.032 760.552 122.032H707.736C692.331 122.032 682.208 119.463 682.208 96.3414V61.2304C682.208 38.1084 692.331 35.9675 707.736 35.9675H760.552C774.636 35.9675 786.08 38.1084 786.08 61.2304V96.3414ZM1017.15 78.3577V76.645C1038.28 73.2195 1042.24 60.374 1042.24 40.6775C1042.24 6.42276 1023.75 0.856421 991.623 0.856421H866.184V156.715H992.503C1026.39 156.715 1044.44 151.577 1044.44 113.469C1044.88 93.7723 1040.92 80.0705 1017.15 78.3577ZM982.38 122.461H908.878V35.1112H986.341C998.225 35.1112 999.545 38.9648 999.545 48.3848C999.545 60.8022 996.024 63.3713 981.06 63.3713H908.878C908.878 63.3713 910.638 67.6531 914.159 77.0732C918.12 86.4932 926.483 92.0596 937.046 92.0596H983.7C997.344 92.0596 1002.19 94.2005 1002.19 107.046C1002.19 119.463 996.464 122.461 982.38 122.461ZM1441 22.6938C1441 35.1111 1430.44 45.3876 1417.67 45.3876C1404.91 45.3876 1394.35 35.1111 1394.35 22.6938C1394.35 10.2764 1404.91 0 1417.67 0C1430.44 0 1441 10.2764 1441 22.6938Z" fill="white" fill-opacity="0.5"/>
</svg>
