<svg width="299" height="53" viewBox="0 0 299 53" fill="none" xmlns="http://www.w3.org/2000/svg">
<path d="M115.527 0.268295H91.5996V32.7317H100.458V7.7805H113.792C117.262 7.7805 117.81 8.85366 117.81 12.1626C117.81 16.3659 117.262 16.813 113.792 16.813H100.549C100.549 16.813 100.915 17.8862 102.011 20.3902C103.015 22.8943 105.207 24.3252 107.947 24.3252C110.687 24.3252 115.618 24.3252 115.618 24.3252C124.933 24.3252 126.943 21.1951 126.943 12.0732C126.851 3.66667 123.746 0.268295 115.527 0.268295ZM8.85858 13.3252C8.94991 13.5041 9.31521 14.3984 9.95449 16.0976C10.7764 18.065 12.5116 19.2276 14.7034 19.2276C16.8952 19.2276 33.5165 19.2276 33.5165 19.2276L31.142 13.2358L8.85858 13.3252V7.33334H34.5211V0.178873H5.75351C2.55712 0.178873 0 2.50407 0 5.63415V27.2764C0 30.2276 2.55712 32.7317 5.75351 32.7317H34.7951V25.5772H8.85858V13.3252ZM83.8369 0.268295H73.4258L62.9233 10.6423L52.4209 0.178873H41.8271L56.5305 15.4715L39.4527 32.7317H50.5031L62.9233 20.5691L75.161 32.7317H86.2114L69.1335 15.561L83.8369 0.268295ZM275.164 0.268295H266.305V27.3659C266.305 30.3171 268.863 32.8211 272.059 32.8211H299V25.3089H275.164V0.268295ZM233.154 13.4146C233.246 13.6829 233.611 14.5772 234.25 16.187C235.072 18.1545 236.807 19.3171 238.999 19.3171C241.191 19.3171 257.812 19.3171 257.812 19.3171L255.438 13.3252H233.154V7.42277H258.817V0.268295H230.049C226.853 0.268295 224.296 2.5935 224.296 5.72358V27.3659C224.296 30.3171 226.853 32.8211 230.049 32.8211H259.091V25.6667H233.154V13.4146ZM157.811 0H146.852C139.272 0 132.513 1.87805 132.513 11.8943V21.1057C132.513 31.122 139.18 33 146.852 33H157.811C165.482 33 172.24 31.122 172.24 21.1057V11.8943C172.149 1.87805 165.117 0 157.811 0ZM163.108 20.1219C163.108 24.9512 161.007 25.4878 157.811 25.4878H146.852C143.655 25.4878 141.555 24.9512 141.555 20.1219V12.7886C141.555 7.95935 143.655 7.5122 146.852 7.5122H157.811C160.733 7.5122 163.108 7.95935 163.108 12.7886V20.1219ZM211.053 16.3659V16.0081C215.437 15.2927 216.259 12.6098 216.259 8.49593C216.259 1.34146 212.423 0.178873 205.757 0.178873H179.729V32.7317H205.939C212.971 32.7317 216.716 31.6585 216.716 23.6992C216.807 19.5854 215.985 16.7236 211.053 16.3659ZM203.839 25.5772H188.587V7.33334H204.661C207.126 7.33334 207.4 8.13821 207.4 10.1057C207.4 12.6992 206.67 13.2358 203.565 13.2358H188.587C188.587 13.2358 188.953 14.1301 189.683 16.0976C190.505 18.065 192.24 19.2276 194.432 19.2276H204.113C206.944 19.2276 207.948 19.6748 207.948 22.3577C207.948 24.9512 206.761 25.5772 203.839 25.5772ZM299 4.73984C299 7.33333 296.808 9.47968 294.16 9.47968C291.511 9.47968 289.319 7.33333 289.319 4.73984C289.319 2.14634 291.511 0 294.16 0C296.808 0 299 2.14634 299 4.73984Z" fill="#FFDD00"/>
<circle cx="294" cy="5" r="5" fill="#FFDD00"/>
<path d="M3.47509 51.4626H5.33675V43.158H8.81184V41.2328H0V43.158H3.47509V51.4626Z" fill="#757474"/>
<path d="M18.6251 46.3333C18.6251 48.2874 17.122 49.8822 15.2465 49.8822C13.3849 49.8822 11.8679 48.2874 11.8679 46.3333C11.8679 44.408 13.3849 42.8276 15.2465 42.8276C17.122 42.8276 18.6251 44.408 18.6251 46.3333ZM10.0063 46.3333C10.0063 49.3649 12.3506 51.8075 15.2465 51.8075C18.1424 51.8075 20.4867 49.3649 20.4867 46.3333C20.4867 43.3448 18.1424 40.8879 15.2465 40.8879C12.3506 40.8879 10.0063 43.3448 10.0063 46.3333Z" fill="#757474"/>
<path d="M22.3803 51.4626H24.2281V49.1063H26.7517C28.9305 49.1063 30.7646 47.3678 30.7646 45.1695C30.7646 42.9713 28.9167 41.2328 26.7517 41.2328H22.3803V51.4626ZM24.2281 47.2241V43.1293H26.6966C27.9101 43.1293 28.903 44.0632 28.903 45.1695C28.903 46.2902 27.9514 47.2241 26.7379 47.2241H24.2281Z" fill="#757474"/>
<path d="M32.6145 51.4626H34.4762V43.158H40.0474V41.2328H32.6145V51.4626Z" fill="#757474"/>
<path d="M49.7857 46.3333C49.7857 48.2874 48.2826 49.8822 46.4072 49.8822C44.5455 49.8822 43.0286 48.2874 43.0286 46.3333C43.0286 44.408 44.5455 42.8276 46.4072 42.8276C48.2826 42.8276 49.7857 44.408 49.7857 46.3333ZM41.1669 46.3333C41.1669 49.3649 43.5112 51.8075 46.4072 51.8075C49.3031 51.8075 51.6474 49.3649 51.6474 46.3333C51.6474 43.3448 49.3031 40.8879 46.4072 40.8879C43.5112 40.8879 41.1669 43.3448 41.1669 46.3333Z" fill="#757474"/>
<path d="M53.5409 51.4626H58.6846C60.2842 51.4626 61.5943 50.1121 61.5943 48.431C61.5943 47.4828 61.1668 46.7069 60.5049 46.2328C61.0289 45.773 61.3599 45.1121 61.3599 44.2787C61.3599 42.6121 60.0498 41.2328 58.4502 41.2328H53.5409V51.4626ZM55.3888 49.5374V47.2385H58.657C59.25 47.2385 59.7326 47.7557 59.7326 48.4023C59.7326 49.0201 59.25 49.5374 58.657 49.5374H55.3888ZM55.3888 45.4282V43.158H58.4088C59.0018 43.158 59.4982 43.6753 59.4982 44.3218C59.4982 44.9397 59.0018 45.4282 58.4088 45.4282H55.3888Z" fill="#757474"/>
<path d="M71.776 46.3333C71.776 48.2874 70.2729 49.8822 68.3974 49.8822C66.5358 49.8822 65.0189 48.2874 65.0189 46.3333C65.0189 44.408 66.5358 42.8276 68.3974 42.8276C70.2729 42.8276 71.776 44.408 71.776 46.3333ZM63.1572 46.3333C63.1572 49.3649 65.5015 51.8075 68.3974 51.8075C71.2933 51.8075 73.6376 49.3649 73.6376 46.3333C73.6376 43.3448 71.2933 40.8879 68.3974 40.8879C65.5015 40.8879 63.1572 43.3448 63.1572 46.3333Z" fill="#757474"/>
<path d="M75.3631 47.3534H79.6105V45.4713H75.3631V47.3534Z" fill="#757474"/>
<path d="M81.7389 51.4626H83.5867V49.1063H86.1103C88.2891 49.1063 90.1232 47.3678 90.1232 45.1695C90.1232 42.9713 88.2753 41.2328 86.1103 41.2328H81.7389V51.4626ZM83.5867 47.2241V43.1293H86.0551C87.2687 43.1293 88.2616 44.0632 88.2616 45.1695C88.2616 46.2902 87.31 47.2241 86.0965 47.2241H83.5867Z" fill="#757474"/>
<path d="M90.2431 51.4626H92.2702L92.7943 50.1695H98.0207L98.5723 51.4626H100.599L96.2969 41.2328H94.518L90.2431 51.4626ZM93.5527 48.3017L95.4144 43.704L97.276 48.3017H93.5527Z" fill="#757474"/>
<path d="M101.425 49.8966C103.01 51.3908 104.582 51.8075 105.699 51.8075C108.099 51.8075 109.781 50.1983 109.781 48.431C109.781 47.6121 109.395 46.7644 108.568 46.2184C109.244 45.658 109.588 44.954 109.588 44.2069C109.588 42.6408 108.127 40.8879 105.672 40.8879C104.582 40.8879 103.176 41.2615 101.728 42.5115L102.845 43.977C103.921 43.1149 104.941 42.8276 105.727 42.8276C107.01 42.8276 107.713 43.5316 107.713 44.1925C107.713 44.7098 107.23 45.3707 106.017 45.3707H103.81V47.2241H106.044C107.451 47.2241 107.92 47.8851 107.92 48.431C107.92 49.2213 107.037 49.8966 105.796 49.8966C105.024 49.8966 103.879 49.5948 102.638 48.4598L101.425 49.8966Z" fill="#757474"/>
<path d="M111.863 51.4626H117.006C118.606 51.4626 119.916 50.1121 119.916 48.431C119.916 47.4828 119.488 46.7069 118.827 46.2328C119.351 45.773 119.682 45.1121 119.682 44.2787C119.682 42.6121 118.371 41.2328 116.772 41.2328H111.863V51.4626ZM113.71 49.5374V47.2385H116.979C117.572 47.2385 118.054 47.7557 118.054 48.4023C118.054 49.0201 117.572 49.5374 116.979 49.5374H113.71ZM113.71 45.4282V43.158H116.73C117.323 43.158 117.82 43.6753 117.82 44.3218C117.82 44.9397 117.323 45.4282 116.73 45.4282H113.71Z" fill="#757474"/>
<path d="M123.3 41.2328C123.3 44.2213 123.3 46.1753 122.969 47.569C122.652 48.8621 122.059 49.5517 120.969 49.9109L121.521 51.7644C123.314 51.1897 124.279 49.9971 124.762 48.0718C125.092 46.7356 125.148 45.0977 125.161 43.1724H128.885V51.4626H130.746V41.2328H123.3Z" fill="#757474"/>
<path d="M133.153 51.4626H140.889V49.5517H135V47.2672H139.262V45.3707H135V43.158H140.889V41.2328H133.153V51.4626Z" fill="#757474"/>
<path d="M142.996 51.4626H144.858V47.3103H146.789L149.547 51.4626H151.808L148.388 46.3333L151.808 41.2328H149.547L146.789 45.3851H144.858V41.2328H142.996V51.4626Z" fill="#757474"/>
<path d="M152.861 51.4626H154.888L155.412 50.1695H160.638L161.19 51.4626H163.217L158.915 41.2328H157.136L152.861 51.4626ZM156.17 48.3017L158.032 43.704L159.894 48.3017H156.17Z" fill="#757474"/>
<path d="M166.105 51.4626H167.967V43.158H171.442V41.2328H162.63V43.158H166.105V51.4626Z" fill="#757474"/>
<path d="M173.309 51.4626H181.045V49.5517H175.156V47.2672H179.417V45.3707H175.156V43.158H181.045V41.2328H173.309V51.4626Z" fill="#757474"/>
<path d="M184.49 41.2328C184.49 44.2213 184.49 46.1753 184.159 47.569C183.842 48.8621 183.249 49.5517 182.159 49.9109L182.711 51.7644C184.504 51.1897 185.469 49.9971 185.952 48.0718C186.283 46.7356 186.338 45.0977 186.352 43.1724H190.075V51.4626H191.936V41.2328H184.49Z" fill="#757474"/>
<path d="M196.204 49.5805V46.1753H198.811C199.762 46.1753 200.534 46.9655 200.534 47.8994C200.534 48.7902 199.748 49.5805 198.783 49.5805H196.204ZM194.343 51.4626H198.824C200.755 51.4626 202.396 49.8966 202.396 47.8851C202.396 45.9167 200.81 44.3075 198.811 44.3075H196.204V41.2328H194.343V51.4626Z" fill="#757474"/>
<path d="M204.186 51.4626H206.034V47.2816H211.109V51.4626H212.957V41.2328H211.109V45.3707H206.034V41.2328H204.186V51.4626Z" fill="#757474"/>
<path d="M215.35 51.4626H219.707C221.652 51.4626 223.251 49.8966 223.251 47.8851C223.251 45.9167 221.693 44.3075 219.694 44.3075H217.211V41.2328H215.35V51.4626ZM217.211 49.5805V46.1753H219.694C220.659 46.1753 221.39 46.9655 221.39 47.8994C221.39 48.7902 220.631 49.5805 219.666 49.5805H217.211ZM226.051 51.4626V41.2328H224.189V51.4626H226.051Z" fill="#757474"/>
<path d="M228.452 51.4626H230.549L235.582 44.0201V51.4626H237.43V41.2328H235.348L230.314 48.6897V41.2328H228.452V51.4626ZM229.928 38.7615C230.466 39.796 231.61 41.0891 232.934 41.0891C234.231 41.0891 235.361 39.8391 235.927 38.7615L234.589 38C234.437 38.3017 233.665 39.5086 232.934 39.5086C232.259 39.5086 231.486 38.4167 231.266 38L229.928 38.7615Z" fill="#757474"/>
<path d="M246.956 51.4626H254.871V53H256.733V49.5374H255.533V41.2328H253.671V49.5374H248.817V41.2328H246.956V51.4626Z" fill="#757474"/>
<path d="M258.482 51.4626H266.218V49.5517H260.33V47.2672H264.591V45.3707H260.33V43.158H266.218V41.2328H258.482V51.4626Z" fill="#757474"/>
<path d="M268.326 51.4626H270.174V47.2816H275.248V51.4626H277.096V41.2328H275.248V45.3707H270.174V41.2328H268.326V51.4626Z" fill="#757474"/>
<path d="M282.413 51.4626H284.274V43.158H287.749V41.2328H278.938V43.158H282.413V51.4626Z" fill="#757474"/>
<path d="M289.616 51.4626H291.464V49.1063H293.987C296.166 49.1063 298 47.3678 298 45.1695C298 42.9713 296.152 41.2328 293.987 41.2328H289.616V51.4626ZM291.464 47.2241V43.1293H293.932C295.145 43.1293 296.138 44.0632 296.138 45.1695C296.138 46.2902 295.187 47.2241 293.973 47.2241H291.464Z" fill="#757474"/>
</svg>
